TiroGurmukhi-Regular.ufo
<glyph name="Danda" format="2">
  <advance width="260"/>
  <unicode hex="0964"/>
  <outline>
    <contour>
      <point x="173" y="613" type="line"/>
      <point x="149" y="624"/>
      <point x="112" y="630"/>
      <point x="87" y="630" type="curve"/>
      <point x="87" y="5" type="line"/>
      <point x="111" y="-6"/>
      <point x="148" y="-12"/>
      <point x="173" y="-12" type="curve"/>
    </contour>
  </outline>
</glyph>
<glyph name="DoubleDanda" format="2">
  <advance width="446"/>
  <unicode hex="0965"/>
  <outline>
    <contour>
      <point x="168" y="613" type="line"/>
      <point x="144" y="624"/>
      <point x="107" y="630"/>
      <point x="82" y="630" type="curve"/>
      <point x="82" y="5" type="line"/>
      <point x="106" y="-6"/>
      <point x="143" y="-12"/>
      <point x="168" y="-12" type="curve"/>
    </contour>
    <contour>
      <point x="364" y="613" type="line"/>
      <point x="340" y="624"/>
      <point x="303" y="630"/>
      <point x="278" y="630" type="curve"/>
      <point x="278" y="5" type="line"/>
      <point x="302" y="-6"/>
      <point x="339" y="-12"/>
      <point x="364" y="-12" type="curve"/>
    </contour>
  </outline>
</glyph>
<glyph name="g.AddakBindi" format="2">
  <unicode hex="0A01"/>
  <outline>
    <contour>
      <point x="17" y="872" type="line"/>
      <point x="-15" y="788"/>
      <point x="-71" y="756"/>
      <point x="-132" y="756" type="curve" smooth="yes"/>
      <point x="-203" y="756"/>
      <point x="-249" y="801"/>
      <point x="-268" y="870" type="curve"/>
      <point x="-273" y="869" type="line"/>
      <point x="-279" y="852"/>
      <point x="-281" y="834"/>
      <point x="-281" y="819" type="curve" smooth="yes"/>
      <point x="-281" y="740"/>
      <point x="-223" y="675"/>
      <point x="-124" y="675" type="curve" smooth="yes"/>
      <point x="-35" y="675"/>
      <point x="33" y="727"/>
      <point x="33" y="813" type="curve" smooth="yes"/>
      <point x="33" y="831"/>
      <point x="30" y="854"/>
      <point x="23" y="873" type="curve"/>
    </contour>
    <contour>
      <point x="-190" y="887" type="curve" smooth="yes"/>
      <point x="-190" y="854"/>
      <point x="-165" y="823"/>
      <point x="-129" y="823" type="curve" smooth="yes"/>
      <point x="-95" y="823"/>
      <point x="-67" y="850"/>
      <point x="-67" y="884" type="curve" smooth="yes"/>
      <point x="-67" y="917"/>
      <point x="-93" y="947"/>
      <point x="-129" y="947" type="curve" smooth="yes"/>
      <point x="-163" y="947"/>
      <point x="-190" y="921"/>
    </contour>
  </outline>
</glyph>
<glyph name="g.Bindi" format="2">
  <unicode hex="0A02"/>
  <outline>
    <contour>
      <point x="-184" y="733" type="curve" smooth="yes"/>
      <point x="-184" y="700"/>
      <point x="-160" y="670"/>
      <point x="-124" y="670" type="curve" smooth="yes"/>
      <point x="-90" y="670"/>
      <point x="-63" y="696"/>
      <point x="-63" y="730" type="curve" smooth="yes"/>
      <point x="-63" y="763"/>
      <point x="-88" y="792"/>
      <point x="-124" y="792" type="curve" smooth="yes"/>
      <point x="-158" y="792"/>
      <point x="-184" y="767"/>
    </contour>
  </outline>
</glyph>
<glyph name="g.Visarga" format="2">
  <advance width="413"/>
  <unicode hex="0A03"/>
  <outline>
    <contour>
      <point x="90" y="134" type="curve" smooth="yes"/>
      <point x="90" y="63"/>
      <point x="147" y="9"/>
      <point x="218" y="9" type="curve" smooth="yes"/>
      <point x="285" y="9"/>
      <point x="333" y="56"/>
      <point x="333" y="123" type="curve" smooth="yes"/>
      <point x="333" y="194"/>
      <point x="276" y="249"/>
      <point x="205" y="249" type="curve" smooth="yes"/>
      <point x="138" y="249"/>
      <point x="90" y="201"/>
    </contour>
    <contour>
      <point x="272" y="131" type="curve" smooth="yes"/>
      <point x="272" y="95"/>
      <point x="247" y="69"/>
      <point x="211" y="69" type="curve" smooth="yes"/>
      <point x="178" y="69"/>
      <point x="151" y="91"/>
      <point x="151" y="129" type="curve" smooth="yes"/>
      <point x="151" y="164"/>
      <point x="175" y="191"/>
      <point x="212" y="191" type="curve" smooth="yes"/>
      <point x="245" y="191"/>
      <point x="272" y="167"/>
    </contour>
    <contour>
      <point x="90" y="434" type="curve" smooth="yes"/>
      <point x="90" y="363"/>
      <point x="147" y="309"/>
      <point x="218" y="309" type="curve" smooth="yes"/>
      <point x="285" y="309"/>
      <point x="333" y="356"/>
      <point x="333" y="423" type="curve" smooth="yes"/>
      <point x="333" y="494"/>
      <point x="276" y="549"/>
      <point x="205" y="549" type="curve" smooth="yes"/>
      <point x="138" y="549"/>
      <point x="90" y="501"/>
    </contour>
    <contour>
      <point x="272" y="429" type="curve" smooth="yes"/>
      <point x="272" y="393"/>
      <point x="247" y="367"/>
      <point x="211" y="367" type="curve" smooth="yes"/>
      <point x="178" y="367"/>
      <point x="151" y="389"/>
      <point x="151" y="427" type="curve" smooth="yes"/>
      <point x="151" y="462"/>
      <point x="175" y="489"/>
      <point x="212" y="489" type="curve" smooth="yes"/>
      <point x="245" y="489"/>
      <point x="272" y="465"/>
    </contour>
  </outline>
  <guideline angle="0" x="0" y="128"/>
  <guideline angle="0" x="0" y="0"/>
</glyph>
<glyph name="g.A" format="2">
  <advance width="741"/>
  <unicode hex="0A05"/>
  <outline>
    <contour>
      <point x="422" y="234" type="line"/>
      <point x="483" y="277"/>
      <point x="529" y="305"/>
      <point x="593" y="320" type="curve"/>
      <point x="593" y="406" type="line"/>
      <point x="523" y="388"/>
      <point x="435" y="340"/>
      <point x="386" y="300" type="curve" smooth="yes"/>
      <point x="325" y="250"/>
      <point x="283" y="180"/>
      <point x="283" y="124" type="curve" smooth="yes"/>
      <point x="283" y="97"/>
      <point x="297" y="68"/>
      <point x="331" y="68" type="curve" smooth="yes"/>
      <point x="387" y="68"/>
      <point x="441" y="147"/>
      <point x="441" y="290" type="curve" smooth="yes"/>
      <point x="441" y="368"/>
      <point x="428" y="470"/>
      <point x="397" y="561" type="curve"/>
      <point x="391" y="563" type="line"/>
      <point x="330" y="533"/>
      <point x="244" y="471"/>
      <point x="173" y="404" type="curve" smooth="yes"/>
      <point x="105" y="339"/>
      <point x="54" y="276"/>
      <point x="54" y="213" type="curve" smooth="yes"/>
      <point x="54" y="186"/>
      <point x="69" y="157"/>
      <point x="103" y="157" type="curve" smooth="yes"/>
      <point x="151" y="157"/>
      <point x="215" y="218"/>
      <point x="215" y="355" type="curve" smooth="yes"/>
      <point x="215" y="439"/>
      <point x="201" y="506"/>
      <point x="155" y="620" type="curve"/>
      <point x="-15" y="620" type="line"/>
      <point x="-15" y="593"/>
      <point x="-10" y="565"/>
      <point x="0" y="542" type="curve"/>
      <point x="101" y="542" type="line"/>
      <point x="125" y="481"/>
      <point x="139" y="426"/>
      <point x="142" y="323" type="curve"/>
      <point x="199" y="323" type="line"/>
      <point x="251" y="376"/>
      <point x="299" y="415"/>
      <point x="348" y="445" type="curve"/>
      <point x="361" y="378"/>
      <point x="368" y="317"/>
      <point x="365" y="259" type="curve"/>
    </contour>
    <contour>
      <point x="659" y="542" type="line"/>
      <point x="756" y="542" type="line"/>
      <point x="754" y="571"/>
      <point x="750" y="596"/>
      <point x="741" y="620" type="curve"/>
      <point x="573" y="620" type="line"/>
      <point x="573" y="5" type="line"/>
      <point x="597" y="-6"/>
      <point x="634" y="-12"/>
      <point x="659" y="-12" type="curve"/>
    </contour>
  </outline>
</glyph>
<glyph name="g.Oo" format="2">
  <advance width="644"/>
  <unicode hex="0A13"/>
  <outline>
    <contour>
      <point x="376" y="-15" type="curve" smooth="yes"/>
      <point x="482" y="-15"/>
      <point x="532" y="65"/>
      <point x="532" y="137" type="curve" smooth="yes"/>
      <point x="532" y="203"/>
      <point x="490" y="264"/>
      <point x="442" y="306" type="curve"/>
      <point x="365" y="291" type="line"/>
      <point x="416" y="256"/>
      <point x="446" y="203"/>
      <point x="446" y="152" type="curve" smooth="yes"/>
      <point x="446" y="100"/>
      <point x="415" y="62"/>
      <point x="355" y="62" type="curve" smooth="yes"/>
      <point x="199" y="62"/>
      <point x="134" y="325"/>
      <point x="134" y="542" type="curve" smooth="yes"/>
      <point x="134" y="627"/>
      <point x="148" y="723"/>
      <point x="205" y="769" type="curve" smooth="yes"/>
      <point x="238" y="797"/>
      <point x="289" y="813"/>
      <point x="395" y="813" type="curve" smooth="yes"/>
      <point x="454" y="813"/>
      <point x="512" y="809"/>
      <point x="573" y="807" type="curve"/>
      <point x="571" y="836"/>
      <point x="567" y="860"/>
      <point x="558" y="884" type="curve"/>
      <point x="498" y="888"/>
      <point x="440" y="890"/>
      <point x="391" y="890" type="curve" smooth="yes"/>
      <point x="277" y="890"/>
      <point x="216" y="879"/>
      <point x="162" y="844" type="curve" smooth="yes"/>
      <point x="81" y="792"/>
      <point x="51" y="664"/>
      <point x="51" y="541" type="curve" smooth="yes"/>
      <point x="51" y="265"/>
      <point x="176" y="-15"/>
    </contour>
    <contour>
      <point x="329" y="276" type="curve" smooth="yes"/>
      <point x="509" y="276"/>
      <point x="594" y="357"/>
      <point x="594" y="524" type="curve" smooth="yes"/>
      <point x="594" y="562" type="line"/>
      <point x="513" y="562" type="line"/>
      <point x="515" y="428"/>
      <point x="481" y="350"/>
      <point x="319" y="350" type="curve" smooth="yes"/>
      <point x="275" y="350"/>
      <point x="237" y="351"/>
      <point x="125" y="358" type="curve"/>
      <point x="143" y="285" type="line"/>
      <point x="239" y="277"/>
      <point x="292" y="276"/>
    </contour>
    <contour>
      <point x="659" y="542" type="line"/>
      <point x="657" y="571"/>
      <point x="653" y="596"/>
      <point x="644" y="620" type="curve"/>
      <point x="-15" y="620" type="line"/>
      <point x="-15" y="593"/>
      <point x="-10" y="565"/>
      <point x="0" y="542" type="curve"/>
    </contour>
  </outline>
</glyph>
<glyph name="g.Ka" format="2">
  <advance width="647"/>
  <unicode hex="0A15"/>
  <outline>
    <contour>
      <point x="259" y="80" type="curve" smooth="yes"/>
      <point x="344" y="80"/>
      <point x="410" y="126"/>
      <point x="470" y="201" type="curve" smooth="yes"/>
      <point x="542" y="291"/>
      <point x="577" y="412"/>
      <point x="574" y="562" type="curve"/>
      <point x="493" y="562" type="line"/>
      <point x="495" y="450"/>
      <point x="472" y="347"/>
      <point x="421" y="269" type="curve" smooth="yes"/>
      <point x="372" y="194"/>
      <point x="310" y="157"/>
      <point x="238" y="157" type="curve" smooth="yes"/>
      <point x="182" y="157"/>
      <point x="142" y="187"/>
      <point x="142" y="241" type="curve" smooth="yes"/>
      <point x="142" y="302"/>
      <point x="198" y="356"/>
      <point x="264" y="356" type="curve" smooth="yes"/>
      <point x="330" y="356"/>
      <point x="378" y="295"/>
      <point x="407" y="225" type="curve"/>
      <point x="458" y="305" type="line"/>
      <point x="440" y="305" type="line"/>
      <point x="392" y="378"/>
      <point x="327" y="431"/>
      <point x="242" y="431" type="curve" smooth="yes"/>
      <point x="147" y="431"/>
      <point x="60" y="362"/>
      <point x="60" y="268" type="curve" smooth="yes"/>
      <point x="60" y="165"/>
      <point x="159" y="80"/>
    </contour>
    <contour>
      <point x="553" y="-17" type="curve"/>
      <point x="542" y="62"/>
      <point x="520" y="157"/>
      <point x="480" y="239" type="curve"/>
      <point x="416" y="159" type="line"/>
      <point x="434" y="159" type="line"/>
      <point x="449" y="107"/>
      <point x="459" y="53"/>
      <point x="467" y="0" type="curve"/>
      <point x="491" y="-11"/>
      <point x="528" y="-17"/>
    </contour>
    <contour>
      <point x="662" y="542" type="line"/>
      <point x="660" y="571"/>
      <point x="656" y="596"/>
      <point x="647" y="620" type="curve"/>
      <point x="-15" y="620" type="line"/>
      <point x="-15" y="593"/>
      <point x="-10" y="565"/>
      <point x="0" y="542" type="curve"/>
    </contour>
  </outline>
</glyph>
<glyph name="g.Kha" format="2">
  <advance width="578"/>
  <unicode hex="0A16"/>
  <outline>
    <contour>
      <point x="287" y="107" type="curve" smooth="yes"/>
      <point x="335" y="107"/>
      <point x="376" y="128"/>
      <point x="430" y="159" type="curve"/>
      <point x="430" y="263" type="line"/>
      <point x="370" y="217"/>
      <point x="315" y="187"/>
      <point x="263" y="187" type="curve" smooth="yes"/>
      <point x="217" y="187"/>
      <point x="186" y="211"/>
      <point x="146" y="254" type="curve"/>
      <point x="178" y="312"/>
      <point x="193" y="348"/>
      <point x="193" y="414" type="curve" smooth="yes"/>
      <point x="193" y="486"/>
      <point x="172" y="557"/>
      <point x="145" y="620" type="curve"/>
      <point x="-15" y="620" type="line"/>
      <point x="-15" y="593"/>
      <point x="-10" y="565"/>
      <point x="0" y="542" type="curve"/>
      <point x="89" y="542" type="line"/>
      <point x="107" y="503"/>
      <point x="115" y="468"/>
      <point x="115" y="435" type="curve" smooth="yes"/>
      <point x="115" y="380"/>
      <point x="93" y="328"/>
      <point x="50" y="269" type="curve"/>
      <point x="114" y="184"/>
      <point x="201" y="107"/>
    </contour>
    <contour>
      <point x="172" y="355" type="line"/>
      <point x="210" y="357"/>
      <point x="288" y="359"/>
      <point x="346" y="359" type="curve" smooth="yes"/>
      <point x="430" y="359" type="line"/>
      <point x="430" y="432" type="line"/>
      <point x="343" y="432" type="line" smooth="yes"/>
      <point x="267" y="432"/>
      <point x="217" y="430"/>
      <point x="172" y="428" type="curve"/>
    </contour>
    <contour>
      <point x="496" y="542" type="line"/>
      <point x="593" y="542" type="line"/>
      <point x="591" y="571"/>
      <point x="587" y="596"/>
      <point x="578" y="620" type="curve"/>
      <point x="410" y="620" type="line"/>
      <point x="410" y="5" type="line"/>
      <point x="434" y="-6"/>
      <point x="471" y="-12"/>
      <point x="496" y="-12" type="curve"/>
    </contour>
  </outline>
</glyph>
<glyph name="g.Ga" format="2">
  <advance width="734"/>
  <unicode hex="0A17"/>
  <outline>
    <contour>
      <point x="328" y="-15" type="curve" smooth="yes"/>
      <point x="428" y="-15"/>
      <point x="457" y="43"/>
      <point x="457" y="169" type="curve" smooth="yes"/>
      <point x="457" y="283"/>
      <point x="456" y="430"/>
      <point x="455" y="562" type="curve"/>
      <point x="372" y="562" type="line"/>
      <point x="372" y="485"/>
      <point x="373" y="414"/>
      <point x="373" y="375" type="curve" smooth="yes"/>
      <point x="373" y="334"/>
      <point x="373" y="264"/>
      <point x="373" y="215" type="curve" smooth="yes"/>
      <point x="373" y="78"/>
      <point x="355" y="62"/>
      <point x="311" y="62" type="curve" smooth="yes"/>
      <point x="219" y="62"/>
      <point x="151" y="132"/>
      <point x="151" y="246" type="curve" smooth="yes"/>
      <point x="151" y="331"/>
      <point x="199" y="331"/>
      <point x="286" y="331" type="curve" smooth="yes"/>
      <point x="333" y="331"/>
      <point x="359" y="330"/>
      <point x="390" y="328" type="curve"/>
      <point x="394" y="401" type="line"/>
      <point x="346" y="405"/>
      <point x="335" y="405"/>
      <point x="274" y="405" type="curve" smooth="yes"/>
      <point x="155" y="405"/>
      <point x="65" y="396"/>
      <point x="65" y="275" type="curve" smooth="yes"/>
      <point x="65" y="143"/>
      <point x="175" y="-15"/>
    </contour>
    <contour>
      <point x="652" y="562" type="line"/>
      <point x="566" y="562" type="line"/>
      <point x="566" y="5" type="line"/>
      <point x="590" y="-6"/>
      <point x="627" y="-12"/>
      <point x="652" y="-12" type="curve"/>
    </contour>
    <contour>
      <point x="749" y="542" type="line"/>
      <point x="747" y="571"/>
      <point x="743" y="596"/>
      <point x="734" y="620" type="curve"/>
      <point x="-15" y="620" type="line"/>
      <point x="-15" y="593"/>
      <point x="-10" y="565"/>
      <point x="0" y="542" type="curve"/>
    </contour>
  </outline>
</glyph>
<glyph name="g.Gha" format="2">
  <advance width="714"/>
  <unicode hex="0A18"/>
  <outline>
    <contour>
      <point x="260" y="110" type="curve" smooth="yes"/>
      <point x="304" y="110"/>
      <point x="357" y="141"/>
      <point x="383" y="236" type="curve" smooth="yes"/>
      <point x="398" y="290"/>
      <point x="423" y="364"/>
      <point x="423" y="469" type="curve" smooth="yes"/>
      <point x="423" y="530"/>
      <point x="413" y="603"/>
      <point x="365" y="603" type="curve" smooth="yes"/>
      <point x="319" y="603"/>
      <point x="306" y="533"/>
      <point x="306" y="472" type="curve" smooth="yes"/>
      <point x="306" y="426"/>
      <point x="313" y="347"/>
      <point x="331" y="277" type="curve"/>
      <point x="302" y="215"/>
      <point x="275" y="188"/>
      <point x="240" y="188" type="curve" smooth="yes"/>
      <point x="207" y="188"/>
      <point x="173" y="210"/>
      <point x="147" y="237" type="curve"/>
      <point x="186" y="303"/>
      <point x="201" y="367"/>
      <point x="201" y="430" type="curve" smooth="yes"/>
      <point x="201" y="499"/>
      <point x="183" y="562"/>
      <point x="161" y="620" type="curve"/>
      <point x="-15" y="620" type="line"/>
      <point x="-15" y="593"/>
      <point x="-10" y="565"/>
      <point x="0" y="542" type="curve"/>
      <point x="108" y="542" type="line"/>
      <point x="120" y="508"/>
      <point x="124" y="477"/>
      <point x="124" y="450" type="curve" smooth="yes"/>
      <point x="124" y="384"/>
      <point x="102" y="325"/>
      <point x="56" y="253" type="curve"/>
      <point x="113" y="172"/>
      <point x="196" y="110"/>
    </contour>
    <contour>
      <point x="468" y="110" type="curve" smooth="yes"/>
      <point x="499" y="110"/>
      <point x="530" y="123"/>
      <point x="566" y="159" type="curve"/>
      <point x="566" y="276" type="line"/>
      <point x="527" y="213"/>
      <point x="486" y="189"/>
      <point x="455" y="189" type="curve" smooth="yes"/>
      <point x="428" y="189"/>
      <point x="399" y="211"/>
      <point x="380" y="289" type="curve"/>
      <point x="348" y="185" type="line"/>
      <point x="366" y="185" type="line"/>
      <point x="386" y="143"/>
      <point x="421" y="110"/>
    </contour>
    <contour>
      <point x="632" y="542" type="line"/>
      <point x="729" y="542" type="line"/>
      <point x="727" y="571"/>
      <point x="723" y="596"/>
      <point x="714" y="620" type="curve"/>
      <point x="546" y="620" type="line"/>
      <point x="546" y="5" type="line"/>
      <point x="570" y="-6"/>
      <point x="607" y="-12"/>
      <point x="632" y="-12" type="curve"/>
    </contour>
  </outline>
</glyph>
<glyph name="g.Nga" format="2">
  <advance width="606"/>
  <unicode hex="0A19"/>
  <outline>
    <contour>
      <point x="270" y="-15" type="curve" smooth="yes"/>
      <point x="408" y="-15"/>
      <point x="540" y="112"/>
      <point x="540" y="268" type="curve" smooth="yes"/>
      <point x="540" y="432"/>
      <point x="391" y="433"/>
      <point x="318" y="433" type="curve" smooth="yes"/>
      <point x="235" y="433"/>
      <point x="193" y="433"/>
      <point x="169" y="432" type="curve"/>
      <point x="169" y="437"/>
      <point x="169" y="526"/>
      <point x="171" y="556" type="curve"/>
      <point x="84" y="557" type="line"/>
      <point x="83" y="502"/>
      <point x="83" y="365"/>
      <point x="83" y="360" type="curve"/>
      <point x="89" y="354" type="line"/>
      <point x="128" y="356"/>
      <point x="195" y="357"/>
      <point x="337" y="357" type="curve" smooth="yes"/>
      <point x="422" y="357"/>
      <point x="466" y="350"/>
      <point x="466" y="278" type="curve" smooth="yes"/>
      <point x="466" y="165"/>
      <point x="360" y="62"/>
      <point x="243" y="62" type="curve" smooth="yes"/>
      <point x="202" y="62"/>
      <point x="159" y="74"/>
      <point x="159" y="121" type="curve" smooth="yes"/>
      <point x="159" y="171"/>
      <point x="208" y="196"/>
      <point x="264" y="196" type="curve" smooth="yes"/>
      <point x="371" y="196"/>
      <point x="437" y="103"/>
      <point x="485" y="-5" type="curve"/>
      <point x="509" y="-16"/>
      <point x="546" y="-22"/>
      <point x="577" y="-22" type="curve"/>
      <point x="556" y="42"/>
      <point x="482" y="143"/>
      <point x="453" y="172" type="curve" smooth="yes"/>
      <point x="399" y="226"/>
      <point x="329" y="271"/>
      <point x="247" y="271" type="curve" smooth="yes"/>
      <point x="159" y="271"/>
      <point x="85" y="220"/>
      <point x="85" y="136" type="curve" smooth="yes"/>
      <point x="85" y="43"/>
      <point x="177" y="-15"/>
    </contour>
    <contour>
      <point x="621" y="542" type="line"/>
      <point x="619" y="571"/>
      <point x="615" y="596"/>
      <point x="606" y="620" type="curve"/>
      <point x="-15" y="620" type="line"/>
      <point x="-15" y="593"/>
      <point x="-10" y="565"/>
      <point x="0" y="542" type="curve"/>
    </contour>
  </outline>
</glyph>
<glyph name="g.Ca" format="2">
  <advance width="609"/>
  <unicode hex="0A1A"/>
  <outline>
    <contour>
      <point x="624" y="542" type="line"/>
      <point x="622" y="571"/>
      <point x="618" y="596"/>
      <point x="609" y="620" type="curve"/>
      <point x="-15" y="620" type="line"/>
      <point x="-15" y="593"/>
      <point x="-10" y="565"/>
      <point x="0" y="542" type="curve"/>
    </contour>
    <contour>
      <point x="137" y="268" type="curve" smooth="yes"/>
      <point x="241" y="268"/>
      <point x="321" y="267"/>
      <point x="379" y="267" type="curve" smooth="yes"/>
      <point x="403" y="267"/>
      <point x="434" y="268"/>
      <point x="464" y="268" type="curve"/>
      <point x="464" y="344" type="line"/>
      <point x="440" y="344"/>
      <point x="387" y="343"/>
      <point x="342" y="343" type="curve" smooth="yes"/>
      <point x="294" y="343"/>
      <point x="244" y="343"/>
      <point x="136" y="346" type="curve"/>
      <point x="136" y="270" type="line" smooth="yes"/>
      <point x="136" y="143"/>
      <point x="231" y="-15"/>
      <point x="393" y="-15" type="curve" smooth="yes"/>
      <point x="495" y="-15"/>
      <point x="528" y="43"/>
      <point x="528" y="147" type="curve" smooth="yes"/>
      <point x="528" y="283"/>
      <point x="526" y="422"/>
      <point x="525" y="562" type="curve"/>
      <point x="442" y="562" type="line"/>
      <point x="442" y="472"/>
      <point x="444" y="402"/>
      <point x="444" y="324" type="curve" smooth="yes"/>
      <point x="444" y="171" type="line" smooth="yes"/>
      <point x="444" y="77"/>
      <point x="424" y="62"/>
      <point x="377" y="62" type="curve" smooth="yes"/>
      <point x="286" y="62"/>
      <point x="220" y="123"/>
      <point x="220" y="243" type="curve" smooth="yes"/>
      <point x="220" y="266"/>
      <point x="225" y="343"/>
      <point x="225" y="381" type="curve" smooth="yes"/>
      <point x="225" y="422"/>
      <point x="216" y="440"/>
      <point x="187" y="440" type="curve" smooth="yes"/>
      <point x="128" y="440"/>
      <point x="47" y="351"/>
      <point x="47" y="302" type="curve" smooth="yes"/>
      <point x="47" y="269"/>
      <point x="80" y="268"/>
    </contour>
  </outline>
  <guideline angle="0" x="0" y="0"/>
</glyph>
<glyph name="g.Cha" format="2">
  <advance width="640"/>
  <unicode hex="0A1B"/>
  <outline>
    <contour>
      <point x="222" y="245" type="line"/>
      <point x="182" y="258"/>
      <point x="162" y="289"/>
      <point x="162" y="310" type="curve" smooth="yes"/>
      <point x="162" y="355"/>
      <point x="217" y="359"/>
      <point x="277" y="359" type="curve" smooth="yes"/>
      <point x="413" y="359"/>
      <point x="460" y="358"/>
      <point x="553" y="358" type="curve"/>
      <point x="559" y="361" type="line"/>
      <point x="559" y="365"/>
      <point x="558" y="504"/>
      <point x="557" y="568" type="curve"/>
      <point x="471" y="568" type="line"/>
      <point x="473" y="527"/>
      <point x="474" y="435"/>
      <point x="474" y="432" type="curve"/>
      <point x="418" y="432"/>
      <point x="345" y="434"/>
      <point x="245" y="434" type="curve" smooth="yes"/>
      <point x="166" y="434"/>
      <point x="79" y="420"/>
      <point x="79" y="337" type="curve" smooth="yes"/>
      <point x="79" y="291"/>
      <point x="113" y="247"/>
      <point x="160" y="223" type="curve"/>
    </contour>
    <contour>
      <point x="299" y="60" type="curve" smooth="yes"/>
      <point x="214" y="60"/>
      <point x="145" y="79"/>
      <point x="145" y="123" type="curve" smooth="yes"/>
      <point x="145" y="171"/>
      <point x="235" y="200"/>
      <point x="353" y="200" type="curve" smooth="yes"/>
      <point x="419" y="200"/>
      <point x="499" y="185"/>
      <point x="499" y="139" type="curve" smooth="yes"/>
      <point x="499" y="95"/>
      <point x="429" y="60"/>
    </contour>
    <contour>
      <point x="655" y="542" type="line"/>
      <point x="653" y="571"/>
      <point x="649" y="596"/>
      <point x="640" y="620" type="curve"/>
      <point x="-15" y="620" type="line"/>
      <point x="-15" y="593"/>
      <point x="-10" y="565"/>
      <point x="0" y="542" type="curve"/>
    </contour>
    <contour>
      <point x="319" y="273" type="curve" smooth="yes"/>
      <point x="200" y="273"/>
      <point x="69" y="230"/>
      <point x="69" y="132" type="curve" smooth="yes"/>
      <point x="69" y="46"/>
      <point x="174" y="-15"/>
      <point x="333" y="-15" type="curve" smooth="yes"/>
      <point x="498" y="-15"/>
      <point x="574" y="47"/>
      <point x="574" y="127" type="curve" smooth="yes"/>
      <point x="574" y="229"/>
      <point x="458" y="273"/>
    </contour>
    <contour>
      <point x="355" y="40" type="line"/>
      <point x="354" y="102"/>
      <point x="353" y="160"/>
      <point x="353" y="220" type="curve"/>
      <point x="282" y="220" type="line"/>
      <point x="282" y="156"/>
      <point x="283" y="99"/>
      <point x="284" y="40" type="curve"/>
    </contour>
  </outline>
</glyph>
<glyph name="g.Ja" format="2">
  <advance width="604"/>
  <unicode hex="0A1C"/>
  <outline>
    <contour>
      <point x="228" y="-11" type="curve"/>
      <point x="229" y="72"/>
      <point x="230" y="148"/>
      <point x="230" y="303" type="curve" smooth="yes"/>
      <point x="230" y="408"/>
      <point x="222" y="423"/>
      <point x="193" y="423" type="curve" smooth="yes"/>
      <point x="137" y="423"/>
      <point x="47" y="332"/>
      <point x="47" y="265" type="curve" smooth="yes"/>
      <point x="47" y="248"/>
      <point x="57" y="232"/>
      <point x="87" y="229" type="curve" smooth="yes"/>
      <point x="118" y="226"/>
      <point x="139" y="227"/>
      <point x="215" y="227" type="curve" smooth="yes"/>
      <point x="289" y="227"/>
      <point x="377" y="227"/>
      <point x="456" y="228" type="curve"/>
      <point x="456" y="306" type="line"/>
      <point x="353" y="302"/>
      <point x="291" y="303"/>
      <point x="148" y="303" type="curve"/>
      <point x="149" y="174"/>
      <point x="145" y="86"/>
      <point x="142" y="5" type="curve"/>
      <point x="166" y="-6"/>
      <point x="205" y="-11"/>
    </contour>
    <contour>
      <point x="522" y="562" type="line"/>
      <point x="436" y="562" type="line"/>
      <point x="436" y="5" type="line"/>
      <point x="460" y="-6"/>
      <point x="497" y="-12"/>
      <point x="522" y="-12" type="curve"/>
    </contour>
    <contour>
      <point x="619" y="542" type="line"/>
      <point x="617" y="571"/>
      <point x="613" y="596"/>
      <point x="604" y="620" type="curve"/>
      <point x="-15" y="620" type="line"/>
      <point x="-15" y="593"/>
      <point x="-10" y="565"/>
      <point x="0" y="542" type="curve"/>
    </contour>
  </outline>
</glyph>
<glyph name="g.Jha" format="2">
  <advance width="563"/>
  <unicode hex="0A1D"/>
  <outline>
    <contour>
      <point x="426" y="-22" type="curve"/>
      <point x="408" y="19"/>
      <point x="380" y="61"/>
      <point x="327" y="123" type="curve" smooth="yes"/>
      <point x="274" y="184"/>
      <point x="219" y="204"/>
      <point x="183" y="204" type="curve" smooth="yes"/>
      <point x="146" y="204"/>
      <point x="114" y="186"/>
      <point x="114" y="147" type="curve" smooth="yes"/>
      <point x="114" y="104"/>
      <point x="161" y="66"/>
      <point x="266" y="66" type="curve" smooth="yes"/>
      <point x="372" y="66"/>
      <point x="492" y="118"/>
      <point x="492" y="220" type="curve" smooth="yes"/>
      <point x="492" y="290"/>
      <point x="451" y="331"/>
      <point x="386" y="352" type="curve"/>
      <point x="386" y="360" type="line"/>
      <point x="163" y="390" type="line"/>
      <point x="158" y="380" type="line"/>
      <point x="133" y="380"/>
      <point x="97" y="379"/>
      <point x="61" y="378" type="curve"/>
      <point x="61" y="351"/>
      <point x="66" y="325"/>
      <point x="76" y="302" type="curve"/>
      <point x="135" y="304"/>
      <point x="191" y="305"/>
      <point x="226" y="305" type="curve" smooth="yes"/>
      <point x="359" y="305"/>
      <point x="414" y="290"/>
      <point x="414" y="235" type="curve" smooth="yes"/>
      <point x="414" y="187"/>
      <point x="367" y="149"/>
      <point x="280" y="148" type="curve"/>
      <point x="270" y="86" type="line"/>
      <point x="292" y="59"/>
      <point x="314" y="29"/>
      <point x="333" y="-5" type="curve"/>
      <point x="357" y="-16"/>
      <point x="395" y="-22"/>
    </contour>
    <contour>
      <point x="286" y="325" type="curve" smooth="yes"/>
      <point x="417" y="325"/>
      <point x="484" y="447"/>
      <point x="494" y="562" type="curve"/>
      <point x="410" y="562" type="line"/>
      <point x="406" y="461"/>
      <point x="319" y="383"/>
      <point x="280" y="383" type="curve" smooth="yes"/>
      <point x="244" y="383"/>
      <point x="167" y="438"/>
      <point x="160" y="562" type="curve"/>
      <point x="69" y="562" type="line"/>
      <point x="93" y="449"/>
      <point x="167" y="325"/>
    </contour>
    <contour>
      <point x="578" y="542" type="line"/>
      <point x="576" y="571"/>
      <point x="572" y="596"/>
      <point x="563" y="620" type="curve"/>
      <point x="-15" y="620" type="line"/>
      <point x="-15" y="593"/>
      <point x="-10" y="565"/>
      <point x="0" y="542" type="curve"/>
    </contour>
  </outline>
</glyph>
<glyph name="g.Nya" format="2">
  <advance width="593"/>
  <unicode hex="0A1E"/>
  <outline>
    <contour>
      <point x="363" y="248" type="line"/>
      <point x="320" y="243"/>
      <point x="310" y="243"/>
      <point x="295" y="243" type="curve" smooth="yes"/>
      <point x="184" y="243"/>
      <point x="142" y="256"/>
      <point x="142" y="299" type="curve" smooth="yes"/>
      <point x="142" y="345"/>
      <point x="188" y="354"/>
      <point x="293" y="354" type="curve" smooth="yes"/>
      <point x="359" y="354"/>
      <point x="463" y="352"/>
      <point x="497" y="351" type="curve"/>
      <point x="503" y="354" type="line"/>
      <point x="503" y="358"/>
      <point x="502" y="521"/>
      <point x="501" y="562" type="curve"/>
      <point x="415" y="562" type="line"/>
      <point x="416" y="545"/>
      <point x="417" y="429"/>
      <point x="417" y="426" type="curve"/>
      <point x="407" y="426"/>
      <point x="373" y="427"/>
      <point x="278" y="427" type="curve" smooth="yes"/>
      <point x="144" y="427"/>
      <point x="61" y="409"/>
      <point x="61" y="318" type="curve" smooth="yes"/>
      <point x="61" y="253"/>
      <point x="112" y="195"/>
      <point x="235" y="180" type="curve"/>
    </contour>
    <contour>
      <point x="425" y="-15" type="curve" smooth="yes"/>
      <point x="475" y="-15"/>
      <point x="508" y="-6"/>
      <point x="533" y="3" type="curve"/>
      <point x="542" y="21"/>
      <point x="550" y="65"/>
      <point x="551" y="87" type="curve"/>
      <point x="548" y="88" type="line"/>
      <point x="499" y="66"/>
      <point x="440" y="57"/>
      <point x="388" y="57" type="curve" smooth="yes"/>
      <point x="322" y="57"/>
      <point x="267" y="70"/>
      <point x="267" y="114" type="curve" smooth="yes"/>
      <point x="267" y="132"/>
      <point x="277" y="159"/>
      <point x="337" y="172" type="curve"/>
      <point x="352" y="170"/>
      <point x="375" y="169"/>
      <point x="399" y="169" type="curve" smooth="yes"/>
      <point x="453" y="169"/>
      <point x="514" y="178"/>
      <point x="514" y="219" type="curve" smooth="yes"/>
      <point x="514" y="250"/>
      <point x="477" y="259"/>
      <point x="435" y="259" type="curve" smooth="yes"/>
      <point x="371" y="259"/>
      <point x="187" y="230"/>
      <point x="187" y="124" type="curve" smooth="yes"/>
      <point x="187" y="32"/>
      <point x="301" y="-15"/>
    </contour>
    <contour>
      <point x="211" y="416" type="line"/>
      <point x="160" y="442"/>
      <point x="135" y="492"/>
      <point x="135" y="562" type="curve"/>
      <point x="50" y="562" type="line"/>
      <point x="50" y="494"/>
      <point x="76" y="439"/>
      <point x="121" y="409" type="curve"/>
      <point x="121" y="391" type="line"/>
    </contour>
    <contour>
      <point x="608" y="542" type="line"/>
      <point x="606" y="571"/>
      <point x="602" y="596"/>
      <point x="593" y="620" type="curve"/>
      <point x="-15" y="620" type="line"/>
      <point x="-15" y="593"/>
      <point x="-10" y="565"/>
      <point x="0" y="542" type="curve"/>
    </contour>
  </outline>
</glyph>
<glyph name="g.Tta" format="2">
  <advance width="570"/>
  <unicode hex="0A1F"/>
  <outline>
    <contour>
      <point x="348" y="-15" type="curve" smooth="yes"/>
      <point x="395" y="-15"/>
      <point x="449" y="3"/>
      <point x="482" y="31" type="curve"/>
      <point x="492" y="50"/>
      <point x="501" y="100"/>
      <point x="501" y="122" type="curve"/>
      <point x="498" y="123" type="line"/>
      <point x="464" y="97"/>
      <point x="391" y="65"/>
      <point x="333" y="65" type="curve" smooth="yes"/>
      <point x="253" y="65"/>
      <point x="180" y="124"/>
      <point x="135" y="198" type="curve"/>
      <point x="190" y="298"/>
      <point x="291" y="357"/>
      <point x="448" y="357" type="curve" smooth="yes"/>
      <point x="468" y="357"/>
      <point x="487" y="356"/>
      <point x="489" y="356" type="curve"/>
      <point x="495" y="362" type="line"/>
      <point x="495" y="367"/>
      <point x="494" y="503"/>
      <point x="493" y="562" type="curve"/>
      <point x="406" y="562" type="line"/>
      <point x="408" y="529"/>
      <point x="409" y="438"/>
      <point x="409" y="433" type="curve"/>
      <point x="171" y="424"/>
      <point x="86" y="292"/>
      <point x="45" y="212" type="curve"/>
      <point x="87" y="141"/>
      <point x="213" y="-15"/>
    </contour>
    <contour>
      <point x="585" y="542" type="line"/>
      <point x="583" y="571"/>
      <point x="579" y="596"/>
      <point x="570" y="620" type="curve"/>
      <point x="-15" y="620" type="line"/>
      <point x="-15" y="593"/>
      <point x="-10" y="565"/>
      <point x="0" y="542" type="curve"/>
    </contour>
  </outline>
</glyph>
<glyph name="g.Ttha" format="2">
  <advance width="641"/>
  <unicode hex="0A20"/>
  <outline>
    <contour>
      <point x="340" y="-15" type="curve" smooth="yes"/>
      <point x="490" y="-15"/>
      <point x="581" y="61"/>
      <point x="581" y="183" type="curve" smooth="yes"/>
      <point x="581" y="313"/>
      <point x="464" y="404"/>
      <point x="311" y="404" type="curve" smooth="yes"/>
      <point x="171" y="404"/>
      <point x="63" y="308"/>
      <point x="63" y="195" type="curve" smooth="yes"/>
      <point x="63" y="71"/>
      <point x="186" y="-15"/>
    </contour>
    <contour>
      <point x="311" y="62" type="curve" smooth="yes"/>
      <point x="221" y="62"/>
      <point x="143" y="91"/>
      <point x="143" y="176" type="curve" smooth="yes"/>
      <point x="143" y="249"/>
      <point x="201" y="329"/>
      <point x="337" y="329" type="curve" smooth="yes"/>
      <point x="437" y="329"/>
      <point x="503" y="284"/>
      <point x="503" y="203" type="curve" smooth="yes"/>
      <point x="503" y="117"/>
      <point x="425" y="62"/>
    </contour>
    <contour>
      <point x="364" y="562" type="line"/>
      <point x="278" y="562" type="line"/>
      <point x="278" y="386" type="line"/>
      <point x="364" y="384" type="line"/>
    </contour>
    <contour>
      <point x="656" y="542" type="line"/>
      <point x="654" y="571"/>
      <point x="650" y="596"/>
      <point x="641" y="620" type="curve"/>
      <point x="-15" y="620" type="line"/>
      <point x="-15" y="593"/>
      <point x="-10" y="565"/>
      <point x="0" y="542" type="curve"/>
    </contour>
  </outline>
</glyph>
<glyph name="g.Dda" format="2">
  <advance width="603"/>
  <unicode hex="0A21"/>
  <outline>
    <contour>
      <point x="278" y="-15" type="curve" smooth="yes"/>
      <point x="436" y="-15"/>
      <point x="535" y="74"/>
      <point x="535" y="199" type="curve" smooth="yes"/>
      <point x="535" y="289"/>
      <point x="475" y="346"/>
      <point x="390" y="378" type="curve"/>
      <point x="321" y="416"/>
      <point x="243" y="426"/>
      <point x="200" y="426" type="curve" smooth="yes"/>
      <point x="137" y="426"/>
      <point x="92" y="407"/>
      <point x="92" y="376" type="curve" smooth="yes"/>
      <point x="92" y="339"/>
      <point x="152" y="310"/>
      <point x="242" y="310" type="curve" smooth="yes"/>
      <point x="283" y="310"/>
      <point x="371" y="319"/>
      <point x="390" y="346" type="curve"/>
      <point x="484" y="372"/>
      <point x="529" y="450"/>
      <point x="529" y="535" type="curve" smooth="yes"/>
      <point x="529" y="562" type="line"/>
      <point x="446" y="562" type="line"/>
      <point x="446" y="546" type="line" smooth="yes"/>
      <point x="446" y="454"/>
      <point x="396" y="413"/>
      <point x="312" y="395" type="curve"/>
      <point x="312" y="354" type="line"/>
      <point x="408" y="314"/>
      <point x="454" y="273"/>
      <point x="454" y="209" type="curve" smooth="yes"/>
      <point x="454" y="123"/>
      <point x="371" y="60"/>
      <point x="255" y="60" type="curve" smooth="yes"/>
      <point x="197" y="60"/>
      <point x="136" y="80"/>
      <point x="136" y="124" type="curve" smooth="yes"/>
      <point x="136" y="161"/>
      <point x="179" y="175"/>
      <point x="221" y="175" type="curve" smooth="yes"/>
      <point x="280" y="175"/>
      <point x="337" y="144"/>
      <point x="398" y="73" type="curve"/>
      <point x="443" y="120" type="line"/>
      <point x="374" y="192"/>
      <point x="298" y="249"/>
      <point x="205" y="249" type="curve" smooth="yes"/>
      <point x="116" y="249"/>
      <point x="62" y="204"/>
      <point x="62" y="138" type="curve" smooth="yes"/>
      <point x="62" y="49"/>
      <point x="163" y="-15"/>
    </contour>
    <contour>
      <point x="618" y="542" type="line"/>
      <point x="616" y="571"/>
      <point x="612" y="596"/>
      <point x="603" y="620" type="curve"/>
      <point x="-15" y="620" type="line"/>
      <point x="-15" y="593"/>
      <point x="-10" y="565"/>
      <point x="0" y="542" type="curve"/>
    </contour>
  </outline>
</glyph>
<glyph name="g.Ddha" format="2">
  <advance width="633"/>
  <unicode hex="0A22"/>
  <outline>
    <contour>
      <point x="425" y="-15" type="curve" smooth="yes"/>
      <point x="521" y="-15"/>
      <point x="581" y="32"/>
      <point x="581" y="111" type="curve" smooth="yes"/>
      <point x="581" y="190"/>
      <point x="510" y="243"/>
      <point x="437" y="243" type="curve" smooth="yes"/>
      <point x="367" y="243"/>
      <point x="281" y="196"/>
      <point x="227" y="144" type="curve"/>
      <point x="273" y="82" type="line"/>
      <point x="322" y="127"/>
      <point x="392" y="167"/>
      <point x="451" y="167" type="curve" smooth="yes"/>
      <point x="484" y="167"/>
      <point x="505" y="154"/>
      <point x="505" y="129" type="curve" smooth="yes"/>
      <point x="505" y="94"/>
      <point x="467" y="62"/>
      <point x="400" y="62" type="curve" smooth="yes"/>
      <point x="289" y="62"/>
      <point x="217" y="155"/>
      <point x="217" y="290" type="curve" smooth="yes"/>
      <point x="217" y="306"/>
      <point x="218" y="321"/>
      <point x="221" y="334" type="curve"/>
      <point x="133" y="334" type="line"/>
      <point x="133" y="317" type="line" smooth="yes"/>
      <point x="133" y="157"/>
      <point x="252" y="-15"/>
    </contour>
    <contour>
      <point x="134" y="313" type="curve" smooth="yes"/>
      <point x="204" y="313"/>
      <point x="268" y="316"/>
      <point x="347" y="316" type="curve" smooth="yes"/>
      <point x="389" y="316"/>
      <point x="453" y="316"/>
      <point x="544" y="314" type="curve"/>
      <point x="550" y="320" type="line"/>
      <point x="550" y="325"/>
      <point x="549" y="489"/>
      <point x="548" y="562" type="curve"/>
      <point x="463" y="562" type="line"/>
      <point x="464" y="513"/>
      <point x="465" y="397"/>
      <point x="465" y="391" type="curve"/>
      <point x="418" y="392"/>
      <point x="391" y="392"/>
      <point x="356" y="392" type="curve" smooth="yes"/>
      <point x="310" y="392"/>
      <point x="267" y="392"/>
      <point x="221" y="390" type="curve"/>
      <point x="222" y="402"/>
      <point x="222" y="412"/>
      <point x="222" y="420" type="curve" smooth="yes"/>
      <point x="222" y="463"/>
      <point x="212" y="481"/>
      <point x="184" y="481" type="curve" smooth="yes"/>
      <point x="123" y="481"/>
      <point x="43" y="397"/>
      <point x="43" y="346" type="curve" smooth="yes"/>
      <point x="43" y="314"/>
      <point x="79" y="313"/>
    </contour>
    <contour>
      <point x="648" y="542" type="line"/>
      <point x="646" y="571"/>
      <point x="642" y="596"/>
      <point x="633" y="620" type="curve"/>
      <point x="-15" y="620" type="line"/>
      <point x="-15" y="593"/>
      <point x="-10" y="565"/>
      <point x="0" y="542" type="curve"/>
    </contour>
  </outline>
</glyph>
<glyph name="g.Nna" format="2">
  <advance width="660"/>
  <unicode hex="0A23"/>
  <outline>
    <contour>
      <point x="398" y="-15" type="curve" smooth="yes"/>
      <point x="458" y="-15"/>
      <point x="510" y="5"/>
      <point x="540" y="31" type="curve"/>
      <point x="550" y="50"/>
      <point x="559" y="100"/>
      <point x="559" y="122" type="curve"/>
      <point x="556" y="123" type="line"/>
      <point x="526" y="99"/>
      <point x="451" y="65"/>
      <point x="377" y="65" type="curve" smooth="yes"/>
      <point x="280" y="65"/>
      <point x="191" y="126"/>
      <point x="135" y="204" type="curve"/>
      <point x="179" y="292"/>
      <point x="267" y="339"/>
      <point x="352" y="339" type="curve" smooth="yes"/>
      <point x="386" y="339"/>
      <point x="414" y="332"/>
      <point x="447" y="319" type="curve"/>
      <point x="453" y="325" type="line"/>
      <point x="453" y="328"/>
      <point x="453" y="406"/>
      <point x="451" y="471" type="curve"/>
      <point x="366" y="535" type="line"/>
      <point x="366" y="498"/>
      <point x="367" y="431"/>
      <point x="367" y="410" type="curve"/>
      <point x="352" y="411"/>
      <point x="343" y="412"/>
      <point x="329" y="412" type="curve" smooth="yes"/>
      <point x="192" y="412"/>
      <point x="94" y="320"/>
      <point x="49" y="215" type="curve"/>
      <point x="97" y="143"/>
      <point x="237" y="-15"/>
    </contour>
    <contour>
      <point x="675" y="542" type="line"/>
      <point x="673" y="571"/>
      <point x="669" y="596"/>
      <point x="660" y="620" type="curve"/>
      <point x="-15" y="620" type="line"/>
      <point x="-15" y="593"/>
      <point x="-10" y="565"/>
      <point x="0" y="542" type="curve"/>
    </contour>
    <contour>
      <point x="613" y="348" type="line"/>
      <point x="623" y="367"/>
      <point x="631" y="395"/>
      <point x="631" y="416" type="curve"/>
      <point x="558" y="457"/>
      <point x="491" y="497"/>
      <point x="448" y="524" type="curve"/>
      <point x="448" y="562" type="line"/>
      <point x="302" y="562" type="line"/>
      <point x="332" y="535"/>
      <point x="369" y="506"/>
      <point x="415" y="472" type="curve" smooth="yes"/>
      <point x="464" y="436"/>
      <point x="541" y="389"/>
      <point x="610" y="348" type="curve"/>
    </contour>
  </outline>
</glyph>
<glyph name="g.Ta" format="2">
  <advance width="583"/>
  <unicode hex="0A24"/>
  <outline>
    <contour>
      <point x="297" y="-15" type="curve" smooth="yes"/>
      <point x="450" y="-15"/>
      <point x="522" y="66"/>
      <point x="522" y="152" type="curve" smooth="yes"/>
      <point x="522" y="274"/>
      <point x="353" y="372"/>
      <point x="196" y="372" type="curve" smooth="yes"/>
      <point x="125" y="372"/>
      <point x="79" y="352"/>
      <point x="79" y="321" type="curve" smooth="yes"/>
      <point x="79" y="284"/>
      <point x="144" y="253"/>
      <point x="236" y="253" type="curve" smooth="yes"/>
      <point x="342" y="253"/>
      <point x="522" y="285"/>
      <point x="522" y="544" type="curve" smooth="yes"/>
      <point x="522" y="562" type="line"/>
      <point x="438" y="562" type="line"/>
      <point x="438" y="544" type="line" smooth="yes"/>
      <point x="438" y="441"/>
      <point x="408" y="362"/>
      <point x="309" y="340" type="curve"/>
      <point x="309" y="294" type="line"/>
      <point x="390" y="267"/>
      <point x="436" y="218"/>
      <point x="436" y="166" type="curve" smooth="yes"/>
      <point x="436" y="107"/>
      <point x="381" y="63"/>
      <point x="272" y="63" type="curve" smooth="yes"/>
      <point x="195" y="63"/>
      <point x="119" y="85"/>
      <point x="53" y="125" type="curve"/>
      <point x="49" y="122" type="line"/>
      <point x="85" y="11"/>
      <point x="211" y="-15"/>
    </contour>
    <contour>
      <point x="598" y="542" type="line"/>
      <point x="596" y="571"/>
      <point x="592" y="596"/>
      <point x="583" y="620" type="curve"/>
      <point x="-15" y="620" type="line"/>
      <point x="-15" y="593"/>
      <point x="-10" y="565"/>
      <point x="0" y="542" type="curve"/>
    </contour>
  </outline>
</glyph>
<glyph name="g.Tha" format="2">
  <advance width="581"/>
  <unicode hex="0A25"/>
  <outline>
    <contour>
      <point x="290" y="97" type="curve" smooth="yes"/>
      <point x="338" y="97"/>
      <point x="380" y="118"/>
      <point x="433" y="150" type="curve"/>
      <point x="433" y="253" type="line"/>
      <point x="373" y="207"/>
      <point x="318" y="177"/>
      <point x="266" y="177" type="curve" smooth="yes"/>
      <point x="220" y="177"/>
      <point x="189" y="201"/>
      <point x="149" y="244" type="curve"/>
      <point x="172" y="287"/>
      <point x="195" y="335"/>
      <point x="195" y="399" type="curve" smooth="yes"/>
      <point x="195" y="446"/>
      <point x="184" y="498"/>
      <point x="143" y="562" type="curve"/>
      <point x="71" y="562" type="line"/>
      <point x="104" y="510"/>
      <point x="117" y="463"/>
      <point x="117" y="422" type="curve" smooth="yes"/>
      <point x="117" y="367"/>
      <point x="92" y="318"/>
      <point x="53" y="259" type="curve"/>
      <point x="117" y="174"/>
      <point x="204" y="97"/>
    </contour>
    <contour>
      <point x="170" y="330" type="line"/>
      <point x="214" y="333"/>
      <point x="278" y="334"/>
      <point x="340" y="334" type="curve" smooth="yes"/>
      <point x="372" y="334"/>
      <point x="402" y="334"/>
      <point x="433" y="332" type="curve"/>
      <point x="433" y="405" type="line"/>
      <point x="403" y="407"/>
      <point x="375" y="407"/>
      <point x="337" y="407" type="curve" smooth="yes"/>
      <point x="261" y="407"/>
      <point x="215" y="405"/>
      <point x="170" y="403" type="curve"/>
    </contour>
    <contour>
      <point x="499" y="562" type="line"/>
      <point x="413" y="562" type="line"/>
      <point x="413" y="5" type="line"/>
      <point x="437" y="-6"/>
      <point x="474" y="-12"/>
      <point x="499" y="-12" type="curve"/>
    </contour>
    <contour>
      <point x="596" y="542" type="line"/>
      <point x="594" y="571"/>
      <point x="590" y="596"/>
      <point x="581" y="620" type="curve"/>
      <point x="-15" y="620" type="line"/>
      <point x="-15" y="593"/>
      <point x="-10" y="565"/>
      <point x="0" y="542" type="curve"/>
    </contour>
  </outline>
</glyph>
<glyph name="g.Da" format="2">
  <advance width="639"/>
  <unicode hex="0A26"/>
  <outline>
    <contour>
      <point x="382" y="-15" type="curve" smooth="yes"/>
      <point x="440" y="-15"/>
      <point x="509" y="2"/>
      <point x="550" y="37" type="curve"/>
      <point x="560" y="56"/>
      <point x="569" y="106"/>
      <point x="569" y="128" type="curve"/>
      <point x="566" y="129" type="line"/>
      <point x="521" y="96"/>
      <point x="446" y="65"/>
      <point x="361" y="65" type="curve" smooth="yes"/>
      <point x="276" y="65"/>
      <point x="211" y="96"/>
      <point x="211" y="207" type="curve" smooth="yes"/>
      <point x="211" y="232"/>
      <point x="215" y="271"/>
      <point x="219" y="297" type="curve" smooth="yes"/>
      <point x="224" y="329"/>
      <point x="225" y="371"/>
      <point x="225" y="378" type="curve" smooth="yes"/>
      <point x="225" y="429"/>
      <point x="216" y="447"/>
      <point x="188" y="447" type="curve" smooth="yes"/>
      <point x="126" y="447"/>
      <point x="46" y="362"/>
      <point x="46" y="314" type="curve" smooth="yes"/>
      <point x="46" y="280"/>
      <point x="81" y="279"/>
      <point x="139" y="279" type="curve" smooth="yes"/>
      <point x="197" y="279"/>
      <point x="248" y="282"/>
      <point x="327" y="282" type="curve" smooth="yes"/>
      <point x="387" y="282"/>
      <point x="461" y="282"/>
      <point x="552" y="280" type="curve"/>
      <point x="558" y="286" type="line"/>
      <point x="558" y="291"/>
      <point x="557" y="455"/>
      <point x="556" y="562" type="curve"/>
      <point x="471" y="562" type="line"/>
      <point x="472" y="479"/>
      <point x="473" y="363"/>
      <point x="473" y="357" type="curve"/>
      <point x="426" y="358"/>
      <point x="399" y="358"/>
      <point x="362" y="358" type="curve" smooth="yes"/>
      <point x="311" y="358"/>
      <point x="194" y="356"/>
      <point x="144" y="354" type="curve"/>
      <point x="142" y="322"/>
      <point x="137" y="260"/>
      <point x="137" y="232" type="curve" smooth="yes"/>
      <point x="137" y="91"/>
      <point x="240" y="-15"/>
    </contour>
    <contour>
      <point x="654" y="542" type="line"/>
      <point x="652" y="571"/>
      <point x="648" y="596"/>
      <point x="639" y="620" type="curve"/>
      <point x="-15" y="620" type="line"/>
      <point x="-15" y="593"/>
      <point x="-10" y="565"/>
      <point x="0" y="542" type="curve"/>
    </contour>
  </outline>
</glyph>
<glyph name="g.Dha" format="2">
  <advance width="576"/>
  <unicode hex="0A27"/>
  <outline>
    <contour>
      <point x="286" y="109" type="curve" smooth="yes"/>
      <point x="335" y="109"/>
      <point x="373" y="130"/>
      <point x="428" y="166" type="curve"/>
      <point x="428" y="271" type="line"/>
      <point x="371" y="220"/>
      <point x="317" y="189"/>
      <point x="263" y="189" type="curve" smooth="yes"/>
      <point x="216" y="189"/>
      <point x="183" y="211"/>
      <point x="143" y="248" type="curve"/>
      <point x="174" y="296"/>
      <point x="192" y="349"/>
      <point x="192" y="402" type="curve" smooth="yes"/>
      <point x="192" y="451"/>
      <point x="178" y="503"/>
      <point x="143" y="562" type="curve"/>
      <point x="71" y="562" type="line"/>
      <point x="102" y="509"/>
      <point x="114" y="465"/>
      <point x="114" y="425" type="curve" smooth="yes"/>
      <point x="114" y="370"/>
      <point x="90" y="321"/>
      <point x="47" y="263" type="curve"/>
      <point x="112" y="182"/>
      <point x="201" y="109"/>
    </contour>
    <contour>
      <point x="494" y="562" type="line"/>
      <point x="408" y="562" type="line"/>
      <point x="408" y="5" type="line"/>
      <point x="432" y="-6"/>
      <point x="469" y="-12"/>
      <point x="494" y="-12" type="curve"/>
    </contour>
    <contour>
      <point x="591" y="542" type="line"/>
      <point x="589" y="571"/>
      <point x="585" y="596"/>
      <point x="576" y="620" type="curve"/>
      <point x="-15" y="620" type="line"/>
      <point x="-15" y="593"/>
      <point x="-10" y="565"/>
      <point x="0" y="542" type="curve"/>
    </contour>
  </outline>
</glyph>
<glyph name="g.Na" format="2">
  <advance width="635"/>
  <unicode hex="0A28"/>
  <outline>
    <contour>
      <point x="262" y="16" type="line"/>
      <point x="175" y="72"/>
      <point x="143" y="130"/>
      <point x="143" y="186" type="curve" smooth="yes"/>
      <point x="143" y="266"/>
      <point x="206" y="330"/>
      <point x="330" y="330" type="curve" smooth="yes"/>
      <point x="421" y="330"/>
      <point x="500" y="293"/>
      <point x="500" y="204" type="curve" smooth="yes"/>
      <point x="500" y="139"/>
      <point x="456" y="94"/>
      <point x="383" y="67" type="curve"/>
      <point x="384" y="46"/>
      <point x="409" y="-2"/>
      <point x="422" y="-15" type="curve"/>
      <point x="523" y="23"/>
      <point x="576" y="94"/>
      <point x="576" y="185" type="curve" smooth="yes"/>
      <point x="576" y="310"/>
      <point x="459" y="404"/>
      <point x="307" y="404" type="curve" smooth="yes"/>
      <point x="173" y="404"/>
      <point x="63" y="318"/>
      <point x="63" y="202" type="curve" smooth="yes"/>
      <point x="63" y="117"/>
      <point x="121" y="35"/>
      <point x="221" y="-37" type="curve"/>
    </contour>
    <contour>
      <point x="360" y="383" type="line"/>
      <point x="360" y="562" type="line"/>
      <point x="274" y="562" type="line"/>
      <point x="274" y="383" type="line"/>
    </contour>
    <contour>
      <point x="650" y="542" type="line"/>
      <point x="648" y="571"/>
      <point x="644" y="596"/>
      <point x="635" y="620" type="curve"/>
      <point x="-15" y="620" type="line"/>
      <point x="-15" y="593"/>
      <point x="-10" y="565"/>
      <point x="0" y="542" type="curve"/>
    </contour>
  </outline>
</glyph>
<glyph name="g.Pa" format="2">
  <advance width="581"/>
  <unicode hex="0A2A"/>
  <outline>
    <contour>
      <point x="292" y="109" type="curve" smooth="yes"/>
      <point x="339" y="109"/>
      <point x="380" y="131"/>
      <point x="433" y="166" type="curve"/>
      <point x="433" y="271" type="line"/>
      <point x="374" y="218"/>
      <point x="319" y="189"/>
      <point x="267" y="189" type="curve" smooth="yes"/>
      <point x="221" y="189"/>
      <point x="185" y="213"/>
      <point x="146" y="249" type="curve"/>
      <point x="182" y="305"/>
      <point x="197" y="354"/>
      <point x="197" y="410" type="curve" smooth="yes"/>
      <point x="197" y="483"/>
      <point x="171" y="561"/>
      <point x="145" y="620" type="curve"/>
      <point x="-15" y="620" type="line"/>
      <point x="-15" y="593"/>
      <point x="-10" y="565"/>
      <point x="0" y="542" type="curve"/>
      <point x="88" y="542" type="line"/>
      <point x="110" y="499"/>
      <point x="117" y="459"/>
      <point x="117" y="427" type="curve" smooth="yes"/>
      <point x="117" y="370"/>
      <point x="94" y="324"/>
      <point x="50" y="264" type="curve"/>
      <point x="115" y="183"/>
      <point x="205" y="109"/>
    </contour>
    <contour>
      <point x="499" y="542" type="line"/>
      <point x="596" y="542" type="line"/>
      <point x="594" y="571"/>
      <point x="590" y="596"/>
      <point x="581" y="620" type="curve"/>
      <point x="413" y="620" type="line"/>
      <point x="413" y="5" type="line"/>
      <point x="437" y="-6"/>
      <point x="474" y="-12"/>
      <point x="499" y="-12" type="curve"/>
    </contour>
  </outline>
</glyph>
<glyph name="g.Pha" format="2">
  <advance width="587"/>
  <unicode hex="0A2B"/>
  <outline>
    <contour>
      <point x="351" y="-15" type="curve" smooth="yes"/>
      <point x="450" y="-15"/>
      <point x="509" y="38"/>
      <point x="509" y="119" type="curve" smooth="yes"/>
      <point x="509" y="210"/>
      <point x="432" y="267"/>
      <point x="350" y="267" type="curve" smooth="yes"/>
      <point x="286" y="267"/>
      <point x="199" y="232"/>
      <point x="143" y="181" type="curve"/>
      <point x="178" y="108" type="line"/>
      <point x="231" y="153"/>
      <point x="299" y="191"/>
      <point x="367" y="191" type="curve" smooth="yes"/>
      <point x="410" y="191"/>
      <point x="433" y="174"/>
      <point x="433" y="140" type="curve" smooth="yes"/>
      <point x="433" y="95"/>
      <point x="396" y="62"/>
      <point x="329" y="62" type="curve" smooth="yes"/>
      <point x="216" y="62"/>
      <point x="151" y="154"/>
      <point x="151" y="271" type="curve" smooth="yes"/>
      <point x="151" y="354"/>
      <point x="189" y="358"/>
      <point x="327" y="358" type="curve" smooth="yes"/>
      <point x="425" y="358"/>
      <point x="473" y="356"/>
      <point x="506" y="356" type="curve"/>
      <point x="512" y="362" type="line"/>
      <point x="512" y="367"/>
      <point x="511" y="503"/>
      <point x="509" y="562" type="curve"/>
      <point x="423" y="562" type="line"/>
      <point x="425" y="529"/>
      <point x="426" y="438"/>
      <point x="426" y="433" type="curve"/>
      <point x="365" y="434"/>
      <point x="357" y="434"/>
      <point x="300" y="434" type="curve" smooth="yes"/>
      <point x="175" y="434"/>
      <point x="66" y="432"/>
      <point x="66" y="289" type="curve" smooth="yes"/>
      <point x="66" y="163"/>
      <point x="176" y="-15"/>
    </contour>
    <contour>
      <point x="602" y="542" type="line"/>
      <point x="600" y="571"/>
      <point x="596" y="596"/>
      <point x="587" y="620" type="curve"/>
      <point x="-15" y="620" type="line"/>
      <point x="-15" y="593"/>
      <point x="-10" y="565"/>
      <point x="0" y="542" type="curve"/>
    </contour>
  </outline>
</glyph>
<glyph name="g.Ba" format="2">
  <advance width="616"/>
  <unicode hex="0A2C"/>
  <outline>
    <contour>
      <point x="326" y="68" type="curve" smooth="yes"/>
      <point x="384" y="68"/>
      <point x="430" y="88"/>
      <point x="468" y="112" type="curve"/>
      <point x="468" y="212" type="line"/>
      <point x="425" y="166"/>
      <point x="356" y="148"/>
      <point x="308" y="148" type="curve" smooth="yes"/>
      <point x="239" y="148"/>
      <point x="191" y="182"/>
      <point x="157" y="223" type="curve"/>
      <point x="186" y="259"/>
      <point x="241" y="306"/>
      <point x="403" y="306" type="curve" smooth="yes"/>
      <point x="422" y="306"/>
      <point x="434" y="306"/>
      <point x="468" y="304" type="curve"/>
      <point x="468" y="380" type="line"/>
      <point x="450" y="381"/>
      <point x="411" y="382"/>
      <point x="387" y="382" type="curve" smooth="yes"/>
      <point x="366" y="382"/>
      <point x="344" y="381"/>
      <point x="325" y="381" type="curve"/>
      <point x="155" y="358"/>
      <point x="96" y="289"/>
      <point x="64" y="239" type="curve"/>
      <point x="104" y="189"/>
      <point x="201" y="68"/>
    </contour>
    <contour>
      <point x="325" y="381" type="line"/>
      <point x="229" y="381"/>
      <point x="167" y="452"/>
      <point x="167" y="562" type="curve"/>
      <point x="75" y="561" type="line"/>
      <point x="81" y="472"/>
      <point x="128" y="385"/>
      <point x="206" y="354" type="curve"/>
      <point x="206" y="336" type="line"/>
    </contour>
    <contour>
      <point x="534" y="562" type="line"/>
      <point x="448" y="562" type="line"/>
      <point x="448" y="5" type="line"/>
      <point x="472" y="-6"/>
      <point x="509" y="-12"/>
      <point x="534" y="-12" type="curve"/>
    </contour>
    <contour>
      <point x="631" y="542" type="line"/>
      <point x="629" y="571"/>
      <point x="625" y="596"/>
      <point x="616" y="620" type="curve"/>
      <point x="-15" y="620" type="line"/>
      <point x="-15" y="593"/>
      <point x="-10" y="565"/>
      <point x="0" y="542" type="curve"/>
    </contour>
  </outline>
</glyph>
<glyph name="g.Bha" format="2">
  <advance width="574"/>
  <unicode hex="0A2D"/>
  <outline>
    <contour>
      <point x="299" y="-15" type="curve" smooth="yes"/>
      <point x="446" y="-15"/>
      <point x="517" y="66"/>
      <point x="517" y="163" type="curve" smooth="yes"/>
      <point x="517" y="303"/>
      <point x="364" y="443"/>
      <point x="231" y="443" type="curve" smooth="yes"/>
      <point x="156" y="443"/>
      <point x="82" y="395"/>
      <point x="82" y="317" type="curve" smooth="yes"/>
      <point x="82" y="235"/>
      <point x="165" y="181"/>
      <point x="249" y="181" type="curve" smooth="yes"/>
      <point x="390" y="181"/>
      <point x="506" y="298"/>
      <point x="506" y="515" type="curve" smooth="yes"/>
      <point x="506" y="527"/>
      <point x="505" y="548"/>
      <point x="503" y="562" type="curve"/>
      <point x="417" y="562" type="line"/>
      <point x="423" y="550"/>
      <point x="423" y="529"/>
      <point x="423" y="514" type="curve" smooth="yes"/>
      <point x="423" y="375"/>
      <point x="361" y="258"/>
      <point x="228" y="258" type="curve" smooth="yes"/>
      <point x="192" y="258"/>
      <point x="156" y="268"/>
      <point x="156" y="304" type="curve" smooth="yes"/>
      <point x="156" y="348"/>
      <point x="206" y="368"/>
      <point x="250" y="368" type="curve" smooth="yes"/>
      <point x="352" y="368"/>
      <point x="432" y="275"/>
      <point x="432" y="177" type="curve" smooth="yes"/>
      <point x="432" y="114"/>
      <point x="388" y="63"/>
      <point x="274" y="63" type="curve" smooth="yes"/>
      <point x="199" y="63"/>
      <point x="127" y="85"/>
      <point x="64" y="125" type="curve"/>
      <point x="60" y="122" type="line"/>
      <point x="95" y="11"/>
      <point x="216" y="-15"/>
    </contour>
    <contour>
      <point x="589" y="542" type="line"/>
      <point x="587" y="571"/>
      <point x="583" y="596"/>
      <point x="574" y="620" type="curve"/>
      <point x="-15" y="620" type="line"/>
      <point x="-15" y="593"/>
      <point x="-10" y="565"/>
      <point x="0" y="542" type="curve"/>
    </contour>
  </outline>
</glyph>
<glyph name="g.Ma" format="2">
  <advance width="613"/>
  <unicode hex="0A2E"/>
  <outline>
    <contour>
      <point x="108" y="31" type="curve" smooth="yes"/>
      <point x="165" y="31"/>
      <point x="224" y="92"/>
      <point x="224" y="273" type="curve" smooth="yes"/>
      <point x="224" y="405"/>
      <point x="201" y="513"/>
      <point x="157" y="620" type="curve"/>
      <point x="-15" y="620" type="line"/>
      <point x="-15" y="593"/>
      <point x="-10" y="565"/>
      <point x="0" y="542" type="curve"/>
      <point x="101" y="542" type="line"/>
      <point x="130" y="472"/>
      <point x="144" y="381"/>
      <point x="144" y="283" type="curve"/>
      <point x="108" y="241"/>
      <point x="55" y="157"/>
      <point x="55" y="91" type="curve" smooth="yes"/>
      <point x="55" y="60"/>
      <point x="70" y="31"/>
    </contour>
    <contour>
      <point x="204" y="244" type="line"/>
      <point x="279" y="248"/>
      <point x="380" y="247"/>
      <point x="460" y="247" type="curve"/>
      <point x="466" y="323" type="line"/>
      <point x="352" y="323"/>
      <point x="270" y="322"/>
      <point x="204" y="318" type="curve"/>
    </contour>
    <contour>
      <point x="531" y="542" type="line"/>
      <point x="628" y="542" type="line"/>
      <point x="626" y="571"/>
      <point x="622" y="596"/>
      <point x="613" y="620" type="curve"/>
      <point x="445" y="620" type="line"/>
      <point x="445" y="5" type="line"/>
      <point x="469" y="-6"/>
      <point x="506" y="-12"/>
      <point x="531" y="-12" type="curve"/>
    </contour>
  </outline>
</glyph>
<glyph name="g.Ya" format="2">
  <advance width="692"/>
  <unicode hex="0A2F"/>
  <outline>
    <contour>
      <point x="328" y="88" type="curve" smooth="yes"/>
      <point x="380" y="88"/>
      <point x="403" y="114"/>
      <point x="403" y="174" type="curve" smooth="yes"/>
      <point x="403" y="227"/>
      <point x="402" y="279"/>
      <point x="401" y="331" type="curve"/>
      <point x="544" y="331" type="line"/>
      <point x="544" y="404" type="line"/>
      <point x="451" y="404"/>
      <point x="370" y="404"/>
      <point x="320" y="403" type="curve"/>
      <point x="317" y="398" type="line"/>
      <point x="319" y="323"/>
      <point x="321" y="261"/>
      <point x="321" y="188" type="curve" smooth="yes"/>
      <point x="321" y="170"/>
      <point x="309" y="166"/>
      <point x="299" y="166" type="curve" smooth="yes"/>
      <point x="244" y="166"/>
      <point x="192" y="194"/>
      <point x="149" y="244" type="curve"/>
      <point x="178" y="295"/>
      <point x="195" y="344"/>
      <point x="195" y="398" type="curve" smooth="yes"/>
      <point x="195" y="447"/>
      <point x="183" y="502"/>
      <point x="142" y="562" type="curve"/>
      <point x="72" y="562" type="line"/>
      <point x="104" y="507"/>
      <point x="117" y="464"/>
      <point x="117" y="422" type="curve" smooth="yes"/>
      <point x="117" y="365"/>
      <point x="87" y="307"/>
      <point x="56" y="256" type="curve"/>
      <point x="116" y="174"/>
      <point x="217" y="88"/>
    </contour>
    <contour>
      <point x="610" y="562" type="line"/>
      <point x="524" y="562" type="line"/>
      <point x="524" y="5" type="line"/>
      <point x="548" y="-6"/>
      <point x="585" y="-12"/>
      <point x="610" y="-12" type="curve"/>
    </contour>
    <contour>
      <point x="707" y="542" type="line"/>
      <point x="705" y="571"/>
      <point x="701" y="596"/>
      <point x="692" y="620" type="curve"/>
      <point x="-15" y="620" type="line"/>
      <point x="-15" y="593"/>
      <point x="-10" y="565"/>
      <point x="0" y="542" type="curve"/>
    </contour>
  </outline>
</glyph>
<glyph name="g.Ra" format="2">
  <advance width="543"/>
  <unicode hex="0A30"/>
  <outline>
    <contour>
      <point x="339" y="-15" type="curve" smooth="yes"/>
      <point x="436" y="-15"/>
      <point x="463" y="42"/>
      <point x="463" y="168" type="curve" smooth="yes"/>
      <point x="463" y="282"/>
      <point x="461" y="423"/>
      <point x="460" y="562" type="curve"/>
      <point x="377" y="562" type="line"/>
      <point x="379" y="211" type="line"/>
      <point x="379" y="74"/>
      <point x="365" y="62"/>
      <point x="324" y="62" type="curve" smooth="yes"/>
      <point x="245" y="62"/>
      <point x="149" y="152"/>
      <point x="149" y="268" type="curve" smooth="yes"/>
      <point x="149" y="328"/>
      <point x="183" y="328"/>
      <point x="289" y="328" type="curve" smooth="yes"/>
      <point x="342" y="328"/>
      <point x="371" y="327"/>
      <point x="399" y="325" type="curve"/>
      <point x="399" y="399" type="line"/>
      <point x="365" y="401"/>
      <point x="320" y="402"/>
      <point x="277" y="402" type="curve" smooth="yes"/>
      <point x="143" y="402"/>
      <point x="63" y="401"/>
      <point x="63" y="295" type="curve" smooth="yes"/>
      <point x="63" y="160"/>
      <point x="198" y="-15"/>
    </contour>
    <contour>
      <point x="558" y="542" type="line"/>
      <point x="556" y="571"/>
      <point x="552" y="596"/>
      <point x="543" y="620" type="curve"/>
      <point x="-15" y="620" type="line"/>
      <point x="-15" y="593"/>
      <point x="-10" y="565"/>
      <point x="0" y="542" type="curve"/>
    </contour>
  </outline>
</glyph>
<glyph name="g.Lla" format="2">
  <advance width="755"/>
  <unicode hex="0A33"/>
  <outline>
    <contour>
      <point x="361" y="207" type="curve" smooth="yes"/>
      <point x="381" y="207"/>
      <point x="440" y="251"/>
      <point x="494" y="341" type="curve" smooth="yes"/>
      <point x="545" y="426"/>
      <point x="559" y="502"/>
      <point x="561" y="559" type="curve"/>
      <point x="473" y="564" type="line"/>
      <point x="476" y="424"/>
      <point x="374" y="303"/>
      <point x="347" y="303" type="curve" smooth="yes"/>
      <point x="322" y="303"/>
      <point x="230" y="408"/>
      <point x="229" y="568" type="curve"/>
      <point x="138" y="557" type="line"/>
      <point x="146" y="486"/>
      <point x="166" y="428"/>
      <point x="218" y="345" type="curve" smooth="yes"/>
      <point x="257" y="283"/>
      <point x="333" y="207"/>
    </contour>
    <contour>
      <point x="260" y="16" type="line"/>
      <point x="173" y="72"/>
      <point x="141" y="130"/>
      <point x="141" y="186" type="curve" smooth="yes"/>
      <point x="141" y="250"/>
      <point x="182" y="299"/>
      <point x="261" y="317" type="curve"/>
      <point x="215" y="385" type="line"/>
      <point x="125" y="357"/>
      <point x="61" y="291"/>
      <point x="61" y="202" type="curve" smooth="yes"/>
      <point x="61" y="117"/>
      <point x="119" y="35"/>
      <point x="219" y="-37" type="curve"/>
    </contour>
    <contour>
      <point x="714" y="-35" type="curve" smooth="yes"/>
      <point x="748" y="-35"/>
      <point x="775" y="-9"/>
      <point x="775" y="25" type="curve" smooth="yes"/>
      <point x="775" y="58"/>
      <point x="750" y="87"/>
      <point x="714" y="87" type="curve" smooth="yes"/>
      <point x="680" y="87"/>
      <point x="654" y="62"/>
      <point x="654" y="28" type="curve" smooth="yes"/>
      <point x="654" y="-5"/>
      <point x="678" y="-35"/>
    </contour>
    <contour>
      <point x="503" y="-15" type="curve"/>
      <point x="604" y="23"/>
      <point x="657" y="92"/>
      <point x="657" y="183" type="curve" smooth="yes"/>
      <point x="657" y="286"/>
      <point x="588" y="352"/>
      <point x="498" y="380" type="curve"/>
      <point x="466" y="325" type="line"/>
      <point x="531" y="311"/>
      <point x="581" y="271"/>
      <point x="581" y="202" type="curve" smooth="yes"/>
      <point x="581" y="137"/>
      <point x="537" y="94"/>
      <point x="464" y="67" type="curve"/>
      <point x="465" y="46"/>
      <point x="490" y="-2"/>
    </contour>
    <contour>
      <point x="770" y="542" type="line"/>
      <point x="768" y="571"/>
      <point x="764" y="596"/>
      <point x="755" y="620" type="curve"/>
      <point x="-15" y="620" type="line"/>
      <point x="-15" y="593"/>
      <point x="-10" y="565"/>
      <point x="0" y="542" type="curve"/>
    </contour>
  </outline>
</glyph>
<glyph name="g.Va" format="2">
  <advance width="598"/>
  <unicode hex="0A35"/>
  <outline>
    <contour>
      <point x="367" y="259" type="line"/>
      <point x="329" y="254"/>
      <point x="316" y="254"/>
      <point x="296" y="254" type="curve" smooth="yes"/>
      <point x="178" y="254"/>
      <point x="132" y="271"/>
      <point x="132" y="317" type="curve" smooth="yes"/>
      <point x="132" y="366"/>
      <point x="182" y="372"/>
      <point x="311" y="372" type="curve" smooth="yes"/>
      <point x="359" y="372"/>
      <point x="468" y="371"/>
      <point x="502" y="370" type="curve"/>
      <point x="508" y="373" type="line"/>
      <point x="508" y="377"/>
      <point x="507" y="511"/>
      <point x="506" y="562" type="curve"/>
      <point x="419" y="562" type="line"/>
      <point x="421" y="535"/>
      <point x="422" y="448"/>
      <point x="422" y="445" type="curve"/>
      <point x="412" y="445"/>
      <point x="373" y="446"/>
      <point x="270" y="446" type="curve" smooth="yes"/>
      <point x="170" y="446"/>
      <point x="51" y="444"/>
      <point x="51" y="336" type="curve" smooth="yes"/>
      <point x="51" y="269"/>
      <point x="111" y="198"/>
      <point x="267" y="190" type="curve"/>
    </contour>
    <contour>
      <point x="434" y="-15" type="curve" smooth="yes"/>
      <point x="471" y="-15"/>
      <point x="511" y="-8"/>
      <point x="538" y="3" type="curve"/>
      <point x="547" y="21"/>
      <point x="555" y="65"/>
      <point x="556" y="87" type="curve"/>
      <point x="553" y="88" type="line"/>
      <point x="509" y="67"/>
      <point x="459" y="56"/>
      <point x="398" y="56" type="curve" smooth="yes"/>
      <point x="347" y="56"/>
      <point x="292" y="64"/>
      <point x="292" y="116" type="curve" smooth="yes"/>
      <point x="292" y="143"/>
      <point x="310" y="167"/>
      <point x="366" y="181" type="curve"/>
      <point x="376" y="180"/>
      <point x="394" y="179"/>
      <point x="412" y="179" type="curve" smooth="yes"/>
      <point x="459" y="179"/>
      <point x="518" y="187"/>
      <point x="518" y="230" type="curve" smooth="yes"/>
      <point x="518" y="261"/>
      <point x="481" y="270"/>
      <point x="439" y="270" type="curve" smooth="yes"/>
      <point x="307" y="270"/>
      <point x="213" y="199"/>
      <point x="213" y="123" type="curve" smooth="yes"/>
      <point x="213" y="33"/>
      <point x="311" y="-15"/>
    </contour>
    <contour>
      <point x="613" y="542" type="line"/>
      <point x="611" y="571"/>
      <point x="607" y="596"/>
      <point x="598" y="620" type="curve"/>
      <point x="-15" y="620" type="line"/>
      <point x="-15" y="593"/>
      <point x="-10" y="565"/>
      <point x="0" y="542" type="curve"/>
    </contour>
  </outline>
</glyph>
<glyph name="g.Sha" format="2">
  <advance width="620"/>
  <unicode hex="0A36"/>
  <outline>
    <contour>
      <point x="108" y="31" type="curve" smooth="yes"/>
      <point x="164" y="31"/>
      <point x="224" y="93"/>
      <point x="224" y="265" type="curve" smooth="yes"/>
      <point x="224" y="366"/>
      <point x="203" y="474"/>
      <point x="172" y="562" type="curve"/>
      <point x="93" y="562" type="line"/>
      <point x="130" y="478"/>
      <point x="147" y="369"/>
      <point x="144" y="255" type="curve"/>
      <point x="156" y="296" type="line"/>
      <point x="121" y="261"/>
      <point x="55" y="165"/>
      <point x="55" y="91" type="curve" smooth="yes"/>
      <point x="55" y="60"/>
      <point x="70" y="31"/>
    </contour>
    <contour>
      <point x="323" y="-5" type="curve" smooth="yes"/>
      <point x="357" y="-5"/>
      <point x="384" y="21"/>
      <point x="384" y="55" type="curve" smooth="yes"/>
      <point x="384" y="88"/>
      <point x="359" y="117"/>
      <point x="323" y="117" type="curve" smooth="yes"/>
      <point x="289" y="117"/>
      <point x="263" y="92"/>
      <point x="263" y="58" type="curve" smooth="yes"/>
      <point x="263" y="25"/>
      <point x="287" y="-5"/>
    </contour>
    <contour>
      <point x="206" y="245" type="line"/>
      <point x="281" y="247"/>
      <point x="387" y="247"/>
      <point x="472" y="247" type="curve"/>
      <point x="472" y="323" type="line"/>
      <point x="360" y="323"/>
      <point x="270" y="322"/>
      <point x="206" y="318" type="curve"/>
    </contour>
    <contour>
      <point x="538" y="562" type="line"/>
      <point x="452" y="562" type="line"/>
      <point x="452" y="5" type="line"/>
      <point x="476" y="-6"/>
      <point x="513" y="-12"/>
      <point x="538" y="-12" type="curve"/>
    </contour>
    <contour>
      <point x="635" y="542" type="line"/>
      <point x="633" y="571"/>
      <point x="629" y="596"/>
      <point x="620" y="620" type="curve"/>
      <point x="-15" y="620" type="line"/>
      <point x="-15" y="593"/>
      <point x="-10" y="565"/>
      <point x="0" y="542" type="curve"/>
    </contour>
  </outline>
</glyph>
<glyph name="g.Sa" format="2">
  <advance width="618"/>
  <unicode hex="0A38"/>
  <outline>
    <contour>
      <point x="108" y="31" type="curve" smooth="yes"/>
      <point x="164" y="31"/>
      <point x="224" y="93"/>
      <point x="224" y="265" type="curve" smooth="yes"/>
      <point x="224" y="366"/>
      <point x="203" y="474"/>
      <point x="172" y="562" type="curve"/>
      <point x="93" y="562" type="line"/>
      <point x="130" y="478"/>
      <point x="147" y="369"/>
      <point x="144" y="255" type="curve"/>
      <point x="156" y="296" type="line"/>
      <point x="121" y="261"/>
      <point x="55" y="165"/>
      <point x="55" y="91" type="curve" smooth="yes"/>
      <point x="55" y="60"/>
      <point x="70" y="31"/>
    </contour>
    <contour>
      <point x="207" y="245" type="line"/>
      <point x="281" y="247"/>
      <point x="385" y="247"/>
      <point x="470" y="247" type="curve"/>
      <point x="470" y="323" type="line"/>
      <point x="358" y="323"/>
      <point x="270" y="322"/>
      <point x="207" y="318" type="curve"/>
    </contour>
    <contour>
      <point x="536" y="562" type="line"/>
      <point x="450" y="562" type="line"/>
      <point x="450" y="5" type="line"/>
      <point x="474" y="-6"/>
      <point x="511" y="-12"/>
      <point x="536" y="-12" type="curve"/>
    </contour>
    <contour>
      <point x="633" y="542" type="line"/>
      <point x="631" y="571"/>
      <point x="627" y="596"/>
      <point x="618" y="620" type="curve"/>
      <point x="-15" y="620" type="line"/>
      <point x="-15" y="593"/>
      <point x="-10" y="565"/>
      <point x="0" y="542" type="curve"/>
    </contour>
  </outline>
</glyph>
<glyph name="g.Ha" format="2">
  <advance width="574"/>
  <unicode hex="0A39"/>
  <outline>
    <contour>
      <point x="363" y="-15" type="curve" smooth="yes"/>
      <point x="462" y="-15"/>
      <point x="493" y="37"/>
      <point x="493" y="159" type="curve" smooth="yes"/>
      <point x="493" y="280"/>
      <point x="491" y="422"/>
      <point x="490" y="562" type="curve"/>
      <point x="407" y="562" type="line"/>
      <point x="408" y="458"/>
      <point x="409" y="323"/>
      <point x="409" y="201" type="curve" smooth="yes"/>
      <point x="409" y="74"/>
      <point x="389" y="62"/>
      <point x="348" y="62" type="curve" smooth="yes"/>
      <point x="219" y="62"/>
      <point x="149" y="196"/>
      <point x="149" y="260" type="curve" smooth="yes"/>
      <point x="149" y="303"/>
      <point x="160" y="321"/>
      <point x="231" y="321" type="curve" smooth="yes"/>
      <point x="238" y="321"/>
      <point x="242" y="321"/>
      <point x="255" y="320" type="curve"/>
      <point x="259" y="399" type="line"/>
      <point x="240" y="400"/>
      <point x="232" y="400"/>
      <point x="221" y="400" type="curve" smooth="yes"/>
      <point x="114" y="400"/>
      <point x="63" y="375"/>
      <point x="63" y="290" type="curve" smooth="yes"/>
      <point x="63" y="202"/>
      <point x="176" y="-15"/>
    </contour>
    <contour>
      <point x="589" y="542" type="line"/>
      <point x="587" y="571"/>
      <point x="583" y="596"/>
      <point x="574" y="620" type="curve"/>
      <point x="-15" y="620" type="line"/>
      <point x="-15" y="593"/>
      <point x="-10" y="565"/>
      <point x="0" y="542" type="curve"/>
    </contour>
  </outline>
</glyph>
<glyph name="g.Nukta" format="2">
  <unicode hex="0A3C"/>
  <outline>
    <contour>
      <point x="-185" y="58" type="curve" smooth="yes"/>
      <point x="-185" y="25"/>
      <point x="-161" y="-5"/>
      <point x="-125" y="-5" type="curve" smooth="yes"/>
      <point x="-91" y="-5"/>
      <point x="-64" y="21"/>
      <point x="-64" y="55" type="curve" smooth="yes"/>
      <point x="-64" y="88"/>
      <point x="-89" y="117"/>
      <point x="-125" y="117" type="curve" smooth="yes"/>
      <point x="-159" y="117"/>
      <point x="-185" y="92"/>
    </contour>
  </outline>
</glyph>
<glyph name="g.SignAa" format="2">
  <advance width="238"/>
  <unicode hex="0A3E"/>
  <outline>
    <contour>
      <point x="160" y="562" type="line"/>
      <point x="76" y="562" type="line"/>
      <point x="76" y="280" type="line"/>
      <point x="100" y="269"/>
      <point x="140" y="265"/>
      <point x="160" y="265" type="curve"/>
    </contour>
    <contour>
      <point x="253" y="542" type="line"/>
      <point x="251" y="571"/>
      <point x="247" y="596"/>
      <point x="238" y="620" type="curve"/>
      <point x="-15" y="620" type="line"/>
      <point x="-15" y="593"/>
      <point x="-10" y="565"/>
      <point x="0" y="542" type="curve"/>
    </contour>
  </outline>
</glyph>
<glyph name="g.SignI" format="2">
  <advance width="245"/>
  <unicode hex="0A3F"/>
  <outline>
    <contour>
      <point x="151" y="600" type="line"/>
      <point x="135" y="637"/>
      <point x="123" y="673"/>
      <point x="123" y="707" type="curve" smooth="yes"/>
      <point x="123" y="756"/>
      <point x="151" y="802"/>
      <point x="215" y="802" type="curve" smooth="yes"/>
      <point x="273" y="802"/>
      <point x="321" y="764"/>
      <point x="373" y="676" type="curve"/>
      <point x="422" y="676" type="line"/>
      <point x="423" y="679" type="line"/>
      <point x="378" y="776"/>
      <point x="302" y="884"/>
      <point x="189" y="884" type="curve" smooth="yes"/>
      <point x="106" y="884"/>
      <point x="48" y="826"/>
      <point x="48" y="749" type="curve" smooth="yes"/>
      <point x="48" y="705"/>
      <point x="67" y="645"/>
      <point x="94" y="600" type="curve"/>
    </contour>
    <contour>
      <point x="168" y="562" type="line"/>
      <point x="82" y="562" type="line"/>
      <point x="82" y="5" type="line"/>
      <point x="106" y="-6"/>
      <point x="143" y="-12"/>
      <point x="168" y="-12" type="curve"/>
    </contour>
    <contour>
      <point x="260" y="542" type="line"/>
      <point x="258" y="571"/>
      <point x="254" y="596"/>
      <point x="245" y="620" type="curve"/>
      <point x="-15" y="620" type="line"/>
      <point x="-15" y="593"/>
      <point x="-10" y="565"/>
      <point x="0" y="542" type="curve"/>
    </contour>
  </outline>
</glyph>
<glyph name="g.SignIi" format="2">
  <advance width="245"/>
  <unicode hex="0A40"/>
  <outline>
    <contour>
      <point x="159" y="600" type="line"/>
      <point x="129" y="754"/>
      <point x="52" y="884"/>
      <point x="-70" y="884" type="curve" smooth="yes"/>
      <point x="-147" y="884"/>
      <point x="-195" y="832"/>
      <point x="-195" y="771" type="curve" smooth="yes"/>
      <point x="-195" y="741"/>
      <point x="-183" y="708"/>
      <point x="-153" y="676" type="curve"/>
      <point x="-114" y="676" type="line"/>
      <point x="-113" y="679" type="line"/>
      <point x="-119" y="696"/>
      <point x="-122" y="710"/>
      <point x="-122" y="724" type="curve" smooth="yes"/>
      <point x="-122" y="768"/>
      <point x="-94" y="802"/>
      <point x="-42" y="802" type="curve" smooth="yes"/>
      <point x="62" y="802"/>
      <point x="74" y="668"/>
      <point x="82" y="600" type="curve"/>
    </contour>
    <contour>
      <point x="163" y="562" type="line"/>
      <point x="77" y="562" type="line"/>
      <point x="77" y="5" type="line"/>
      <point x="101" y="-6"/>
      <point x="138" y="-12"/>
      <point x="163" y="-12" type="curve"/>
    </contour>
    <contour>
      <point x="260" y="542" type="line"/>
      <point x="258" y="571"/>
      <point x="254" y="596"/>
      <point x="245" y="620" type="curve"/>
      <point x="-15" y="620" type="line"/>
      <point x="-15" y="593"/>
      <point x="-10" y="565"/>
      <point x="0" y="542" type="curve"/>
    </contour>
  </outline>
</glyph>
<glyph name="g.SignU" format="2">
  <unicode hex="0A41"/>
  <outline>
    <contour>
      <point x="-469" y="-116" type="curve"/>
      <point x="-407" y="-146"/>
      <point x="-348" y="-165"/>
      <point x="-262" y="-165" type="curve" smooth="yes"/>
      <point x="-211" y="-165"/>
      <point x="-134" y="-159"/>
      <point x="-68" y="-134" type="curve"/>
      <point x="-70" y="-105"/>
      <point x="-73" y="-82"/>
      <point x="-82" y="-58" type="curve"/>
      <point x="-142" y="-78"/>
      <point x="-202" y="-90"/>
      <point x="-269" y="-90" type="curve" smooth="yes"/>
      <point x="-336" y="-90"/>
      <point x="-406" y="-78"/>
      <point x="-480" y="-57" type="curve"/>
      <point x="-480" y="-77"/>
      <point x="-476" y="-99"/>
    </contour>
  </outline>
  <guideline angle="0" x="0" y="0"/>
</glyph>
<glyph name="g.SignUu" format="2">
  <unicode hex="0A42"/>
  <outline>
    <contour>
      <point x="-469" y="-117" type="curve"/>
      <point x="-407" y="-147"/>
      <point x="-348" y="-165"/>
      <point x="-262" y="-165" type="curve" smooth="yes"/>
      <point x="-211" y="-165"/>
      <point x="-134" y="-159"/>
      <point x="-68" y="-134" type="curve"/>
      <point x="-70" y="-105"/>
      <point x="-73" y="-82"/>
      <point x="-82" y="-58" type="curve"/>
      <point x="-142" y="-78"/>
      <point x="-202" y="-90"/>
      <point x="-269" y="-90" type="curve" smooth="yes"/>
      <point x="-336" y="-90"/>
      <point x="-406" y="-79"/>
      <point x="-480" y="-58" type="curve"/>
      <point x="-480" y="-78"/>
      <point x="-476" y="-100"/>
    </contour>
    <contour>
      <point x="-457" y="-244" type="curve"/>
      <point x="-396" y="-277"/>
      <point x="-337" y="-298"/>
      <point x="-252" y="-298" type="curve" smooth="yes"/>
      <point x="-201" y="-298"/>
      <point x="-124" y="-292"/>
      <point x="-58" y="-267" type="curve"/>
      <point x="-60" y="-238"/>
      <point x="-63" y="-215"/>
      <point x="-72" y="-191" type="curve"/>
      <point x="-132" y="-211"/>
      <point x="-192" y="-223"/>
      <point x="-259" y="-223" type="curve" smooth="yes"/>
      <point x="-325" y="-223"/>
      <point x="-395" y="-209"/>
      <point x="-468" y="-185" type="curve"/>
      <point x="-468" y="-205"/>
      <point x="-464" y="-227"/>
    </contour>
  </outline>
</glyph>
<glyph name="g.SignEe" format="2">
  <unicode hex="0A47"/>
  <outline>
    <contour>
      <point x="-468" y="745" type="curve"/>
      <point x="-394" y="753"/>
      <point x="-356" y="759"/>
      <point x="-327" y="759" type="curve" smooth="yes"/>
      <point x="-265" y="759"/>
      <point x="-217" y="738"/>
      <point x="-141" y="603" type="curve"/>
      <point x="-109" y="614" type="line"/>
      <point x="-213" y="819"/>
      <point x="-275" y="847"/>
      <point x="-368" y="847" type="curve" smooth="yes"/>
      <point x="-409" y="847"/>
      <point x="-468" y="839"/>
      <point x="-494" y="835" type="curve"/>
      <point x="-494" y="801"/>
      <point x="-481" y="766"/>
    </contour>
  </outline>
</glyph>
<glyph name="g.SignAi" format="2">
  <unicode hex="0A48"/>
  <outline>
    <contour>
      <point x="-128" y="616" type="line"/>
      <point x="-225" y="745"/>
      <point x="-276" y="777"/>
      <point x="-367" y="777" type="curve" smooth="yes"/>
      <point x="-405" y="777"/>
      <point x="-459" y="770"/>
      <point x="-489" y="765" type="curve"/>
      <point x="-489" y="734"/>
      <point x="-476" y="705"/>
      <point x="-463" y="686" type="curve"/>
      <point x="-389" y="694"/>
      <point x="-361" y="700"/>
      <point x="-320" y="700" type="curve" smooth="yes"/>
      <point x="-270" y="700"/>
      <point x="-228" y="688"/>
      <point x="-140" y="603" type="curve"/>
      <point x="-108" y="614" type="line"/>
      <point x="-207" y="882"/>
      <point x="-275" y="918"/>
      <point x="-379" y="918" type="curve" smooth="yes"/>
      <point x="-417" y="918"/>
      <point x="-469" y="911"/>
      <point x="-495" y="907" type="curve"/>
      <point x="-495" y="876"/>
      <point x="-483" y="848"/>
      <point x="-470" y="829" type="curve"/>
      <point x="-396" y="836"/>
      <point x="-359" y="840"/>
      <point x="-336" y="840" type="curve" smooth="yes"/>
      <point x="-269" y="840"/>
      <point x="-219" y="792"/>
      <point x="-131" y="614" type="curve"/>
    </contour>
  </outline>
</glyph>
<glyph name="g.SignOo" format="2">
  <unicode hex="0A4B"/>
  <outline>
    <contour>
      <point x="-490" y="869" type="line"/>
      <point x="-491" y="861"/>
      <point x="-491" y="850"/>
      <point x="-491" y="849" type="curve"/>
      <point x="-491" y="730"/>
      <point x="-421" y="705"/>
      <point x="-350" y="705" type="curve" smooth="yes"/>
      <point x="-312" y="705"/>
      <point x="-284" y="711"/>
      <point x="-253" y="711" type="curve" smooth="yes"/>
      <point x="-209" y="711"/>
      <point x="-151" y="700"/>
      <point x="-134" y="603" type="curve"/>
      <point x="-105" y="614" type="line"/>
      <point x="-114" y="722"/>
      <point x="-163" y="796"/>
      <point x="-253" y="796" type="curve" smooth="yes"/>
      <point x="-282" y="796"/>
      <point x="-321" y="790"/>
      <point x="-357" y="790" type="curve" smooth="yes"/>
      <point x="-402" y="790"/>
      <point x="-455" y="802"/>
      <point x="-484" y="870" type="curve"/>
    </contour>
  </outline>
</glyph>
<glyph name="g.SignAu" format="2">
  <unicode hex="0A4C"/>
  <outline>
    <contour>
      <point x="-182" y="676" type="line"/>
      <point x="-181" y="679" type="line"/>
      <point x="-193" y="698"/>
      <point x="-200" y="715"/>
      <point x="-200" y="734" type="curve" smooth="yes"/>
      <point x="-200" y="771"/>
      <point x="-167" y="802"/>
      <point x="-118" y="802" type="curve" smooth="yes"/>
      <point x="-74" y="802"/>
      <point x="-43" y="775"/>
      <point x="-43" y="738" type="curve" smooth="yes"/>
      <point x="-43" y="715"/>
      <point x="-53" y="695"/>
      <point x="-65" y="679" type="curve"/>
      <point x="-64" y="676" type="line"/>
      <point x="-27" y="676" type="line"/>
      <point x="0" y="710"/>
      <point x="10" y="739"/>
      <point x="10" y="769" type="curve" smooth="yes"/>
      <point x="10" y="836"/>
      <point x="-41" y="887"/>
      <point x="-123" y="887" type="curve"/>
      <point x="-258" y="818" type="line"/>
      <point x="-258" y="775" type="line" smooth="yes"/>
      <point x="-258" y="741"/>
      <point x="-244" y="707"/>
      <point x="-209" y="676" type="curve"/>
    </contour>
    <contour>
      <point x="-123" y="887" type="line"/>
      <point x="-182" y="887"/>
      <point x="-210" y="862"/>
      <point x="-276" y="862" type="curve" smooth="yes"/>
      <point x="-323" y="862"/>
      <point x="-376" y="876"/>
      <point x="-418" y="948" type="curve"/>
      <point x="-423" y="946" type="line"/>
      <point x="-408" y="831"/>
      <point x="-345" y="773"/>
      <point x="-240" y="781" type="curve"/>
    </contour>
  </outline>
</glyph>
<glyph name="g.Virama" format="2">
  <unicode hex="0A4D"/>
  <outline>
    <contour>
      <point x="-186" y="-132" type="curve"/>
      <point x="-152" y="-128"/>
      <point x="-140" y="-128"/>
      <point x="-132" y="-128" type="curve" smooth="yes"/>
      <point x="-81" y="-128"/>
      <point x="-47" y="-138"/>
      <point x="60" y="-285" type="curve"/>
      <point x="91" y="-264" type="line"/>
      <point x="-60" y="-50"/>
      <point x="-86" y="-42"/>
      <point x="-162" y="-42" type="curve" smooth="yes"/>
      <point x="-190" y="-42"/>
      <point x="-196" y="-44"/>
      <point x="-212" y="-45" type="curve"/>
      <point x="-212" y="-79"/>
      <point x="-199" y="-111"/>
    </contour>
  </outline>
</glyph>
<glyph name="g.Udaat" format="2">
  <unicode hex="0A51"/>
  <outline>
    <contour>
      <point x="44" y="-193" type="curve" smooth="yes"/>
      <point x="9" y="-179"/>
      <point x="-24" y="-204"/>
      <point x="-140" y="-41" type="curve"/>
      <point x="-171" y="-62" type="line"/>
      <point x="-63" y="-244"/>
      <point x="-12" y="-284"/>
      <point x="34" y="-284" type="curve" smooth="yes"/>
      <point x="68" y="-284"/>
      <point x="81" y="-260"/>
      <point x="81" y="-239" type="curve" smooth="yes"/>
      <point x="81" y="-220"/>
      <point x="70" y="-203"/>
    </contour>
  </outline>
</glyph>
<glyph name="g.Khha" format="2">
  <advance width="595"/>
  <unicode hex="0A59"/>
  <outline>
    <contour>
      <point x="40" y="58" type="curve" smooth="yes"/>
      <point x="40" y="25"/>
      <point x="64" y="-5"/>
      <point x="100" y="-5" type="curve" smooth="yes"/>
      <point x="134" y="-5"/>
      <point x="161" y="21"/>
      <point x="161" y="55" type="curve" smooth="yes"/>
      <point x="161" y="88"/>
      <point x="136" y="117"/>
      <point x="100" y="117" type="curve" smooth="yes"/>
      <point x="66" y="117"/>
      <point x="40" y="92"/>
    </contour>
    <contour>
      <point x="304" y="107" type="curve" smooth="yes"/>
      <point x="351" y="107"/>
      <point x="394" y="128"/>
      <point x="447" y="160" type="curve"/>
      <point x="447" y="263" type="line"/>
      <point x="388" y="217"/>
      <point x="332" y="187"/>
      <point x="280" y="187" type="curve" smooth="yes"/>
      <point x="234" y="187"/>
      <point x="203" y="211"/>
      <point x="163" y="254" type="curve"/>
      <point x="195" y="312"/>
      <point x="209" y="353"/>
      <point x="209" y="407" type="curve" smooth="yes"/>
      <point x="209" y="481"/>
      <point x="187" y="557"/>
      <point x="160" y="620" type="curve"/>
      <point x="-15" y="620" type="line"/>
      <point x="-15" y="593"/>
      <point x="-10" y="565"/>
      <point x="0" y="542" type="curve"/>
      <point x="108" y="542" type="line"/>
      <point x="124" y="503"/>
      <point x="132" y="468"/>
      <point x="132" y="435" type="curve" smooth="yes"/>
      <point x="132" y="380"/>
      <point x="110" y="328"/>
      <point x="67" y="269" type="curve"/>
      <point x="131" y="184"/>
      <point x="218" y="107"/>
    </contour>
    <contour>
      <point x="188" y="355" type="line"/>
      <point x="227" y="357"/>
      <point x="305" y="359"/>
      <point x="363" y="359" type="curve" smooth="yes"/>
      <point x="447" y="359" type="line"/>
      <point x="447" y="432" type="line"/>
      <point x="360" y="432" type="line" smooth="yes"/>
      <point x="284" y="432"/>
      <point x="234" y="430"/>
      <point x="188" y="428" type="curve"/>
    </contour>
    <contour>
      <point x="513" y="542" type="line"/>
      <point x="610" y="542" type="line"/>
      <point x="608" y="571"/>
      <point x="604" y="596"/>
      <point x="595" y="620" type="curve"/>
      <point x="427" y="620" type="line"/>
      <point x="427" y="5" type="line"/>
      <point x="451" y="-6"/>
      <point x="488" y="-12"/>
      <point x="513" y="-12" type="curve"/>
    </contour>
  </outline>
</glyph>
<glyph name="g.Ghha" format="2">
  <advance width="776"/>
  <unicode hex="0A5A"/>
  <outline>
    <contour>
      <point x="370" y="-15" type="curve" smooth="yes"/>
      <point x="470" y="-15"/>
      <point x="499" y="43"/>
      <point x="499" y="169" type="curve" smooth="yes"/>
      <point x="499" y="283"/>
      <point x="498" y="425"/>
      <point x="497" y="562" type="curve"/>
      <point x="414" y="562" type="line"/>
      <point x="414" y="555"/>
      <point x="414" y="432"/>
      <point x="415" y="390" type="curve"/>
      <point x="415" y="215" type="line" smooth="yes"/>
      <point x="415" y="78"/>
      <point x="397" y="62"/>
      <point x="353" y="62" type="curve" smooth="yes"/>
      <point x="261" y="62"/>
      <point x="193" y="132"/>
      <point x="193" y="246" type="curve" smooth="yes"/>
      <point x="193" y="331"/>
      <point x="241" y="331"/>
      <point x="328" y="331" type="curve" smooth="yes"/>
      <point x="381" y="331"/>
      <point x="407" y="330"/>
      <point x="435" y="328" type="curve"/>
      <point x="435" y="402" type="line"/>
      <point x="394" y="404"/>
      <point x="383" y="405"/>
      <point x="316" y="405" type="curve" smooth="yes"/>
      <point x="197" y="405"/>
      <point x="107" y="396"/>
      <point x="107" y="275" type="curve" smooth="yes"/>
      <point x="107" y="143"/>
      <point x="217" y="-15"/>
    </contour>
    <contour>
      <point x="90" y="-35" type="curve" smooth="yes"/>
      <point x="124" y="-35"/>
      <point x="151" y="-9"/>
      <point x="151" y="25" type="curve" smooth="yes"/>
      <point x="151" y="58"/>
      <point x="126" y="87"/>
      <point x="90" y="87" type="curve" smooth="yes"/>
      <point x="56" y="87"/>
      <point x="30" y="62"/>
      <point x="30" y="28" type="curve" smooth="yes"/>
      <point x="30" y="-5"/>
      <point x="54" y="-35"/>
    </contour>
    <contour>
      <point x="694" y="562" type="line"/>
      <point x="608" y="562" type="line"/>
      <point x="608" y="5" type="line"/>
      <point x="632" y="-6"/>
      <point x="669" y="-12"/>
      <point x="694" y="-12" type="curve"/>
    </contour>
    <contour>
      <point x="791" y="542" type="line"/>
      <point x="789" y="571"/>
      <point x="785" y="596"/>
      <point x="776" y="620" type="curve"/>
      <point x="-15" y="620" type="line"/>
      <point x="-15" y="593"/>
      <point x="-10" y="565"/>
      <point x="0" y="542" type="curve"/>
    </contour>
  </outline>
</glyph>
<glyph name="g.Za" format="2">
  <advance width="643"/>
  <unicode hex="0A5B"/>
  <outline>
    <contour>
      <point x="228" y="-11" type="curve"/>
      <point x="229" y="72"/>
      <point x="231" y="159"/>
      <point x="230" y="296" type="curve"/>
      <point x="230" y="406"/>
      <point x="223" y="423"/>
      <point x="193" y="423" type="curve" smooth="yes"/>
      <point x="137" y="423"/>
      <point x="47" y="332"/>
      <point x="47" y="265" type="curve" smooth="yes"/>
      <point x="47" y="248"/>
      <point x="57" y="232"/>
      <point x="87" y="229" type="curve" smooth="yes"/>
      <point x="118" y="226"/>
      <point x="139" y="227"/>
      <point x="210" y="227" type="curve" smooth="yes"/>
      <point x="304" y="227"/>
      <point x="402" y="227"/>
      <point x="495" y="228" type="curve"/>
      <point x="495" y="305" type="line"/>
      <point x="374" y="303"/>
      <point x="304" y="303"/>
      <point x="210" y="303" type="curve"/>
      <point x="148" y="248" type="line"/>
      <point x="149" y="184"/>
      <point x="145" y="86"/>
      <point x="142" y="5" type="curve"/>
      <point x="166" y="-6"/>
      <point x="205" y="-11"/>
    </contour>
    <contour>
      <point x="352" y="-5" type="curve" smooth="yes"/>
      <point x="386" y="-5"/>
      <point x="413" y="21"/>
      <point x="413" y="55" type="curve" smooth="yes"/>
      <point x="413" y="88"/>
      <point x="388" y="117"/>
      <point x="352" y="117" type="curve" smooth="yes"/>
      <point x="318" y="117"/>
      <point x="292" y="92"/>
      <point x="292" y="58" type="curve" smooth="yes"/>
      <point x="292" y="25"/>
      <point x="316" y="-5"/>
    </contour>
    <contour>
      <point x="561" y="562" type="line"/>
      <point x="475" y="562" type="line"/>
      <point x="475" y="5" type="line"/>
      <point x="499" y="-6"/>
      <point x="536" y="-12"/>
      <point x="561" y="-12" type="curve"/>
    </contour>
    <contour>
      <point x="658" y="542" type="line"/>
      <point x="656" y="571"/>
      <point x="652" y="596"/>
      <point x="643" y="620" type="curve"/>
      <point x="-15" y="620" type="line"/>
      <point x="-15" y="593"/>
      <point x="-10" y="565"/>
      <point x="0" y="542" type="curve"/>
    </contour>
  </outline>
  <guideline angle="0" x="0" y="0"/>
</glyph>
<glyph name="g.Rra" format="2">
  <advance width="625"/>
  <unicode hex="0A5C"/>
  <outline>
    <contour>
      <point x="322" y="85" type="curve" smooth="yes"/>
      <point x="433" y="85"/>
      <point x="549" y="131"/>
      <point x="549" y="236" type="curve" smooth="yes"/>
      <point x="549" y="359"/>
      <point x="335" y="426"/>
      <point x="209" y="426" type="curve" smooth="yes"/>
      <point x="143" y="426"/>
      <point x="95" y="407"/>
      <point x="95" y="376" type="curve" smooth="yes"/>
      <point x="95" y="339"/>
      <point x="159" y="310"/>
      <point x="254" y="310" type="curve" smooth="yes"/>
      <point x="417" y="310"/>
      <point x="554" y="391"/>
      <point x="554" y="532" type="curve" smooth="yes"/>
      <point x="554" y="562" type="line"/>
      <point x="471" y="562" type="line"/>
      <point x="471" y="545" type="line" smooth="yes"/>
      <point x="471" y="448"/>
      <point x="409" y="412"/>
      <point x="343" y="399" type="curve"/>
      <point x="343" y="342" type="line"/>
      <point x="419" y="324"/>
      <point x="463" y="285"/>
      <point x="463" y="249" type="curve" smooth="yes"/>
      <point x="463" y="199"/>
      <point x="405" y="163"/>
      <point x="297" y="163" type="curve" smooth="yes"/>
      <point x="210" y="163"/>
      <point x="118" y="189"/>
      <point x="59" y="218" type="curve"/>
      <point x="170" y="113" type="line"/>
      <point x="219" y="92"/>
      <point x="273" y="85"/>
    </contour>
    <contour>
      <point x="285" y="-8" type="line"/>
      <point x="250" y="27"/>
      <point x="215" y="68"/>
      <point x="184" y="106" type="curve"/>
      <point x="196" y="118" type="line"/>
      <point x="59" y="218" type="line"/>
      <point x="42" y="204" type="line"/>
      <point x="70" y="134"/>
      <point x="128" y="53"/>
      <point x="176" y="5" type="curve"/>
      <point x="206" y="-7"/>
      <point x="239" y="-12"/>
      <point x="284" y="-12" type="curve"/>
    </contour>
    <contour>
      <point x="561" y="-8" type="line"/>
      <point x="520" y="33"/>
      <point x="480" y="78"/>
      <point x="443" y="125" type="curve"/>
      <point x="364" y="103" type="line"/>
      <point x="392" y="70"/>
      <point x="420" y="35"/>
      <point x="450" y="4" type="curve"/>
      <point x="479" y="-8"/>
      <point x="515" y="-12"/>
      <point x="560" y="-12" type="curve"/>
    </contour>
    <contour>
      <point x="640" y="542" type="line"/>
      <point x="638" y="571"/>
      <point x="634" y="596"/>
      <point x="625" y="620" type="curve"/>
      <point x="-15" y="620" type="line"/>
      <point x="-15" y="593"/>
      <point x="-10" y="565"/>
      <point x="0" y="542" type="curve"/>
    </contour>
  </outline>
  <guideline angle="0" x="0" y="0"/>
</glyph>
<glyph name="g.Fa" format="2">
  <advance width="620"/>
  <unicode hex="0A5E"/>
  <outline>
    <contour>
      <point x="362" y="62" type="curve" smooth="yes"/>
      <point x="248" y="62"/>
      <point x="184" y="155"/>
      <point x="184" y="271" type="curve" smooth="yes"/>
      <point x="184" y="354"/>
      <point x="222" y="358"/>
      <point x="360" y="358" type="curve" smooth="yes"/>
      <point x="458" y="358"/>
      <point x="506" y="356"/>
      <point x="539" y="356" type="curve"/>
      <point x="545" y="362" type="line"/>
      <point x="545" y="367"/>
      <point x="544" y="532"/>
      <point x="542" y="562" type="curve"/>
      <point x="456" y="562" type="line"/>
      <point x="458" y="529"/>
      <point x="459" y="458"/>
      <point x="459" y="433" type="curve"/>
      <point x="398" y="434"/>
      <point x="390" y="434"/>
      <point x="333" y="434" type="curve" smooth="yes"/>
      <point x="208" y="434"/>
      <point x="99" y="432"/>
      <point x="99" y="289" type="curve" smooth="yes"/>
      <point x="99" y="163"/>
      <point x="209" y="-15"/>
      <point x="384" y="-15" type="curve" smooth="yes"/>
      <point x="483" y="-15"/>
      <point x="542" y="38"/>
      <point x="542" y="119" type="curve" smooth="yes"/>
      <point x="542" y="210"/>
      <point x="465" y="267"/>
      <point x="383" y="267" type="curve" smooth="yes"/>
      <point x="316" y="267"/>
      <point x="232" y="231"/>
      <point x="174" y="180" type="curve"/>
      <point x="211" y="108" type="line"/>
      <point x="265" y="154"/>
      <point x="332" y="191"/>
      <point x="400" y="191" type="curve" smooth="yes"/>
      <point x="443" y="191"/>
      <point x="466" y="174"/>
      <point x="466" y="140" type="curve" smooth="yes"/>
      <point x="466" y="95"/>
      <point x="429" y="62"/>
    </contour>
    <contour>
      <point x="30" y="28" type="curve" smooth="yes"/>
      <point x="30" y="-5"/>
      <point x="54" y="-35"/>
      <point x="90" y="-35" type="curve" smooth="yes"/>
      <point x="124" y="-35"/>
      <point x="151" y="-9"/>
      <point x="151" y="25" type="curve" smooth="yes"/>
      <point x="151" y="58"/>
      <point x="126" y="87"/>
      <point x="90" y="87" type="curve" smooth="yes"/>
      <point x="56" y="87"/>
      <point x="30" y="62"/>
    </contour>
    <contour>
      <point x="635" y="542" type="line"/>
      <point x="633" y="571"/>
      <point x="629" y="596"/>
      <point x="620" y="620" type="curve"/>
      <point x="-15" y="620" type="line"/>
      <point x="-15" y="593"/>
      <point x="-10" y="565"/>
      <point x="0" y="542" type="curve"/>
    </contour>
  </outline>
</glyph>
<glyph name="g.Zero" format="2">
  <advance width="641"/>
  <unicode hex="0A66"/>
  <outline>
    <contour>
      <point x="306" y="123" type="curve" smooth="yes"/>
      <point x="205" y="123"/>
      <point x="139" y="191"/>
      <point x="139" y="293" type="curve" smooth="yes"/>
      <point x="139" y="411"/>
      <point x="229" y="495"/>
      <point x="338" y="495" type="curve" smooth="yes"/>
      <point x="440" y="495"/>
      <point x="504" y="422"/>
      <point x="504" y="321" type="curve" smooth="yes"/>
      <point x="504" y="201"/>
      <point x="413" y="123"/>
    </contour>
    <contour>
      <point x="334" y="48" type="curve" smooth="yes"/>
      <point x="475" y="48"/>
      <point x="581" y="152"/>
      <point x="581" y="299" type="curve" smooth="yes"/>
      <point x="581" y="453"/>
      <point x="465" y="568"/>
      <point x="314" y="568" type="curve" smooth="yes"/>
      <point x="165" y="568"/>
      <point x="60" y="457"/>
      <point x="60" y="316" type="curve" smooth="yes"/>
      <point x="60" y="160"/>
      <point x="187" y="48"/>
    </contour>
  </outline>
</glyph>
<glyph name="g.One" format="2">
  <advance width="534"/>
  <unicode hex="0A67"/>
  <outline>
    <contour>
      <point x="479" y="-12" type="curve"/>
      <point x="446" y="44"/>
      <point x="436" y="103"/>
      <point x="436" y="162" type="curve" smooth="yes"/>
      <point x="436" y="251"/>
      <point x="458" y="353"/>
      <point x="458" y="421" type="curve" smooth="yes"/>
      <point x="458" y="556"/>
      <point x="356" y="635"/>
      <point x="239" y="635" type="curve" smooth="yes"/>
      <point x="113" y="635"/>
      <point x="40" y="567"/>
      <point x="40" y="472" type="curve" smooth="yes"/>
      <point x="40" y="373"/>
      <point x="130" y="302"/>
      <point x="245" y="302" type="curve" smooth="yes"/>
      <point x="304" y="302"/>
      <point x="341" y="311"/>
      <point x="391" y="341" type="curve"/>
      <point x="391" y="433" type="line"/>
      <point x="346" y="398"/>
      <point x="284" y="377"/>
      <point x="226" y="377" type="curve" smooth="yes"/>
      <point x="158" y="377"/>
      <point x="119" y="411"/>
      <point x="119" y="460" type="curve" smooth="yes"/>
      <point x="119" y="516"/>
      <point x="171" y="562"/>
      <point x="258" y="562" type="curve" smooth="yes"/>
      <point x="330" y="562"/>
      <point x="374" y="524"/>
      <point x="374" y="431" type="curve" smooth="yes"/>
      <point x="374" y="350"/>
      <point x="353" y="265"/>
      <point x="353" y="161" type="curve" smooth="yes"/>
      <point x="353" y="100"/>
      <point x="362" y="44"/>
      <point x="393" y="5" type="curve"/>
      <point x="417" y="-6"/>
      <point x="454" y="-12"/>
    </contour>
  </outline>
</glyph>
<glyph name="g.Two" format="2">
  <advance width="607"/>
  <unicode hex="0A68"/>
  <outline>
    <contour>
      <point x="514" y="-22" type="curve"/>
      <point x="424" y="176"/>
      <point x="344" y="304"/>
      <point x="181" y="304" type="curve" smooth="yes"/>
      <point x="121" y="304"/>
      <point x="88" y="284"/>
      <point x="88" y="254" type="curve" smooth="yes"/>
      <point x="88" y="216"/>
      <point x="145" y="183"/>
      <point x="225" y="183" type="curve" smooth="yes"/>
      <point x="345" y="183"/>
      <point x="514" y="250"/>
      <point x="514" y="403" type="curve" smooth="yes"/>
      <point x="514" y="504"/>
      <point x="443" y="635"/>
      <point x="252" y="635" type="curve" smooth="yes"/>
      <point x="214" y="635"/>
      <point x="139" y="630"/>
      <point x="72" y="614" type="curve"/>
      <point x="72" y="587"/>
      <point x="78" y="555"/>
      <point x="88" y="532" type="curve"/>
      <point x="145" y="550"/>
      <point x="219" y="562"/>
      <point x="269" y="562" type="curve" smooth="yes"/>
      <point x="359" y="562"/>
      <point x="434" y="525"/>
      <point x="434" y="425" type="curve" smooth="yes"/>
      <point x="434" y="335"/>
      <point x="371" y="295"/>
      <point x="281" y="272" type="curve"/>
      <point x="281" y="206" type="line"/>
      <point x="335" y="162"/>
      <point x="381" y="67"/>
      <point x="417" y="-5" type="curve"/>
      <point x="441" y="-16"/>
      <point x="489" y="-22"/>
    </contour>
  </outline>
</glyph>
<glyph name="g.Three" format="2">
  <advance width="596"/>
  <unicode hex="0A69"/>
  <outline>
    <contour>
      <point x="334" y="-4" type="line"/>
      <point x="452" y="5"/>
      <point x="517" y="68"/>
      <point x="517" y="158" type="curve" smooth="yes"/>
      <point x="517" y="226"/>
      <point x="476" y="295"/>
      <point x="387" y="341" type="curve" smooth="yes"/>
      <point x="327" y="372"/>
      <point x="267" y="387"/>
      <point x="208" y="387" type="curve" smooth="yes"/>
      <point x="137" y="387"/>
      <point x="96" y="367"/>
      <point x="96" y="336" type="curve" smooth="yes"/>
      <point x="96" y="299"/>
      <point x="158" y="269"/>
      <point x="242" y="269" type="curve" smooth="yes"/>
      <point x="288" y="269"/>
      <point x="351" y="278"/>
      <point x="395" y="305" type="curve"/>
      <point x="467" y="323"/>
      <point x="519" y="375"/>
      <point x="519" y="446" type="curve" smooth="yes"/>
      <point x="519" y="527"/>
      <point x="454" y="635"/>
      <point x="253" y="635" type="curve" smooth="yes"/>
      <point x="209" y="635"/>
      <point x="138" y="630"/>
      <point x="68" y="614" type="curve"/>
      <point x="68" y="587"/>
      <point x="74" y="555"/>
      <point x="84" y="532" type="curve"/>
      <point x="142" y="550"/>
      <point x="210" y="562"/>
      <point x="271" y="562" type="curve" smooth="yes"/>
      <point x="363" y="562"/>
      <point x="439" y="535"/>
      <point x="439" y="464" type="curve" smooth="yes"/>
      <point x="439" y="399"/>
      <point x="376" y="374"/>
      <point x="308" y="354" type="curve"/>
      <point x="308" y="312" type="line"/>
      <point x="389" y="290"/>
      <point x="431" y="233"/>
      <point x="431" y="175" type="curve" smooth="yes"/>
      <point x="431" y="110"/>
      <point x="377" y="66"/>
      <point x="280" y="63" type="curve"/>
      <point x="247" y="104"/>
      <point x="191" y="156"/>
      <point x="126" y="156" type="curve" smooth="yes"/>
      <point x="78" y="156"/>
      <point x="65" y="127"/>
      <point x="65" y="107" type="curve" smooth="yes"/>
      <point x="65" y="61"/>
      <point x="131" y="-9"/>
      <point x="291" y="-9" type="curve"/>
    </contour>
    <contour>
      <point x="516" y="-135" type="curve" smooth="yes"/>
      <point x="529" y="-135"/>
      <point x="542" y="-134"/>
      <point x="549" y="-133" type="curve"/>
      <point x="559" y="-114"/>
      <point x="566" y="-69"/>
      <point x="566" y="-47" type="curve"/>
      <point x="563" y="-46" type="line"/>
      <point x="542" y="-51"/>
      <point x="516" y="-53"/>
      <point x="496" y="-53" type="curve" smooth="yes"/>
      <point x="435" y="-53"/>
      <point x="387" y="-34"/>
      <point x="349" y="-5" type="curve"/>
      <point x="349" y="13" type="line"/>
      <point x="252" y="3" type="line"/>
      <point x="320" y="-68"/>
      <point x="406" y="-135"/>
    </contour>
  </outline>
</glyph>
<glyph name="g.Four" format="2">
  <advance width="656"/>
  <unicode hex="0A6A"/>
  <outline>
    <contour>
      <point x="348" y="284" type="curve" smooth="yes"/>
      <point x="466" y="284"/>
      <point x="583" y="324"/>
      <point x="583" y="450" type="curve" smooth="yes"/>
      <point x="583" y="529"/>
      <point x="524" y="600"/>
      <point x="409" y="626" type="curve"/>
      <point x="392" y="563" type="line"/>
      <point x="459" y="548"/>
      <point x="505" y="515"/>
      <point x="505" y="463" type="curve" smooth="yes"/>
      <point x="505" y="398"/>
      <point x="426" y="349"/>
      <point x="316" y="349" type="curve" smooth="yes"/>
      <point x="217" y="349"/>
      <point x="153" y="387"/>
      <point x="153" y="447" type="curve" smooth="yes"/>
      <point x="153" y="496"/>
      <point x="196" y="536"/>
      <point x="271" y="553" type="curve"/>
      <point x="270" y="572"/>
      <point x="249" y="616"/>
      <point x="232" y="635" type="curve"/>
      <point x="139" y="604"/>
      <point x="73" y="541"/>
      <point x="73" y="458" type="curve" smooth="yes"/>
      <point x="73" y="334"/>
      <point x="213" y="284"/>
    </contour>
    <contour>
      <point x="315" y="60" type="curve" smooth="yes"/>
      <point x="223" y="60"/>
      <point x="162" y="98"/>
      <point x="162" y="159" type="curve" smooth="yes"/>
      <point x="162" y="227"/>
      <point x="240" y="276"/>
      <point x="340" y="276" type="curve" smooth="yes"/>
      <point x="435" y="276"/>
      <point x="493" y="233"/>
      <point x="493" y="175" type="curve" smooth="yes"/>
      <point x="493" y="108"/>
      <point x="418" y="60"/>
    </contour>
    <contour>
      <point x="173" y="329" type="line"/>
      <point x="173" y="314" type="line"/>
      <point x="113" y="284"/>
      <point x="81" y="231"/>
      <point x="81" y="172" type="curve" smooth="yes"/>
      <point x="81" y="61"/>
      <point x="198" y="-15"/>
      <point x="338" y="-15" type="curve" smooth="yes"/>
      <point x="473" y="-15"/>
      <point x="572" y="54"/>
      <point x="572" y="160" type="curve" smooth="yes"/>
      <point x="572" y="220"/>
      <point x="540" y="274"/>
      <point x="486" y="303" type="curve"/>
      <point x="486" y="329" type="line"/>
    </contour>
  </outline>
</glyph>
<glyph name="g.Five" format="2">
  <advance width="598"/>
  <unicode hex="0A6B"/>
  <outline>
    <contour>
      <point x="310" y="109" type="curve" smooth="yes"/>
      <point x="358" y="109"/>
      <point x="396" y="131"/>
      <point x="451" y="166" type="curve"/>
      <point x="451" y="272" type="line"/>
      <point x="394" y="221"/>
      <point x="339" y="189"/>
      <point x="286" y="189" type="curve" smooth="yes"/>
      <point x="238" y="189"/>
      <point x="198" y="215"/>
      <point x="157" y="253" type="curve"/>
      <point x="195" y="309"/>
      <point x="209" y="357"/>
      <point x="209" y="413" type="curve" smooth="yes"/>
      <point x="209" y="489"/>
      <point x="182" y="555"/>
      <point x="135" y="626" type="curve"/>
      <point x="70" y="587" type="line"/>
      <point x="122" y="512"/>
      <point x="129" y="458"/>
      <point x="129" y="429" type="curve" smooth="yes"/>
      <point x="129" y="370"/>
      <point x="107" y="332"/>
      <point x="60" y="269" type="curve"/>
      <point x="125" y="188"/>
      <point x="221" y="109"/>
    </contour>
    <contour>
      <point x="516" y="613" type="line"/>
      <point x="492" y="624"/>
      <point x="455" y="630"/>
      <point x="430" y="630" type="curve"/>
      <point x="430" y="5" type="line"/>
      <point x="454" y="-6"/>
      <point x="491" y="-12"/>
      <point x="516" y="-12" type="curve"/>
    </contour>
  </outline>
</glyph>
<glyph name="g.Six" format="2">
  <advance width="617"/>
  <unicode hex="0A6C"/>
  <outline>
    <contour>
      <point x="272" y="320" type="line"/>
      <point x="198" y="347"/>
      <point x="165" y="399"/>
      <point x="165" y="444" type="curve" smooth="yes"/>
      <point x="165" y="510"/>
      <point x="231" y="552"/>
      <point x="339" y="555" type="curve"/>
      <point x="366" y="513"/>
      <point x="419" y="464"/>
      <point x="482" y="464" type="curve" smooth="yes"/>
      <point x="532" y="464"/>
      <point x="544" y="494"/>
      <point x="544" y="518" type="curve" smooth="yes"/>
      <point x="544" y="580"/>
      <point x="456" y="625"/>
      <point x="333" y="625" type="curve" smooth="yes"/>
      <point x="203" y="625"/>
      <point x="79" y="578"/>
      <point x="79" y="462" type="curve" smooth="yes"/>
      <point x="79" y="394"/>
      <point x="118" y="339"/>
      <point x="200" y="295" type="curve"/>
    </contour>
    <contour>
      <point x="392" y="601" type="line"/>
      <point x="379" y="626"/>
      <point x="375" y="643"/>
      <point x="375" y="661" type="curve" smooth="yes"/>
      <point x="375" y="718"/>
      <point x="408" y="754"/>
      <point x="502" y="754" type="curve"/>
      <point x="503" y="754"/>
      <point x="508" y="754"/>
      <point x="520" y="753" type="curve"/>
      <point x="523" y="829" type="line"/>
      <point x="508" y="830"/>
      <point x="493" y="831"/>
      <point x="480" y="831" type="curve" smooth="yes"/>
      <point x="350" y="831"/>
      <point x="297" y="779"/>
      <point x="297" y="694" type="curve" smooth="yes"/>
      <point x="297" y="665"/>
      <point x="306" y="638"/>
      <point x="319" y="604" type="curve"/>
    </contour>
    <contour>
      <point x="405" y="356" type="curve" smooth="yes"/>
      <point x="345" y="356"/>
      <point x="266" y="340"/>
      <point x="214" y="320" type="curve"/>
      <point x="132" y="299"/>
      <point x="77" y="250"/>
      <point x="77" y="176" type="curve" smooth="yes"/>
      <point x="77" y="124"/>
      <point x="113" y="-15"/>
      <point x="362" y="-15" type="curve" smooth="yes"/>
      <point x="411" y="-15"/>
      <point x="473" y="-10"/>
      <point x="528" y="9" type="curve"/>
      <point x="538" y="34"/>
      <point x="544" y="62"/>
      <point x="547" y="95" type="curve"/>
      <point x="543" y="96" type="line"/>
      <point x="491" y="71"/>
      <point x="397" y="58"/>
      <point x="328" y="58" type="curve" smooth="yes"/>
      <point x="220" y="58"/>
      <point x="157" y="91"/>
      <point x="157" y="158" type="curve" smooth="yes"/>
      <point x="157" y="204"/>
      <point x="193" y="240"/>
      <point x="269" y="260" type="curve"/>
      <point x="315" y="244"/>
      <point x="362" y="237"/>
      <point x="399" y="237" type="curve" smooth="yes"/>
      <point x="471" y="237"/>
      <point x="514" y="262"/>
      <point x="514" y="298" type="curve" smooth="yes"/>
      <point x="514" y="331"/>
      <point x="478" y="356"/>
    </contour>
  </outline>
</glyph>
<glyph name="g.Seven" format="2">
  <advance width="570"/>
  <unicode hex="0A6D"/>
  <outline>
    <contour>
      <point x="35" y="-4" type="curve"/>
      <point x="321" y="10"/>
      <point x="510" y="134"/>
      <point x="510" y="369" type="curve" smooth="yes"/>
      <point x="510" y="522"/>
      <point x="429" y="635"/>
      <point x="285" y="635" type="curve" smooth="yes"/>
      <point x="175" y="635"/>
      <point x="97" y="571"/>
      <point x="97" y="472" type="curve" smooth="yes"/>
      <point x="97" y="413"/>
      <point x="125" y="362"/>
      <point x="190" y="320" type="curve"/>
      <point x="232" y="371" type="line"/>
      <point x="192" y="399"/>
      <point x="177" y="424"/>
      <point x="177" y="456" type="curve" smooth="yes"/>
      <point x="177" y="519"/>
      <point x="233" y="563"/>
      <point x="303" y="563" type="curve" smooth="yes"/>
      <point x="393" y="563"/>
      <point x="430" y="488"/>
      <point x="430" y="390" type="curve" smooth="yes"/>
      <point x="430" y="159"/>
      <point x="222" y="83"/>
      <point x="20" y="71" type="curve"/>
      <point x="20" y="44"/>
      <point x="25" y="19"/>
    </contour>
  </outline>
</glyph>
<glyph name="g.Eight" format="2">
  <advance width="568"/>
  <unicode hex="0A6E"/>
  <outline>
    <contour>
      <point x="389" y="-15" type="curve" smooth="yes"/>
      <point x="436" y="-15"/>
      <point x="483" y="-3"/>
      <point x="519" y="26" type="curve"/>
      <point x="529" y="45"/>
      <point x="538" y="95"/>
      <point x="538" y="117" type="curve"/>
      <point x="535" y="118" type="line"/>
      <point x="495" y="89"/>
      <point x="436" y="64"/>
      <point x="366" y="64" type="curve" smooth="yes"/>
      <point x="275" y="64"/>
      <point x="208" y="105"/>
      <point x="208" y="303" type="curve" smooth="yes"/>
      <point x="208" y="374"/>
      <point x="213" y="418"/>
      <point x="219" y="457" type="curve" smooth="yes"/>
      <point x="223" y="485"/>
      <point x="226" y="505"/>
      <point x="226" y="564" type="curve" smooth="yes"/>
      <point x="226" y="618"/>
      <point x="217" y="635"/>
      <point x="190" y="635" type="curve" smooth="yes"/>
      <point x="123" y="635"/>
      <point x="40" y="532"/>
      <point x="40" y="471" type="curve" smooth="yes"/>
      <point x="40" y="430"/>
      <point x="74" y="429"/>
      <point x="133" y="429" type="curve" smooth="yes"/>
      <point x="197" y="429"/>
      <point x="272" y="432"/>
      <point x="355" y="432" type="curve" smooth="yes"/>
      <point x="377" y="432"/>
      <point x="432" y="432"/>
      <point x="509" y="430" type="curve"/>
      <point x="515" y="436" type="line"/>
      <point x="517" y="506" type="line"/>
      <point x="463" y="509"/>
      <point x="375" y="509"/>
      <point x="344" y="509" type="curve" smooth="yes"/>
      <point x="312" y="509"/>
      <point x="178" y="507"/>
      <point x="138" y="498" type="curve"/>
      <point x="130" y="434"/>
      <point x="128" y="391"/>
      <point x="128" y="343" type="curve" smooth="yes"/>
      <point x="128" y="99"/>
      <point x="247" y="-15"/>
    </contour>
  </outline>
</glyph>
<glyph name="g.Nine" format="2">
  <advance width="578"/>
  <unicode hex="0A6F"/>
  <outline>
    <contour>
      <point x="389" y="-15" type="curve" smooth="yes"/>
      <point x="438" y="-15"/>
      <point x="489" y="-3"/>
      <point x="525" y="26" type="curve"/>
      <point x="535" y="45"/>
      <point x="544" y="95"/>
      <point x="544" y="117" type="curve"/>
      <point x="541" y="118" type="line"/>
      <point x="501" y="89"/>
      <point x="441" y="64"/>
      <point x="366" y="64" type="curve" smooth="yes"/>
      <point x="275" y="64"/>
      <point x="208" y="105"/>
      <point x="208" y="303" type="curve" smooth="yes"/>
      <point x="208" y="374"/>
      <point x="213" y="418"/>
      <point x="219" y="457" type="curve" smooth="yes"/>
      <point x="223" y="485"/>
      <point x="226" y="505"/>
      <point x="226" y="564" type="curve" smooth="yes"/>
      <point x="226" y="618"/>
      <point x="217" y="635"/>
      <point x="190" y="635" type="curve" smooth="yes"/>
      <point x="123" y="635"/>
      <point x="40" y="532"/>
      <point x="40" y="471" type="curve" smooth="yes"/>
      <point x="40" y="430"/>
      <point x="74" y="429"/>
      <point x="133" y="429" type="curve" smooth="yes"/>
      <point x="197" y="429"/>
      <point x="272" y="432"/>
      <point x="355" y="432" type="curve" smooth="yes"/>
      <point x="377" y="432"/>
      <point x="432" y="432"/>
      <point x="519" y="430" type="curve"/>
      <point x="525" y="436" type="line"/>
      <point x="525" y="505" type="line"/>
      <point x="461" y="508"/>
      <point x="375" y="509"/>
      <point x="344" y="509" type="curve" smooth="yes"/>
      <point x="312" y="509"/>
      <point x="178" y="507"/>
      <point x="138" y="498" type="curve"/>
      <point x="130" y="434"/>
      <point x="128" y="391"/>
      <point x="128" y="343" type="curve" smooth="yes"/>
      <point x="128" y="99"/>
      <point x="247" y="-15"/>
    </contour>
    <contour>
      <point x="525" y="487" type="line"/>
      <point x="525" y="505" type="line"/>
      <point x="457" y="556"/>
      <point x="417" y="593"/>
      <point x="417" y="660" type="curve" smooth="yes"/>
      <point x="417" y="707"/>
      <point x="450" y="744"/>
      <point x="511" y="744" type="curve" smooth="yes"/>
      <point x="520" y="744"/>
      <point x="524" y="744"/>
      <point x="534" y="743" type="curve"/>
      <point x="537" y="819" type="line"/>
      <point x="518" y="821"/>
      <point x="510" y="821"/>
      <point x="498" y="821" type="curve" smooth="yes"/>
      <point x="386" y="821"/>
      <point x="338" y="768"/>
      <point x="338" y="691" type="curve" smooth="yes"/>
      <point x="338" y="617"/>
      <point x="379" y="553"/>
      <point x="431" y="511" type="curve"/>
      <point x="431" y="487" type="line"/>
    </contour>
  </outline>
  <guideline angle="0" x="0" y="0"/>
</glyph>
<glyph name="g.Tippi" format="2">
  <unicode hex="0A70"/>
  <outline>
    <contour>
      <point x="-26" y="676" type="line"/>
      <point x="1" y="710"/>
      <point x="11" y="739"/>
      <point x="11" y="769" type="curve" smooth="yes"/>
      <point x="11" y="836"/>
      <point x="-41" y="887"/>
      <point x="-128" y="887" type="curve" smooth="yes"/>
      <point x="-209" y="887"/>
      <point x="-269" y="843"/>
      <point x="-269" y="775" type="curve" smooth="yes"/>
      <point x="-269" y="741"/>
      <point x="-255" y="707"/>
      <point x="-220" y="676" type="curve"/>
      <point x="-193" y="676" type="line"/>
      <point x="-192" y="679" type="line"/>
      <point x="-204" y="698"/>
      <point x="-211" y="715"/>
      <point x="-211" y="735" type="curve" smooth="yes"/>
      <point x="-211" y="770"/>
      <point x="-177" y="802"/>
      <point x="-123" y="802" type="curve" smooth="yes"/>
      <point x="-74" y="802"/>
      <point x="-42" y="775"/>
      <point x="-42" y="738" type="curve" smooth="yes"/>
      <point x="-42" y="715"/>
      <point x="-52" y="695"/>
      <point x="-64" y="679" type="curve"/>
      <point x="-63" y="676" type="line"/>
    </contour>
  </outline>
</glyph>
<glyph name="g.Addak" format="2">
  <unicode hex="0A71"/>
  <outline>
    <contour>
      <point x="15" y="873" type="line"/>
      <point x="-17" y="789"/>
      <point x="-72" y="757"/>
      <point x="-131" y="757" type="curve" smooth="yes"/>
      <point x="-202" y="757"/>
      <point x="-247" y="802"/>
      <point x="-266" y="871" type="curve"/>
      <point x="-271" y="870" type="line"/>
      <point x="-277" y="853"/>
      <point x="-279" y="835"/>
      <point x="-279" y="820" type="curve" smooth="yes"/>
      <point x="-279" y="741"/>
      <point x="-223" y="675"/>
      <point x="-124" y="675" type="curve" smooth="yes"/>
      <point x="-36" y="675"/>
      <point x="31" y="728"/>
      <point x="31" y="814" type="curve" smooth="yes"/>
      <point x="31" y="832"/>
      <point x="28" y="855"/>
      <point x="21" y="874" type="curve"/>
    </contour>
  </outline>
</glyph>
<glyph name="g.Iri" format="2">
  <advance width="603"/>
  <unicode hex="0A72"/>
  <outline>
    <contour>
      <point x="365" y="-15" type="curve" smooth="yes"/>
      <point x="415" y="-15"/>
      <point x="474" y="6"/>
      <point x="507" y="34" type="curve"/>
      <point x="517" y="53"/>
      <point x="525" y="96"/>
      <point x="525" y="118" type="curve"/>
      <point x="522" y="119" type="line"/>
      <point x="487" y="93"/>
      <point x="413" y="62"/>
      <point x="353" y="62" type="curve" smooth="yes"/>
      <point x="270" y="62"/>
      <point x="202" y="117"/>
      <point x="155" y="186" type="curve"/>
      <point x="200" y="258"/>
      <point x="255" y="300"/>
      <point x="389" y="300" type="curve" smooth="yes"/>
      <point x="411" y="300"/>
      <point x="471" y="299"/>
      <point x="516" y="298" type="curve"/>
      <point x="522" y="304" type="line"/>
      <point x="522" y="308"/>
      <point x="521" y="485"/>
      <point x="520" y="562" type="curve"/>
      <point x="434" y="562" type="line"/>
      <point x="436" y="527"/>
      <point x="437" y="409"/>
      <point x="437" y="375" type="curve"/>
      <point x="436" y="375"/>
      <point x="397" y="376"/>
      <point x="378" y="376" type="curve" smooth="yes"/>
      <point x="240" y="376"/>
      <point x="118" y="324"/>
      <point x="65" y="199" type="curve"/>
      <point x="108" y="132"/>
      <point x="229" y="-15"/>
    </contour>
    <contour>
      <point x="298" y="363" type="line"/>
      <point x="220" y="380"/>
      <point x="167" y="459"/>
      <point x="167" y="551" type="curve"/>
      <point x="79" y="551" type="line"/>
      <point x="79" y="472"/>
      <point x="126" y="381"/>
      <point x="197" y="340" type="curve"/>
      <point x="197" y="322" type="line"/>
    </contour>
    <contour>
      <point x="618" y="542" type="line"/>
      <point x="616" y="571"/>
      <point x="612" y="596"/>
      <point x="603" y="620" type="curve"/>
      <point x="-15" y="620" type="line"/>
      <point x="-15" y="593"/>
      <point x="-10" y="565"/>
      <point x="0" y="542" type="curve"/>
    </contour>
  </outline>
</glyph>
<glyph name="g.Ura" format="2">
  <advance width="644"/>
  <unicode hex="0A73"/>
  <outline>
    <contour>
      <point x="376" y="-15" type="curve" smooth="yes"/>
      <point x="482" y="-15"/>
      <point x="532" y="65"/>
      <point x="532" y="137" type="curve" smooth="yes"/>
      <point x="532" y="203"/>
      <point x="490" y="264"/>
      <point x="442" y="306" type="curve"/>
      <point x="365" y="291" type="line"/>
      <point x="416" y="256"/>
      <point x="446" y="203"/>
      <point x="446" y="152" type="curve" smooth="yes"/>
      <point x="446" y="100"/>
      <point x="415" y="62"/>
      <point x="355" y="62" type="curve" smooth="yes"/>
      <point x="197" y="62"/>
      <point x="134" y="331"/>
      <point x="134" y="538" type="curve" smooth="yes"/>
      <point x="134" y="694"/>
      <point x="175" y="812"/>
      <point x="318" y="812" type="curve" smooth="yes"/>
      <point x="475" y="812"/>
      <point x="513" y="677"/>
      <point x="513" y="562" type="curve" smooth="yes"/>
      <point x="513" y="428"/>
      <point x="481" y="350"/>
      <point x="319" y="350" type="curve" smooth="yes"/>
      <point x="275" y="350"/>
      <point x="237" y="350"/>
      <point x="125" y="358" type="curve"/>
      <point x="143" y="285" type="line"/>
      <point x="239" y="277"/>
      <point x="292" y="276"/>
      <point x="329" y="276" type="curve" smooth="yes"/>
      <point x="509" y="276"/>
      <point x="594" y="357"/>
      <point x="594" y="524" type="curve" smooth="yes"/>
      <point x="594" y="693"/>
      <point x="502" y="890"/>
      <point x="299" y="890" type="curve" smooth="yes"/>
      <point x="122" y="890"/>
      <point x="51" y="738"/>
      <point x="51" y="541" type="curve" smooth="yes"/>
      <point x="51" y="265"/>
      <point x="176" y="-15"/>
    </contour>
    <contour>
      <point x="659" y="542" type="line"/>
      <point x="657" y="571"/>
      <point x="653" y="596"/>
      <point x="644" y="620" type="curve"/>
      <point x="-15" y="620" type="line"/>
      <point x="-15" y="593"/>
      <point x="-10" y="565"/>
      <point x="0" y="542" type="curve"/>
    </contour>
  </outline>
</glyph>
<glyph name="g.EkOnkar" format="2">
  <advance width="1158"/>
  <unicode hex="0A74"/>
  <outline>
    <contour>
      <point x="890" y="-15" type="curve" smooth="yes"/>
      <point x="996" y="-15"/>
      <point x="1046" y="65"/>
      <point x="1046" y="137" type="curve" smooth="yes"/>
      <point x="1046" y="203"/>
      <point x="1004" y="264"/>
      <point x="956" y="306" type="curve"/>
      <point x="879" y="291" type="line"/>
      <point x="930" y="256"/>
      <point x="960" y="203"/>
      <point x="960" y="152" type="curve" smooth="yes"/>
      <point x="960" y="100"/>
      <point x="929" y="62"/>
      <point x="869" y="62" type="curve" smooth="yes"/>
      <point x="713" y="62"/>
      <point x="648" y="325"/>
      <point x="648" y="538" type="curve" smooth="yes"/>
      <point x="648" y="712"/>
      <point x="699" y="812"/>
      <point x="835" y="812" type="curve" smooth="yes"/>
      <point x="889" y="812"/>
      <point x="978" y="795"/>
      <point x="1022" y="676" type="curve"/>
      <point x="1085" y="676" type="line"/>
      <point x="1072" y="781" type="line"/>
      <point x="1023" y="781" type="line"/>
      <point x="974" y="848"/>
      <point x="905" y="890"/>
      <point x="815" y="890" type="curve" smooth="yes"/>
      <point x="668" y="890"/>
      <point x="565" y="787"/>
      <point x="565" y="538" type="curve" smooth="yes"/>
      <point x="565" y="265"/>
      <point x="690" y="-15"/>
    </contour>
    <contour>
      <point x="521" y="-12" type="curve"/>
      <point x="457" y="43"/>
      <point x="436" y="115"/>
      <point x="436" y="190" type="curve" smooth="yes"/>
      <point x="436" y="267"/>
      <point x="456" y="351"/>
      <point x="456" y="412" type="curve"/>
      <point x="369" y="360" type="line"/>
      <point x="361" y="298"/>
      <point x="356" y="243"/>
      <point x="356" y="201" type="curve" smooth="yes"/>
      <point x="356" y="117"/>
      <point x="375" y="48"/>
      <point x="430" y="5" type="curve"/>
      <point x="454" y="-6"/>
      <point x="496" y="-12"/>
    </contour>
    <contour>
      <point x="250" y="302" type="curve" smooth="yes"/>
      <point x="302" y="302"/>
      <point x="344" y="315"/>
      <point x="377" y="333" type="curve"/>
      <point x="456" y="412" type="line"/>
      <point x="456" y="550"/>
      <point x="361" y="635"/>
      <point x="232" y="635" type="curve" smooth="yes"/>
      <point x="117" y="635"/>
      <point x="40" y="567"/>
      <point x="40" y="473" type="curve" smooth="yes"/>
      <point x="40" y="373"/>
      <point x="127" y="302"/>
    </contour>
    <contour>
      <point x="227" y="377" type="curve" smooth="yes"/>
      <point x="158" y="377"/>
      <point x="119" y="412"/>
      <point x="119" y="459" type="curve" smooth="yes"/>
      <point x="119" y="516"/>
      <point x="173" y="562"/>
      <point x="253" y="562" type="curve" smooth="yes"/>
      <point x="332" y="562"/>
      <point x="374" y="518"/>
      <point x="374" y="426" type="curve" smooth="yes"/>
      <point x="374" y="421" type="line"/>
      <point x="334" y="394"/>
      <point x="275" y="377"/>
    </contour>
    <contour>
      <point x="838" y="276" type="curve" smooth="yes"/>
      <point x="1019" y="276"/>
      <point x="1108" y="354"/>
      <point x="1108" y="525" type="curve" smooth="yes"/>
      <point x="1108" y="557"/>
      <point x="1106" y="590"/>
      <point x="1098" y="620" type="curve"/>
      <point x="1096" y="620"/>
      <point x="1022" y="621"/>
      <point x="886" y="621" type="curve" smooth="yes"/>
      <point x="741" y="621"/>
      <point x="707" y="620"/>
      <point x="630" y="619" type="curve"/>
      <point x="630" y="544" type="line"/>
      <point x="730" y="545"/>
      <point x="817" y="545"/>
      <point x="891" y="545" type="curve" smooth="yes"/>
      <point x="1028" y="545" type="line"/>
      <point x="1028" y="403"/>
      <point x="979" y="350"/>
      <point x="815" y="350" type="curve" smooth="yes"/>
      <point x="789" y="350"/>
      <point x="751" y="349"/>
      <point x="639" y="358" type="curve"/>
      <point x="657" y="285" type="line"/>
      <point x="753" y="277"/>
      <point x="806" y="276"/>
    </contour>
    <contour>
      <point x="1085" y="676" type="line"/>
      <point x="1098" y="790"/>
      <point x="1143" y="872"/>
      <point x="1267" y="872" type="curve" smooth="yes"/>
      <point x="1309" y="872"/>
      <point x="1398" y="861"/>
      <point x="1463" y="743" type="curve"/>
      <point x="1512" y="743" type="line"/>
      <point x="1513" y="746" type="line"/>
      <point x="1458" y="867"/>
      <point x="1374" y="949"/>
      <point x="1242" y="949" type="curve" smooth="yes"/>
      <point x="1139" y="949"/>
      <point x="1053" y="898"/>
      <point x="1021" y="761" type="curve"/>
    </contour>
  </outline>
</glyph>
<glyph name="g.Yakash" format="2">
  <unicode hex="0A75"/>
  <outline>
    <contour>
      <point x="1" y="-238" type="curve" smooth="yes"/>
      <point x="34" y="-238"/>
      <point x="59" y="-225"/>
      <point x="81" y="-208" type="curve"/>
      <point x="89" y="-193"/>
      <point x="96" y="-143"/>
      <point x="96" y="-125" type="curve"/>
      <point x="94" y="-124" type="line"/>
      <point x="66" y="-144"/>
      <point x="27" y="-168"/>
      <point x="-11" y="-168" type="curve" smooth="yes"/>
      <point x="-55" y="-168"/>
      <point x="-82" y="-139"/>
      <point x="-82" y="-74" type="curve" smooth="yes"/>
      <point x="-82" y="60" type="line"/>
      <point x="-168" y="60" type="line"/>
      <point x="-168" y="-69" type="line" smooth="yes"/>
      <point x="-168" y="-157"/>
      <point x="-86" y="-238"/>
    </contour>
  </outline>
</glyph>
<glyph name="g.Abbreviation" format="2">
  <advance width="233"/>
  <unicode hex="0A76"/>
  <outline>
    <contour>
      <point x="55" y="302" type="curve" smooth="yes"/>
      <point x="55" y="268"/>
      <point x="79" y="238"/>
      <point x="116" y="238" type="curve" smooth="yes"/>
      <point x="151" y="238"/>
      <point x="178" y="264"/>
      <point x="178" y="299" type="curve" smooth="yes"/>
      <point x="178" y="333"/>
      <point x="153" y="362"/>
      <point x="116" y="362" type="curve" smooth="yes"/>
      <point x="81" y="362"/>
      <point x="55" y="337"/>
    </contour>
  </outline>
  <guideline angle="0" x="0" y="310"/>
</glyph>
<glyph name="g.Khanda" format="2">
  <advance width="934"/>
  <unicode hex="262C"/>
  <outline>
    <contour>
      <point x="396" y="55" type="line"/>
      <point x="466" y="3" type="line"/>
      <point x="539" y="55" type="line"/>
      <point x="619" y="-7" type="line"/>
      <point x="622" y="-5" type="line"/>
      <point x="622" y="70"/>
      <point x="834" y="163"/>
      <point x="834" y="362" type="curve" smooth="yes"/>
      <point x="834" y="573"/>
      <point x="655" y="639"/>
      <point x="639" y="639" type="curve"/>
      <point x="638" y="635" type="line"/>
      <point x="729" y="574"/>
      <point x="756" y="502"/>
      <point x="756" y="427" type="curve" smooth="yes"/>
      <point x="756" y="287"/>
      <point x="628" y="180"/>
      <point x="467" y="63" type="curve"/>
      <point x="306" y="181"/>
      <point x="179" y="287"/>
      <point x="179" y="427" type="curve" smooth="yes"/>
      <point x="179" y="501"/>
      <point x="206" y="574"/>
      <point x="297" y="635" type="curve"/>
      <point x="295" y="639" type="line"/>
      <point x="281" y="639"/>
      <point x="100" y="573"/>
      <point x="100" y="362" type="curve" smooth="yes"/>
      <point x="100" y="163"/>
      <point x="314" y="70"/>
      <point x="314" y="-5" type="curve"/>
      <point x="316" y="-7" type="line"/>
    </contour>
    <contour>
      <point x="348" y="-119" type="curve" smooth="yes"/>
      <point x="358" y="-119"/>
      <point x="372" y="-114"/>
      <point x="382" y="-103" type="curve"/>
      <point x="373" y="-94"/>
      <point x="372" y="-88"/>
      <point x="372" y="-79" type="curve" smooth="yes"/>
      <point x="372" y="-63"/>
      <point x="390" y="-44"/>
      <point x="445" y="-7" type="curve"/>
      <point x="488" y="-7" type="line"/>
      <point x="550" y="-44"/>
      <point x="563" y="-61"/>
      <point x="563" y="-79" type="curve" smooth="yes"/>
      <point x="563" y="-88"/>
      <point x="561" y="-94"/>
      <point x="553" y="-103" type="curve"/>
      <point x="564" y="-114"/>
      <point x="575" y="-119"/>
      <point x="587" y="-119" type="curve" smooth="yes"/>
      <point x="610" y="-119"/>
      <point x="627" y="-101"/>
      <point x="627" y="-77" type="curve" smooth="yes"/>
      <point x="627" y="-58"/>
      <point x="616" y="-47"/>
      <point x="597" y="-33" type="curve" smooth="yes"/>
      <point x="500" y="37" type="line"/>
      <point x="434" y="37" type="line"/>
      <point x="337" y="-33" type="line" smooth="yes"/>
      <point x="317" y="-47"/>
      <point x="307" y="-59"/>
      <point x="307" y="-77" type="curve" smooth="yes"/>
      <point x="307" y="-102"/>
      <point x="326" y="-119"/>
    </contour>
    <contour>
      <point x="467" y="-220" type="curve" smooth="yes"/>
      <point x="508" y="-220"/>
      <point x="522" y="-187"/>
      <point x="522" y="-166" type="curve"/>
      <point x="506" y="-154"/>
      <point x="494" y="-138"/>
      <point x="494" y="-105" type="curve" smooth="yes"/>
      <point x="494" y="-15" type="line"/>
      <point x="507" y="-2" type="line"/>
      <point x="494" y="8" type="line"/>
      <point x="494" y="134" type="line"/>
      <point x="551" y="178" type="line"/>
      <point x="526" y="276"/>
      <point x="522" y="358"/>
      <point x="522" y="429" type="curve" smooth="yes"/>
      <point x="522" y="510"/>
      <point x="529" y="573"/>
      <point x="555" y="683" type="curve"/>
      <point x="521" y="714"/>
      <point x="493" y="748"/>
      <point x="468" y="780" type="curve"/>
      <point x="465" y="780" type="line"/>
      <point x="441" y="748"/>
      <point x="413" y="714"/>
      <point x="380" y="683" type="curve"/>
      <point x="405" y="574"/>
      <point x="412" y="510"/>
      <point x="412" y="429" type="curve" smooth="yes"/>
      <point x="412" y="358"/>
      <point x="408" y="301"/>
      <point x="384" y="178" type="curve"/>
      <point x="440" y="134" type="line"/>
      <point x="440" y="8" type="line"/>
      <point x="427" y="-2" type="line"/>
      <point x="440" y="-15" type="line"/>
      <point x="440" y="-105" type="line" smooth="yes"/>
      <point x="440" y="-138"/>
      <point x="430" y="-152"/>
      <point x="412" y="-166" type="curve"/>
      <point x="412" y="-187"/>
      <point x="428" y="-220"/>
    </contour>
    <contour>
      <point x="421" y="259" type="line"/>
      <point x="333" y="278"/>
      <point x="291" y="348"/>
      <point x="291" y="437" type="curve" smooth="yes"/>
      <point x="291" y="525"/>
      <point x="331" y="593"/>
      <point x="416" y="614" type="curve"/>
      <point x="409" y="656" type="line"/>
      <point x="308" y="625"/>
      <point x="246" y="540"/>
      <point x="246" y="437" type="curve" smooth="yes"/>
      <point x="246" y="334"/>
      <point x="312" y="242"/>
      <point x="413" y="217" type="curve"/>
    </contour>
    <contour>
      <point x="521" y="215" type="line"/>
      <point x="626" y="242"/>
      <point x="689" y="332"/>
      <point x="689" y="437" type="curve" smooth="yes"/>
      <point x="689" y="540"/>
      <point x="630" y="625"/>
      <point x="525" y="656" type="curve"/>
      <point x="519" y="615" type="line"/>
      <point x="601" y="592"/>
      <point x="646" y="523"/>
      <point x="646" y="437" type="curve" smooth="yes"/>
      <point x="646" y="348"/>
      <point x="600" y="275"/>
      <point x="513" y="258" type="curve"/>
    </contour>
  </outline>
</glyph>
<glyph name="niFractionOneQuarter" format="2">
  <advance width="256"/>
  <unicode hex="A830"/>
  <outline>
    <contour>
      <point x="85" y="5" type="line"/>
      <point x="109" y="-6"/>
      <point x="146" y="-12"/>
      <point x="171" y="-12" type="curve"/>
      <point x="171" y="613" type="line"/>
      <point x="147" y="624"/>
      <point x="110" y="630"/>
      <point x="85" y="630" type="curve"/>
    </contour>
  </outline>
</glyph>
<glyph name="niFractionThreeQuarters" format="2">
  <advance width="668"/>
  <unicode hex="A832"/>
  <outline>
    <contour>
      <point x="85" y="5" type="line"/>
      <point x="109" y="-6"/>
      <point x="146" y="-12"/>
      <point x="171" y="-12" type="curve"/>
      <point x="171" y="613" type="line"/>
      <point x="147" y="624"/>
      <point x="110" y="630"/>
      <point x="85" y="630" type="curve"/>
    </contour>
    <contour>
      <point x="291" y="5" type="line"/>
      <point x="315" y="-6"/>
      <point x="352" y="-12"/>
      <point x="377" y="-12" type="curve"/>
      <point x="377" y="613" type="line"/>
      <point x="353" y="624"/>
      <point x="316" y="630"/>
      <point x="291" y="630" type="curve"/>
    </contour>
    <contour>
      <point x="497" y="5" type="line"/>
      <point x="521" y="-6"/>
      <point x="558" y="-12"/>
      <point x="583" y="-12" type="curve"/>
      <point x="583" y="613" type="line"/>
      <point x="559" y="624"/>
      <point x="522" y="630"/>
      <point x="497" y="630" type="curve"/>
    </contour>
  </outline>
</glyph>
<glyph name="niFractionOneSixteenth" format="2">
  <advance width="628"/>
  <unicode hex="A833"/>
  <outline>
    <contour>
      <point x="575" y="523" type="line"/>
      <point x="573" y="552"/>
      <point x="569" y="576"/>
      <point x="560" y="600" type="curve"/>
      <point x="50" y="495" type="line"/>
      <point x="50" y="468"/>
      <point x="55" y="441"/>
      <point x="65" y="418" type="curve"/>
    </contour>
  </outline>
  <guideline angle="0" x="0" y="304"/>
</glyph>
<glyph name="niFractionThreeSixteenths" format="2">
  <advance width="628"/>
  <unicode hex="A835"/>
  <outline>
    <contour>
      <point x="575" y="523" type="line"/>
      <point x="573" y="552"/>
      <point x="569" y="576"/>
      <point x="560" y="600" type="curve"/>
      <point x="50" y="495" type="line"/>
      <point x="50" y="468"/>
      <point x="55" y="441"/>
      <point x="65" y="418" type="curve"/>
    </contour>
    <contour>
      <point x="575" y="318" type="line"/>
      <point x="573" y="347"/>
      <point x="569" y="371"/>
      <point x="560" y="395" type="curve"/>
      <point x="50" y="290" type="line"/>
      <point x="50" y="263"/>
      <point x="55" y="236"/>
      <point x="65" y="213" type="curve"/>
    </contour>
    <contour>
      <point x="575" y="114" type="line"/>
      <point x="573" y="143"/>
      <point x="569" y="167"/>
      <point x="560" y="191" type="curve"/>
      <point x="50" y="86" type="line"/>
      <point x="50" y="59"/>
      <point x="55" y="32"/>
      <point x="65" y="9" type="curve"/>
    </contour>
  </outline>
  <guideline angle="0" x="0" y="304"/>
</glyph>
<glyph name="niQuarterMark" format="2">
  <advance width="451"/>
  <unicode hex="A836"/>
  <outline>
    <contour>
      <point x="213" y="187" type="curve" smooth="yes"/>
      <point x="161" y="187"/>
      <point x="129" y="223"/>
      <point x="129" y="277" type="curve" smooth="yes"/>
      <point x="129" y="345"/>
      <point x="179" y="390"/>
      <point x="239" y="390" type="curve" smooth="yes"/>
      <point x="292" y="390"/>
      <point x="323" y="354"/>
      <point x="323" y="301" type="curve" smooth="yes"/>
      <point x="323" y="232"/>
      <point x="273" y="187"/>
    </contour>
    <contour>
      <point x="236" y="121" type="curve" smooth="yes"/>
      <point x="324" y="121"/>
      <point x="391" y="188"/>
      <point x="391" y="282" type="curve" smooth="yes"/>
      <point x="391" y="382"/>
      <point x="317" y="454"/>
      <point x="220" y="454" type="curve" smooth="yes"/>
      <point x="126" y="454"/>
      <point x="60" y="385"/>
      <point x="60" y="296" type="curve" smooth="yes"/>
      <point x="60" y="195"/>
      <point x="142" y="121"/>
    </contour>
  </outline>
</glyph>
<glyph name="niPlaceholderMark" format="2">
  <advance width="481"/>
  <unicode hex="A837"/>
  <outline>
    <contour>
      <point x="154" y="368" type="line"/>
      <point x="269" y="409" type="line"/>
      <point x="267" y="413" type="line"/>
      <point x="331" y="450"/>
      <point x="378" y="484"/>
      <point x="431" y="535" type="curve"/>
      <point x="429" y="564"/>
      <point x="424" y="595"/>
      <point x="415" y="620" type="curve"/>
      <point x="299" y="515"/>
      <point x="295" y="512"/>
      <point x="131" y="399" type="curve" smooth="yes"/>
      <point x="88" y="369"/>
      <point x="60" y="323"/>
      <point x="60" y="265" type="curve"/>
    </contour>
    <contour>
      <point x="236" y="91" type="curve" smooth="yes"/>
      <point x="324" y="91"/>
      <point x="391" y="158"/>
      <point x="391" y="255" type="curve" smooth="yes"/>
      <point x="391" y="340"/>
      <point x="330" y="414"/>
      <point x="233" y="414" type="curve" smooth="yes"/>
      <point x="114" y="414"/>
      <point x="60" y="348"/>
      <point x="60" y="265" type="curve" smooth="yes"/>
      <point x="60" y="166"/>
      <point x="142" y="91"/>
    </contour>
    <contour>
      <point x="214" y="157" type="curve" smooth="yes"/>
      <point x="161" y="157"/>
      <point x="129" y="193"/>
      <point x="129" y="247" type="curve" smooth="yes"/>
      <point x="129" y="315"/>
      <point x="179" y="360"/>
      <point x="239" y="360" type="curve" smooth="yes"/>
      <point x="292" y="360"/>
      <point x="323" y="324"/>
      <point x="323" y="271" type="curve" smooth="yes"/>
      <point x="323" y="202"/>
      <point x="273" y="157"/>
    </contour>
  </outline>
</glyph>
<glyph name="niRupeeMark" format="2">
  <advance width="201"/>
  <unicode hex="A838"/>
  <outline>
    <contour>
      <point x="59" y="630" type="curve"/>
      <point x="79" y="457"/>
      <point x="86" y="321"/>
      <point x="86" y="234" type="curve" smooth="yes"/>
      <point x="86" y="73"/>
      <point x="62" y="8"/>
      <point x="35" y="-30" type="curve" smooth="yes"/>
      <point x="-21" y="-109"/>
      <point x="-142" y="-136"/>
      <point x="-297" y="-139" type="curve"/>
      <point x="-297" y="-165"/>
      <point x="-292" y="-191"/>
      <point x="-282" y="-217" type="curve"/>
      <point x="-88" y="-212"/>
      <point x="42" y="-171"/>
      <point x="100" y="-78" type="curve" smooth="yes"/>
      <point x="133" y="-25"/>
      <point x="153" y="47"/>
      <point x="153" y="190" type="curve" smooth="yes"/>
      <point x="153" y="302"/>
      <point x="143" y="441"/>
      <point x="120" y="621" type="curve"/>
      <point x="100" y="627"/>
      <point x="79" y="630"/>
    </contour>
  </outline>
</glyph>
<glyph name="niQuantityMark" format="2">
  <advance width="326"/>
  <unicode hex="A839"/>
  <outline>
    <contour>
      <point x="281" y="620" type="curve"/>
      <point x="144" y="610"/>
      <point x="59" y="571"/>
      <point x="59" y="403" type="curve" smooth="yes"/>
      <point x="59" y="298"/>
      <point x="92" y="157"/>
      <point x="92" y="79" type="curve" smooth="yes"/>
      <point x="92" y="-42"/>
      <point x="11" y="-131"/>
      <point x="-297" y="-139" type="curve"/>
      <point x="-297" y="-166"/>
      <point x="-292" y="-192"/>
      <point x="-282" y="-217" type="curve"/>
      <point x="60" y="-203"/>
      <point x="156" y="-94"/>
      <point x="156" y="55" type="curve" smooth="yes"/>
      <point x="156" y="143"/>
      <point x="122" y="282"/>
      <point x="122" y="381" type="curve" smooth="yes"/>
      <point x="122" y="493"/>
      <point x="165" y="533"/>
      <point x="296" y="542" type="curve"/>
      <point x="295" y="564"/>
      <point x="291" y="594"/>
    </contour>
  </outline>
</glyph>
<glyph name="g.Ca.sub" format="2">
  <outline>
    <contour>
      <point x="-173" y="-291" type="curve" smooth="yes"/>
      <point x="-108" y="-291"/>
      <point x="-82" y="-256"/>
      <point x="-82" y="-180" type="curve" smooth="yes"/>
      <point x="-82" y="60" type="line"/>
      <point x="-168" y="60" type="line"/>
      <point x="-168" y="-104" type="line"/>
      <point x="-165" y="-118" type="line"/>
      <point x="-165" y="-177" type="line" smooth="yes"/>
      <point x="-165" y="-211"/>
      <point x="-178" y="-219"/>
      <point x="-199" y="-219" type="curve" smooth="yes"/>
      <point x="-239" y="-219"/>
      <point x="-276" y="-188"/>
      <point x="-276" y="-149" type="curve" smooth="yes"/>
      <point x="-276" y="-137"/>
      <point x="-271" y="-62"/>
      <point x="-271" y="-50" type="curve" smooth="yes"/>
      <point x="-271" y="-32"/>
      <point x="-280" y="-19"/>
      <point x="-301" y="-19" type="curve" smooth="yes"/>
      <point x="-350" y="-19"/>
      <point x="-397" y="-69"/>
      <point x="-397" y="-108" type="curve" smooth="yes"/>
      <point x="-397" y="-134"/>
      <point x="-371" y="-134"/>
      <point x="-350" y="-134" type="curve" smooth="yes"/>
      <point x="-269" y="-134"/>
      <point x="-239" y="-135"/>
      <point x="-225" y="-135" type="curve" smooth="yes"/>
      <point x="-186" y="-135"/>
      <point x="-176" y="-134"/>
      <point x="-148" y="-134" type="curve"/>
      <point x="-148" y="-68" type="line"/>
      <point x="-175" y="-70"/>
      <point x="-197" y="-70"/>
      <point x="-216" y="-70" type="curve" smooth="yes"/>
      <point x="-264" y="-70"/>
      <point x="-299" y="-68"/>
      <point x="-350" y="-68" type="curve"/>
      <point x="-350" y="-129" type="line" smooth="yes"/>
      <point x="-350" y="-221"/>
      <point x="-259" y="-291"/>
    </contour>
  </outline>
  <guideline angle="0" x="0" y="0"/>
</glyph>
<glyph name="g.Ca.subalt" format="2">
  <outline>
    <contour>
      <point x="-170" y="-309" type="curve" smooth="yes"/>
      <point x="-105" y="-309"/>
      <point x="-83" y="-274"/>
      <point x="-83" y="-198" type="curve" smooth="yes"/>
      <point x="-83" y="-55" type="line"/>
      <point x="-107" y="-44"/>
      <point x="-145" y="-40"/>
      <point x="-165" y="-40" type="curve"/>
      <point x="-165" y="-122" type="line"/>
      <point x="-162" y="-136" type="line"/>
      <point x="-162" y="-195" type="line" smooth="yes"/>
      <point x="-162" y="-229"/>
      <point x="-175" y="-237"/>
      <point x="-196" y="-237" type="curve" smooth="yes"/>
      <point x="-236" y="-237"/>
      <point x="-273" y="-206"/>
      <point x="-273" y="-167" type="curve" smooth="yes"/>
      <point x="-273" y="-162"/>
      <point x="-268" y="-80"/>
      <point x="-268" y="-68" type="curve" smooth="yes"/>
      <point x="-268" y="-50"/>
      <point x="-277" y="-37"/>
      <point x="-298" y="-37" type="curve" smooth="yes"/>
      <point x="-347" y="-37"/>
      <point x="-394" y="-87"/>
      <point x="-394" y="-126" type="curve" smooth="yes"/>
      <point x="-394" y="-152"/>
      <point x="-368" y="-152"/>
      <point x="-347" y="-152" type="curve" smooth="yes"/>
      <point x="-266" y="-152"/>
      <point x="-236" y="-153"/>
      <point x="-222" y="-153" type="curve" smooth="yes"/>
      <point x="-183" y="-153"/>
      <point x="-173" y="-152"/>
      <point x="-145" y="-152" type="curve"/>
      <point x="-145" y="-86" type="line"/>
      <point x="-172" y="-88"/>
      <point x="-194" y="-88"/>
      <point x="-213" y="-88" type="curve" smooth="yes"/>
      <point x="-261" y="-88"/>
      <point x="-296" y="-86"/>
      <point x="-347" y="-86" type="curve"/>
      <point x="-347" y="-147" type="line" smooth="yes"/>
      <point x="-347" y="-239"/>
      <point x="-256" y="-309"/>
    </contour>
  </outline>
  <guideline angle="0" x="0" y="0"/>
</glyph>
<glyph name="g.Da.sub" format="2">
  <outline>
    <contour>
      <point x="-272" y="-148" type="curve" smooth="yes"/>
      <point x="-272" y="-119"/>
      <point x="-267" y="-67"/>
      <point x="-267" y="-50" type="curve" smooth="yes"/>
      <point x="-267" y="-32"/>
      <point x="-275" y="-19"/>
      <point x="-298" y="-19" type="curve" smooth="yes"/>
      <point x="-345" y="-19"/>
      <point x="-393" y="-69"/>
      <point x="-393" y="-106" type="curve" smooth="yes"/>
      <point x="-393" y="-133"/>
      <point x="-368" y="-134"/>
      <point x="-342" y="-134" type="curve"/>
      <point x="-280" y="-135" type="line"/>
      <point x="-264" y="-135"/>
      <point x="-233" y="-134"/>
      <point x="-186" y="-134" type="curve" smooth="yes"/>
      <point x="-148" y="-134"/>
      <point x="-113" y="-135"/>
      <point x="-82" y="-136" type="curve"/>
      <point x="-82" y="60" type="line"/>
      <point x="-168" y="60" type="line"/>
      <point x="-168" y="-69" type="line"/>
      <point x="-185" y="-70"/>
      <point x="-201" y="-70"/>
      <point x="-214" y="-70" type="curve" smooth="yes"/>
      <point x="-233" y="-70"/>
      <point x="-260" y="-70"/>
      <point x="-284" y="-68" type="curve"/>
      <point x="-344" y="-126" type="line"/>
      <point x="-344" y="-217"/>
      <point x="-281" y="-291"/>
      <point x="-169" y="-291" type="curve" smooth="yes"/>
      <point x="-143" y="-291"/>
      <point x="-99" y="-287"/>
      <point x="-76" y="-277" type="curve"/>
      <point x="-68" y="-262"/>
      <point x="-60" y="-222"/>
      <point x="-60" y="-203" type="curve"/>
      <point x="-63" y="-202" type="line"/>
      <point x="-90" y="-213"/>
      <point x="-140" y="-222"/>
      <point x="-182" y="-222" type="curve" smooth="yes"/>
      <point x="-236" y="-222"/>
      <point x="-272" y="-208"/>
    </contour>
  </outline>
</glyph>
<glyph name="g.Da.subalt" format="2">
  <outline>
    <contour>
      <point x="-167" y="-311" type="curve" smooth="yes"/>
      <point x="-143" y="-311"/>
      <point x="-99" y="-307"/>
      <point x="-76" y="-297" type="curve"/>
      <point x="-68" y="-282"/>
      <point x="-60" y="-242"/>
      <point x="-60" y="-223" type="curve"/>
      <point x="-63" y="-222" type="line"/>
      <point x="-90" y="-233"/>
      <point x="-140" y="-242"/>
      <point x="-180" y="-242" type="curve" smooth="yes"/>
      <point x="-234" y="-242"/>
      <point x="-270" y="-228"/>
      <point x="-270" y="-167" type="curve" smooth="yes"/>
      <point x="-270" y="-157"/>
      <point x="-268" y="-147"/>
      <point x="-265" y="-138" type="curve"/>
      <point x="-342" y="-138" type="line"/>
      <point x="-342" y="-146" type="line" smooth="yes"/>
      <point x="-342" y="-237"/>
      <point x="-279" y="-311"/>
    </contour>
    <contour>
      <point x="-83" y="-55" type="line"/>
      <point x="-107" y="-44"/>
      <point x="-145" y="-40"/>
      <point x="-165" y="-40" type="curve"/>
      <point x="-165" y="-89" type="line"/>
      <point x="-183" y="-90"/>
      <point x="-199" y="-90"/>
      <point x="-212" y="-90" type="curve" smooth="yes"/>
      <point x="-232" y="-90"/>
      <point x="-249" y="-90"/>
      <point x="-266" y="-89" type="curve"/>
      <point x="-265" y="-80"/>
      <point x="-265" y="-78"/>
      <point x="-265" y="-70" type="curve" smooth="yes"/>
      <point x="-265" y="-52"/>
      <point x="-273" y="-39"/>
      <point x="-296" y="-39" type="curve" smooth="yes"/>
      <point x="-343" y="-39"/>
      <point x="-391" y="-89"/>
      <point x="-391" y="-126" type="curve" smooth="yes"/>
      <point x="-391" y="-153"/>
      <point x="-366" y="-154"/>
      <point x="-340" y="-154" type="curve" smooth="yes"/>
      <point x="-281" y="-154"/>
      <point x="-255" y="-154"/>
      <point x="-184" y="-154" type="curve" smooth="yes"/>
      <point x="-146" y="-154"/>
      <point x="-111" y="-155"/>
      <point x="-83" y="-156" type="curve"/>
    </contour>
  </outline>
</glyph>
<glyph name="g.Eight.sups" format="2">
  <advance width="473"/>
  <outline>
    <contour>
      <point x="342" y="301" type="curve" smooth="yes"/>
      <point x="374" y="301"/>
      <point x="407" y="309"/>
      <point x="432" y="331" type="curve"/>
      <point x="441" y="347"/>
      <point x="448" y="390"/>
      <point x="448" y="408" type="curve"/>
      <point x="446" y="409" type="line"/>
      <point x="419" y="387"/>
      <point x="380" y="368"/>
      <point x="329" y="368" type="curve" smooth="yes"/>
      <point x="270" y="368"/>
      <point x="229" y="393"/>
      <point x="229" y="508" type="curve" smooth="yes"/>
      <point x="229" y="529"/>
      <point x="230" y="560"/>
      <point x="234" y="585" type="curve" smooth="yes"/>
      <point x="240" y="620"/>
      <point x="241" y="652"/>
      <point x="241" y="672" type="curve" smooth="yes"/>
      <point x="241" y="706"/>
      <point x="236" y="717"/>
      <point x="215" y="717" type="curve" smooth="yes"/>
      <point x="158" y="717"/>
      <point x="95" y="635"/>
      <point x="95" y="597" type="curve" smooth="yes"/>
      <point x="95" y="571"/>
      <point x="124" y="570"/>
      <point x="166" y="570" type="curve" smooth="yes"/>
      <point x="217" y="570"/>
      <point x="265" y="572"/>
      <point x="312" y="572" type="curve" smooth="yes"/>
      <point x="326" y="572"/>
      <point x="368" y="572"/>
      <point x="425" y="571" type="curve"/>
      <point x="430" y="576" type="line"/>
      <point x="431" y="635" type="line"/>
      <point x="405" y="636"/>
      <point x="370" y="637"/>
      <point x="339" y="637" type="curve" smooth="yes"/>
      <point x="300" y="637"/>
      <point x="252" y="635"/>
      <point x="166" y="634" type="curve"/>
      <point x="162" y="571"/>
      <point x="161" y="560"/>
      <point x="161" y="538" type="curve" smooth="yes"/>
      <point x="161" y="382"/>
      <point x="240" y="301"/>
    </contour>
  </outline>
</glyph>
<glyph name="g.EkOnkar2" format="2">
  <advance width="1158"/>
  <outline>
    <contour>
      <point x="1085" y="676" type="line"/>
      <point x="1148" y="1017"/>
      <point x="1416" y="1369"/>
      <point x="1788" y="1369" type="curve" smooth="yes"/>
      <point x="2006" y="1369"/>
      <point x="2157" y="1252"/>
      <point x="2258" y="950" type="curve"/>
      <point x="2315" y="950" type="line"/>
      <point x="2316" y="953" type="line"/>
      <point x="2196" y="1376"/>
      <point x="1967" y="1447"/>
      <point x="1779" y="1447" type="curve" smooth="yes"/>
      <point x="1447" y="1447"/>
      <point x="1143" y="1190"/>
      <point x="1022" y="764" type="curve"/>
      <point x="1022" y="676" type="line"/>
    </contour>
    <contour>
      <point x="521" y="-12" type="curve"/>
      <point x="457" y="43"/>
      <point x="436" y="115"/>
      <point x="436" y="190" type="curve" smooth="yes"/>
      <point x="436" y="267"/>
      <point x="456" y="351"/>
      <point x="456" y="412" type="curve"/>
      <point x="369" y="360" type="line"/>
      <point x="361" y="298"/>
      <point x="356" y="243"/>
      <point x="356" y="201" type="curve" smooth="yes"/>
      <point x="356" y="117"/>
      <point x="375" y="48"/>
      <point x="430" y="5" type="curve"/>
      <point x="454" y="-6"/>
      <point x="496" y="-12"/>
    </contour>
    <contour>
      <point x="250" y="302" type="curve" smooth="yes"/>
      <point x="302" y="302"/>
      <point x="344" y="315"/>
      <point x="377" y="333" type="curve"/>
      <point x="456" y="412" type="line"/>
      <point x="456" y="550"/>
      <point x="361" y="635"/>
      <point x="232" y="635" type="curve" smooth="yes"/>
      <point x="117" y="635"/>
      <point x="40" y="567"/>
      <point x="40" y="473" type="curve" smooth="yes"/>
      <point x="40" y="373"/>
      <point x="127" y="302"/>
    </contour>
    <contour>
      <point x="227" y="377" type="curve" smooth="yes"/>
      <point x="158" y="377"/>
      <point x="119" y="412"/>
      <point x="119" y="459" type="curve" smooth="yes"/>
      <point x="119" y="516"/>
      <point x="173" y="562"/>
      <point x="253" y="562" type="curve" smooth="yes"/>
      <point x="332" y="562"/>
      <point x="374" y="518"/>
      <point x="374" y="426" type="curve" smooth="yes"/>
      <point x="374" y="421" type="line"/>
      <point x="334" y="394"/>
      <point x="275" y="377"/>
    </contour>
    <contour>
      <point x="890" y="-15" type="curve" smooth="yes"/>
      <point x="996" y="-15"/>
      <point x="1046" y="65"/>
      <point x="1046" y="137" type="curve" smooth="yes"/>
      <point x="1046" y="203"/>
      <point x="1004" y="264"/>
      <point x="956" y="306" type="curve"/>
      <point x="879" y="291" type="line"/>
      <point x="930" y="256"/>
      <point x="960" y="203"/>
      <point x="960" y="152" type="curve" smooth="yes"/>
      <point x="960" y="100"/>
      <point x="929" y="62"/>
      <point x="869" y="62" type="curve" smooth="yes"/>
      <point x="713" y="62"/>
      <point x="648" y="325"/>
      <point x="648" y="538" type="curve" smooth="yes"/>
      <point x="648" y="712"/>
      <point x="699" y="812"/>
      <point x="835" y="812" type="curve" smooth="yes"/>
      <point x="892" y="812"/>
      <point x="979" y="793"/>
      <point x="1022" y="676" type="curve"/>
      <point x="1062" y="724" type="line"/>
      <point x="993" y="842"/>
      <point x="914" y="890"/>
      <point x="815" y="890" type="curve" smooth="yes"/>
      <point x="668" y="890"/>
      <point x="565" y="787"/>
      <point x="565" y="538" type="curve" smooth="yes"/>
      <point x="565" y="265"/>
      <point x="690" y="-15"/>
    </contour>
    <contour>
      <point x="838" y="276" type="curve" smooth="yes"/>
      <point x="1019" y="276"/>
      <point x="1108" y="354"/>
      <point x="1108" y="525" type="curve" smooth="yes"/>
      <point x="1108" y="557"/>
      <point x="1106" y="590"/>
      <point x="1098" y="620" type="curve"/>
      <point x="1096" y="620"/>
      <point x="1022" y="621"/>
      <point x="886" y="621" type="curve" smooth="yes"/>
      <point x="741" y="621"/>
      <point x="707" y="620"/>
      <point x="630" y="619" type="curve"/>
      <point x="630" y="544" type="line"/>
      <point x="730" y="545"/>
      <point x="817" y="545"/>
      <point x="891" y="545" type="curve" smooth="yes"/>
      <point x="1028" y="545" type="line"/>
      <point x="1028" y="403"/>
      <point x="979" y="350"/>
      <point x="815" y="350" type="curve" smooth="yes"/>
      <point x="789" y="350"/>
      <point x="751" y="349"/>
      <point x="639" y="358" type="curve"/>
      <point x="657" y="285" type="line"/>
      <point x="753" y="277"/>
      <point x="806" y="276"/>
    </contour>
  </outline>
</glyph>
<glyph name="g.Five.sups" format="2">
  <advance width="457"/>
  <outline>
    <contour>
      <point x="258" y="378" type="curve" smooth="yes"/>
      <point x="288" y="378"/>
      <point x="323" y="390"/>
      <point x="359" y="423" type="curve"/>
      <point x="359" y="509" type="line"/>
      <point x="319" y="468"/>
      <point x="281" y="446"/>
      <point x="246" y="446" type="curve" smooth="yes"/>
      <point x="218" y="446"/>
      <point x="196" y="460"/>
      <point x="169" y="485" type="curve"/>
      <point x="188" y="513"/>
      <point x="197" y="541"/>
      <point x="197" y="574" type="curve" smooth="yes"/>
      <point x="197" y="626"/>
      <point x="175" y="670"/>
      <point x="135" y="717" type="curve"/>
      <point x="85" y="681" type="line"/>
      <point x="125" y="636"/>
      <point x="129" y="604"/>
      <point x="129" y="585" type="curve" smooth="yes"/>
      <point x="129" y="550"/>
      <point x="116" y="524"/>
      <point x="89" y="491" type="curve"/>
      <point x="143" y="428"/>
      <point x="200" y="378"/>
    </contour>
    <contour>
      <point x="412" y="701" type="line"/>
      <point x="391" y="710"/>
      <point x="360" y="715"/>
      <point x="339" y="715" type="curve"/>
      <point x="339" y="318" type="line"/>
      <point x="359" y="309"/>
      <point x="390" y="304"/>
      <point x="412" y="304" type="curve"/>
    </contour>
  </outline>
</glyph>
<glyph name="g.Four.sups" format="2">
  <advance width="499"/>
  <outline>
    <contour>
      <point x="292" y="302" type="curve" smooth="yes"/>
      <point x="388" y="302"/>
      <point x="459" y="347"/>
      <point x="459" y="413" type="curve" smooth="yes"/>
      <point x="459" y="452"/>
      <point x="434" y="489"/>
      <point x="386" y="507" type="curve"/>
      <point x="386" y="527" type="line"/>
      <point x="186" y="527" type="line"/>
      <point x="186" y="511" type="line"/>
      <point x="135" y="491"/>
      <point x="108" y="461"/>
      <point x="108" y="421" type="curve" smooth="yes"/>
      <point x="108" y="351"/>
      <point x="191" y="302"/>
    </contour>
    <contour>
      <point x="280" y="366" type="curve" smooth="yes"/>
      <point x="219" y="366"/>
      <point x="178" y="389"/>
      <point x="178" y="422" type="curve" smooth="yes"/>
      <point x="178" y="459"/>
      <point x="228" y="484"/>
      <point x="292" y="484" type="curve" smooth="yes"/>
      <point x="355" y="484"/>
      <point x="391" y="460"/>
      <point x="391" y="427" type="curve" smooth="yes"/>
      <point x="391" y="392"/>
      <point x="345" y="366"/>
    </contour>
    <contour>
      <point x="290" y="496" type="curve" smooth="yes"/>
      <point x="402" y="496"/>
      <point x="464" y="538"/>
      <point x="464" y="599" type="curve" smooth="yes"/>
      <point x="464" y="649"/>
      <point x="422" y="695"/>
      <point x="338" y="712" type="curve"/>
      <point x="325" y="661" type="line"/>
      <point x="372" y="651"/>
      <point x="396" y="632"/>
      <point x="396" y="605" type="curve" smooth="yes"/>
      <point x="396" y="570"/>
      <point x="349" y="543"/>
      <point x="277" y="543" type="curve" smooth="yes"/>
      <point x="212" y="543"/>
      <point x="174" y="564"/>
      <point x="174" y="596" type="curve" smooth="yes"/>
      <point x="174" y="620"/>
      <point x="197" y="643"/>
      <point x="250" y="655" type="curve"/>
      <point x="250" y="671"/>
      <point x="238" y="701"/>
      <point x="223" y="717" type="curve"/>
      <point x="153" y="697"/>
      <point x="105" y="659"/>
      <point x="105" y="604" type="curve" smooth="yes"/>
      <point x="105" y="518"/>
      <point x="225" y="496"/>
    </contour>
  </outline>
</glyph>
<glyph name="g.Ga.sub" format="2">
  <outline>
    <contour>
      <point x="-310" y="-293" type="curve" smooth="yes"/>
      <point x="-249" y="-293"/>
      <point x="-225" y="-261"/>
      <point x="-225" y="-186" type="curve" smooth="yes"/>
      <point x="-225" y="-104" type="line"/>
      <point x="-199" y="-104"/>
      <point x="-160" y="-106"/>
      <point x="-146" y="-107" type="curve"/>
      <point x="-146" y="-34" type="line"/>
      <point x="-205" y="-32"/>
      <point x="-272" y="-31"/>
      <point x="-303" y="-31" type="curve"/>
      <point x="-303" y="-109" type="line"/>
      <point x="-301" y="-120" type="line"/>
      <point x="-301" y="-183" type="line" smooth="yes"/>
      <point x="-301" y="-216"/>
      <point x="-314" y="-222"/>
      <point x="-331" y="-222" type="curve" smooth="yes"/>
      <point x="-364" y="-222"/>
      <point x="-394" y="-204"/>
      <point x="-394" y="-173" type="curve" smooth="yes"/>
      <point x="-394" y="-148"/>
      <point x="-373" y="-145"/>
      <point x="-339" y="-145" type="curve" smooth="yes"/>
      <point x="-318" y="-145"/>
      <point x="-305" y="-145"/>
      <point x="-283" y="-148" type="curve"/>
      <point x="-280" y="-85" type="line"/>
      <point x="-312" y="-82"/>
      <point x="-322" y="-82"/>
      <point x="-350" y="-82" type="curve" smooth="yes"/>
      <point x="-420" y="-82"/>
      <point x="-472" y="-90"/>
      <point x="-472" y="-150" type="curve" smooth="yes"/>
      <point x="-472" y="-217"/>
      <point x="-404" y="-293"/>
    </contour>
    <contour>
      <point x="-82" y="60" type="line"/>
      <point x="-168" y="60" type="line"/>
      <point x="-168" y="-59" type="line"/>
      <point x="-163" y="-80" type="line"/>
      <point x="-163" y="-277" type="line"/>
      <point x="-141" y="-288"/>
      <point x="-105" y="-293"/>
      <point x="-82" y="-293" type="curve"/>
    </contour>
  </outline>
  <guideline angle="0" x="0" y="-309"/>
  <guideline angle="0" x="0" y="-237"/>
</glyph>
<glyph name="g.Ga.sub2" format="2">
  <outline>
    <contour>
      <point x="-310" y="-293" type="curve" smooth="yes"/>
      <point x="-249" y="-293"/>
      <point x="-225" y="-261"/>
      <point x="-225" y="-186" type="curve" smooth="yes"/>
      <point x="-225" y="-104" type="line"/>
      <point x="-205" y="-104"/>
      <point x="-179" y="-105"/>
      <point x="-163" y="-106" type="curve"/>
      <point x="-163" y="-277" type="line"/>
      <point x="-141" y="-288"/>
      <point x="-105" y="-293"/>
      <point x="-82" y="-293" type="curve"/>
      <point x="-82" y="-36" type="line"/>
      <point x="-161" y="-32"/>
      <point x="-260" y="-31"/>
      <point x="-303" y="-31" type="curve"/>
      <point x="-303" y="-99" type="line"/>
      <point x="-301" y="-130" type="line"/>
      <point x="-301" y="-183" type="line" smooth="yes"/>
      <point x="-301" y="-216"/>
      <point x="-314" y="-222"/>
      <point x="-331" y="-222" type="curve" smooth="yes"/>
      <point x="-364" y="-222"/>
      <point x="-394" y="-204"/>
      <point x="-394" y="-173" type="curve" smooth="yes"/>
      <point x="-394" y="-148"/>
      <point x="-373" y="-145"/>
      <point x="-339" y="-145" type="curve" smooth="yes"/>
      <point x="-318" y="-145"/>
      <point x="-305" y="-145"/>
      <point x="-281" y="-148" type="curve"/>
      <point x="-281" y="-85" type="line"/>
      <point x="-315" y="-82"/>
      <point x="-322" y="-82"/>
      <point x="-350" y="-82" type="curve" smooth="yes"/>
      <point x="-420" y="-82"/>
      <point x="-472" y="-90"/>
      <point x="-472" y="-150" type="curve" smooth="yes"/>
      <point x="-472" y="-217"/>
      <point x="-404" y="-293"/>
    </contour>
  </outline>
  <guideline angle="0" x="0" y="-309"/>
  <guideline angle="0" x="0" y="-237"/>
</glyph>
<glyph name="g.Ga.subalt" format="2">
  <outline>
    <contour>
      <point x="-308" y="-309" type="curve" smooth="yes"/>
      <point x="-247" y="-309"/>
      <point x="-223" y="-277"/>
      <point x="-223" y="-202" type="curve" smooth="yes"/>
      <point x="-223" y="-114" type="line"/>
      <point x="-203" y="-114"/>
      <point x="-178" y="-115"/>
      <point x="-162" y="-116" type="curve"/>
      <point x="-162" y="-293" type="line"/>
      <point x="-140" y="-304"/>
      <point x="-106" y="-309"/>
      <point x="-83" y="-309" type="curve"/>
      <point x="-83" y="-46" type="line"/>
      <point x="-162" y="-42"/>
      <point x="-258" y="-41"/>
      <point x="-301" y="-41" type="curve"/>
      <point x="-301" y="-112" type="line"/>
      <point x="-299" y="-145" type="line"/>
      <point x="-299" y="-199" type="line" smooth="yes"/>
      <point x="-299" y="-232"/>
      <point x="-312" y="-238"/>
      <point x="-329" y="-238" type="curve" smooth="yes"/>
      <point x="-362" y="-238"/>
      <point x="-394" y="-217"/>
      <point x="-394" y="-186" type="curve" smooth="yes"/>
      <point x="-394" y="-161"/>
      <point x="-373" y="-158"/>
      <point x="-339" y="-158" type="curve" smooth="yes"/>
      <point x="-318" y="-158"/>
      <point x="-301" y="-158"/>
      <point x="-284" y="-161" type="curve"/>
      <point x="-284" y="-97" type="line"/>
      <point x="-312" y="-95"/>
      <point x="-322" y="-95"/>
      <point x="-350" y="-95" type="curve" smooth="yes"/>
      <point x="-420" y="-95"/>
      <point x="-472" y="-103"/>
      <point x="-472" y="-163" type="curve" smooth="yes"/>
      <point x="-472" y="-233"/>
      <point x="-402" y="-309"/>
    </contour>
  </outline>
  <guideline angle="0" x="0" y="-309"/>
  <guideline angle="0" x="0" y="-237"/>
</glyph>
<glyph name="g.Ha.sub" format="2">
  <outline>
    <contour>
      <point x="-82" y="60" type="line"/>
      <point x="-168" y="60" type="line"/>
      <point x="-168" y="-133" type="line" smooth="yes"/>
      <point x="-168" y="-165"/>
      <point x="-179" y="-174"/>
      <point x="-200" y="-174" type="curve" smooth="yes"/>
      <point x="-244" y="-174"/>
      <point x="-278" y="-136"/>
      <point x="-278" y="-113" type="curve" smooth="yes"/>
      <point x="-278" y="-103"/>
      <point x="-271" y="-96"/>
      <point x="-246" y="-96" type="curve" smooth="yes"/>
      <point x="-238" y="-96" type="line"/>
      <point x="-236" y="-25" type="line"/>
      <point x="-254" y="-25" type="line" smooth="yes"/>
      <point x="-327" y="-25"/>
      <point x="-353" y="-45"/>
      <point x="-353" y="-90" type="curve" smooth="yes"/>
      <point x="-353" y="-167"/>
      <point x="-265" y="-248"/>
      <point x="-170" y="-248" type="curve" smooth="yes"/>
      <point x="-103" y="-248"/>
      <point x="-82" y="-210"/>
      <point x="-82" y="-137" type="curve"/>
    </contour>
  </outline>
  <guideline angle="0" x="0" y="0"/>
  <guideline angle="0" x="0" y="0"/>
</glyph>
<glyph name="g.Ha.subalt" format="2">
  <outline>
    <contour>
      <point x="-83" y="-55" type="line"/>
      <point x="-107" y="-44"/>
      <point x="-145" y="-40"/>
      <point x="-165" y="-40" type="curve"/>
      <point x="-165" y="-193" type="line" smooth="yes"/>
      <point x="-165" y="-225"/>
      <point x="-176" y="-234"/>
      <point x="-197" y="-234" type="curve" smooth="yes"/>
      <point x="-241" y="-234"/>
      <point x="-275" y="-196"/>
      <point x="-275" y="-173" type="curve" smooth="yes"/>
      <point x="-275" y="-163"/>
      <point x="-268" y="-156"/>
      <point x="-243" y="-156" type="curve" smooth="yes"/>
      <point x="-235" y="-156" type="line"/>
      <point x="-233" y="-85" type="line"/>
      <point x="-251" y="-85" type="line" smooth="yes"/>
      <point x="-324" y="-85"/>
      <point x="-350" y="-105"/>
      <point x="-350" y="-150" type="curve" smooth="yes"/>
      <point x="-350" y="-227"/>
      <point x="-264" y="-308"/>
      <point x="-169" y="-308" type="curve" smooth="yes"/>
      <point x="-102" y="-308"/>
      <point x="-83" y="-270"/>
      <point x="-83" y="-197" type="curve"/>
    </contour>
  </outline>
  <guideline angle="0" x="0" y="0"/>
  <guideline angle="0" x="0" y="0"/>
</glyph>
<glyph name="g.Jha.presub" format="2">
  <advance width="563"/>
  <outline>
    <contour>
      <point x="266" y="66" type="curve" smooth="yes"/>
      <point x="354" y="66"/>
      <point x="492" y="107"/>
      <point x="492" y="223" type="curve" smooth="yes"/>
      <point x="492" y="289"/>
      <point x="451" y="331"/>
      <point x="386" y="352" type="curve"/>
      <point x="386" y="360" type="line"/>
      <point x="163" y="390" type="line"/>
      <point x="158" y="380" type="line"/>
      <point x="133" y="380"/>
      <point x="97" y="379"/>
      <point x="61" y="378" type="curve"/>
      <point x="61" y="351"/>
      <point x="66" y="325"/>
      <point x="76" y="302" type="curve"/>
      <point x="135" y="304"/>
      <point x="191" y="305"/>
      <point x="226" y="305" type="curve" smooth="yes"/>
      <point x="359" y="305"/>
      <point x="414" y="290"/>
      <point x="414" y="235" type="curve" smooth="yes"/>
      <point x="414" y="185"/>
      <point x="366" y="155"/>
      <point x="302" y="149" type="curve"/>
      <point x="262" y="183"/>
      <point x="223" y="204"/>
      <point x="183" y="204" type="curve" smooth="yes"/>
      <point x="146" y="204"/>
      <point x="114" y="186"/>
      <point x="114" y="147" type="curve" smooth="yes"/>
      <point x="114" y="104"/>
      <point x="161" y="66"/>
    </contour>
    <contour>
      <point x="286" y="325" type="curve" smooth="yes"/>
      <point x="417" y="325"/>
      <point x="484" y="447"/>
      <point x="494" y="562" type="curve"/>
      <point x="410" y="562" type="line"/>
      <point x="406" y="461"/>
      <point x="319" y="383"/>
      <point x="280" y="383" type="curve" smooth="yes"/>
      <point x="244" y="383"/>
      <point x="167" y="438"/>
      <point x="160" y="562" type="curve"/>
      <point x="69" y="562" type="line"/>
      <point x="93" y="449"/>
      <point x="167" y="325"/>
    </contour>
    <contour>
      <point x="578" y="542" type="line"/>
      <point x="576" y="571"/>
      <point x="572" y="596"/>
      <point x="563" y="620" type="curve"/>
      <point x="-15" y="620" type="line"/>
      <point x="-15" y="593"/>
      <point x="-10" y="565"/>
      <point x="0" y="542" type="curve"/>
    </contour>
  </outline>
</glyph>
<glyph name="g.Na.sub" format="2">
  <outline>
    <contour>
      <point x="-145" y="-236" type="line"/>
      <point x="-198" y="-213"/>
      <point x="-219" y="-186"/>
      <point x="-219" y="-158" type="curve" smooth="yes"/>
      <point x="-219" y="-120"/>
      <point x="-183" y="-90"/>
      <point x="-124" y="-90" type="curve" smooth="yes"/>
      <point x="-71" y="-90"/>
      <point x="-32" y="-114"/>
      <point x="-32" y="-151" type="curve" smooth="yes"/>
      <point x="-32" y="-182"/>
      <point x="-60" y="-199"/>
      <point x="-98" y="-206" type="curve"/>
      <point x="-98" y="-224"/>
      <point x="-81" y="-265"/>
      <point x="-71" y="-276" type="curve"/>
      <point x="4" y="-259"/>
      <point x="38" y="-217"/>
      <point x="38" y="-163" type="curve" smooth="yes"/>
      <point x="38" y="-83"/>
      <point x="-39" y="-28"/>
      <point x="-131" y="-28" type="curve" smooth="yes"/>
      <point x="-224" y="-28"/>
      <point x="-293" y="-85"/>
      <point x="-293" y="-152" type="curve" smooth="yes"/>
      <point x="-293" y="-198"/>
      <point x="-261" y="-242"/>
      <point x="-176" y="-283" type="curve"/>
    </contour>
    <contour>
      <point x="-82" y="-52" type="line"/>
      <point x="-82" y="60" type="line"/>
      <point x="-168" y="60" type="line"/>
      <point x="-168" y="-52" type="line"/>
    </contour>
  </outline>
</glyph>
<glyph name="g.Na.subalt" format="2">
  <outline>
    <contour>
      <point x="-245" y="-266" type="line"/>
      <point x="-298" y="-243"/>
      <point x="-319" y="-216"/>
      <point x="-319" y="-188" type="curve" smooth="yes"/>
      <point x="-319" y="-150"/>
      <point x="-283" y="-120"/>
      <point x="-224" y="-120" type="curve" smooth="yes"/>
      <point x="-171" y="-120"/>
      <point x="-132" y="-144"/>
      <point x="-132" y="-181" type="curve" smooth="yes"/>
      <point x="-132" y="-212"/>
      <point x="-160" y="-229"/>
      <point x="-198" y="-236" type="curve"/>
      <point x="-198" y="-254"/>
      <point x="-181" y="-295"/>
      <point x="-171" y="-306" type="curve"/>
      <point x="-96" y="-289"/>
      <point x="-62" y="-247"/>
      <point x="-62" y="-193" type="curve" smooth="yes"/>
      <point x="-62" y="-113"/>
      <point x="-139" y="-58"/>
      <point x="-231" y="-58" type="curve" smooth="yes"/>
      <point x="-324" y="-58"/>
      <point x="-393" y="-115"/>
      <point x="-393" y="-182" type="curve" smooth="yes"/>
      <point x="-393" y="-228"/>
      <point x="-361" y="-272"/>
      <point x="-276" y="-313" type="curve"/>
    </contour>
    <contour>
      <point x="-184" y="-83" type="line"/>
      <point x="-184" y="-42" type="line"/>
      <point x="-210" y="-36"/>
      <point x="-240" y="-34"/>
      <point x="-266" y="-34" type="curve"/>
      <point x="-266" y="-83" type="line"/>
    </contour>
  </outline>
</glyph>
<glyph name="g.Nga.presub" format="2">
  <advance width="606"/>
  <outline>
    <contour>
      <point x="270" y="-15" type="curve" smooth="yes"/>
      <point x="412" y="-15"/>
      <point x="540" y="117"/>
      <point x="540" y="268" type="curve" smooth="yes"/>
      <point x="540" y="432"/>
      <point x="391" y="433"/>
      <point x="318" y="433" type="curve" smooth="yes"/>
      <point x="235" y="433"/>
      <point x="193" y="433"/>
      <point x="169" y="432" type="curve"/>
      <point x="169" y="437"/>
      <point x="169" y="526"/>
      <point x="171" y="562" type="curve"/>
      <point x="84" y="562" type="line"/>
      <point x="83" y="502"/>
      <point x="83" y="365"/>
      <point x="83" y="360" type="curve"/>
      <point x="89" y="354" type="line"/>
      <point x="128" y="356"/>
      <point x="195" y="357"/>
      <point x="337" y="357" type="curve" smooth="yes"/>
      <point x="422" y="357"/>
      <point x="466" y="350"/>
      <point x="466" y="278" type="curve" smooth="yes"/>
      <point x="466" y="168"/>
      <point x="363" y="62"/>
      <point x="243" y="62" type="curve" smooth="yes"/>
      <point x="202" y="62"/>
      <point x="159" y="74"/>
      <point x="159" y="121" type="curve" smooth="yes"/>
      <point x="159" y="171"/>
      <point x="208" y="196"/>
      <point x="264" y="196" type="curve" smooth="yes"/>
      <point x="315" y="196"/>
      <point x="368" y="174"/>
      <point x="419" y="112" type="curve"/>
      <point x="457" y="169" type="line"/>
      <point x="397" y="229"/>
      <point x="326" y="271"/>
      <point x="247" y="271" type="curve" smooth="yes"/>
      <point x="159" y="271"/>
      <point x="85" y="220"/>
      <point x="85" y="136" type="curve" smooth="yes"/>
      <point x="85" y="43"/>
      <point x="177" y="-15"/>
    </contour>
    <contour>
      <point x="621" y="542" type="line"/>
      <point x="619" y="571"/>
      <point x="615" y="596"/>
      <point x="606" y="620" type="curve"/>
      <point x="-15" y="620" type="line"/>
      <point x="-15" y="593"/>
      <point x="-10" y="565"/>
      <point x="0" y="542" type="curve"/>
    </contour>
  </outline>
</glyph>
<glyph name="g.One.sups" format="2">
  <advance width="454"/>
  <outline>
    <contour>
      <point x="419" y="302" type="curve"/>
      <point x="397" y="336"/>
      <point x="390" y="376"/>
      <point x="390" y="412" type="curve" smooth="yes"/>
      <point x="390" y="463"/>
      <point x="404" y="516"/>
      <point x="404" y="561" type="curve" smooth="yes"/>
      <point x="404" y="657"/>
      <point x="335" y="717"/>
      <point x="243" y="717" type="curve" smooth="yes"/>
      <point x="159" y="717"/>
      <point x="100" y="669"/>
      <point x="100" y="601" type="curve" smooth="yes"/>
      <point x="100" y="527"/>
      <point x="169" y="474"/>
      <point x="256" y="474" type="curve" smooth="yes"/>
      <point x="293" y="474"/>
      <point x="316" y="483"/>
      <point x="348" y="495" type="curve"/>
      <point x="348" y="573" type="line"/>
      <point x="322" y="547"/>
      <point x="274" y="537"/>
      <point x="241" y="537" type="curve" smooth="yes"/>
      <point x="193" y="537"/>
      <point x="167" y="559"/>
      <point x="167" y="589" type="curve" smooth="yes"/>
      <point x="167" y="626"/>
      <point x="203" y="655"/>
      <point x="256" y="655" type="curve" smooth="yes"/>
      <point x="312" y="655"/>
      <point x="333" y="621"/>
      <point x="333" y="558" type="curve" smooth="yes"/>
      <point x="333" y="499"/>
      <point x="319" y="476"/>
      <point x="319" y="413" type="curve" smooth="yes"/>
      <point x="319" y="374"/>
      <point x="326" y="338"/>
      <point x="346" y="314" type="curve"/>
      <point x="366" y="305"/>
      <point x="398" y="302"/>
    </contour>
  </outline>
</glyph>
<glyph name="g.Ra.sub" format="2">
  <outline>
    <contour>
      <point x="140" y="-190" type="line"/>
      <point x="89" y="-128"/>
      <point x="-19" y="-61"/>
      <point x="-119" y="-61" type="curve" smooth="yes"/>
      <point x="-165" y="-61"/>
      <point x="-216" y="-80"/>
      <point x="-216" y="-134" type="curve" smooth="yes"/>
      <point x="-216" y="-175"/>
      <point x="-184" y="-200"/>
      <point x="-149" y="-200" type="curve" smooth="yes"/>
      <point x="-119" y="-200"/>
      <point x="-86" y="-182"/>
      <point x="-81" y="-142" type="curve"/>
      <point x="-73" y="-141"/>
      <point x="-64" y="-141"/>
      <point x="-55" y="-141" type="curve" smooth="yes"/>
      <point x="10" y="-141"/>
      <point x="72" y="-163"/>
      <point x="128" y="-204" type="curve"/>
    </contour>
    <contour>
      <point x="-82" y="-86" type="line"/>
      <point x="-82" y="60" type="line"/>
      <point x="-168" y="60" type="line"/>
      <point x="-168" y="-86" type="line"/>
    </contour>
  </outline>
</glyph>
<glyph name="g.Ra.subalt" format="2">
  <outline>
    <contour>
      <point x="139" y="-250" type="line"/>
      <point x="86" y="-187"/>
      <point x="-19" y="-121"/>
      <point x="-121" y="-121" type="curve" smooth="yes"/>
      <point x="-165" y="-121"/>
      <point x="-212" y="-143"/>
      <point x="-212" y="-196" type="curve" smooth="yes"/>
      <point x="-212" y="-235"/>
      <point x="-183" y="-260"/>
      <point x="-146" y="-260" type="curve" smooth="yes"/>
      <point x="-116" y="-260"/>
      <point x="-87" y="-242"/>
      <point x="-82" y="-202" type="curve"/>
      <point x="-74" y="-201"/>
      <point x="-64" y="-201"/>
      <point x="-56" y="-201" type="curve" smooth="yes"/>
      <point x="10" y="-201"/>
      <point x="71" y="-223"/>
      <point x="127" y="-264" type="curve"/>
    </contour>
    <contour>
      <point x="-83" y="-140" type="line"/>
      <point x="-83" y="-55" type="line"/>
      <point x="-107" y="-44"/>
      <point x="-145" y="-40"/>
      <point x="-165" y="-40" type="curve"/>
      <point x="-165" y="-145" type="line"/>
    </contour>
  </outline>
</glyph>
<glyph name="g.Rra.presub" format="2">
  <advance width="625"/>
  <outline>
    <contour>
      <point x="322" y="85" type="curve" smooth="yes"/>
      <point x="460" y="85"/>
      <point x="549" y="148"/>
      <point x="549" y="234" type="curve" smooth="yes"/>
      <point x="549" y="367"/>
      <point x="319" y="426"/>
      <point x="209" y="426" type="curve" smooth="yes"/>
      <point x="143" y="426"/>
      <point x="95" y="407"/>
      <point x="95" y="376" type="curve" smooth="yes"/>
      <point x="95" y="339"/>
      <point x="159" y="310"/>
      <point x="254" y="310" type="curve" smooth="yes"/>
      <point x="412" y="310"/>
      <point x="554" y="388"/>
      <point x="554" y="532" type="curve" smooth="yes"/>
      <point x="554" y="562" type="line"/>
      <point x="471" y="562" type="line"/>
      <point x="471" y="544" type="line" smooth="yes"/>
      <point x="471" y="435"/>
      <point x="393" y="411"/>
      <point x="338" y="396" type="curve"/>
      <point x="338" y="348" type="line"/>
      <point x="424" y="317"/>
      <point x="463" y="288"/>
      <point x="463" y="248" type="curve" smooth="yes"/>
      <point x="463" y="199"/>
      <point x="405" y="163"/>
      <point x="297" y="163" type="curve" smooth="yes"/>
      <point x="216" y="163"/>
      <point x="130" y="184"/>
      <point x="59" y="218" type="curve"/>
      <point x="185" y="107" type="line"/>
      <point x="230" y="91"/>
      <point x="278" y="85"/>
    </contour>
    <contour>
      <point x="285" y="-8" type="line"/>
      <point x="250" y="27"/>
      <point x="215" y="68"/>
      <point x="184" y="106" type="curve"/>
      <point x="201" y="123" type="line"/>
      <point x="59" y="218" type="line"/>
      <point x="42" y="204" type="line"/>
      <point x="70" y="134"/>
      <point x="128" y="53"/>
      <point x="176" y="5" type="curve"/>
      <point x="206" y="-7"/>
      <point x="239" y="-12"/>
      <point x="284" y="-12" type="curve"/>
    </contour>
    <contour>
      <point x="640" y="542" type="line"/>
      <point x="638" y="571"/>
      <point x="634" y="596"/>
      <point x="625" y="620" type="curve"/>
      <point x="-15" y="620" type="line"/>
      <point x="-15" y="593"/>
      <point x="-10" y="565"/>
      <point x="0" y="542" type="curve"/>
    </contour>
  </outline>
  <guideline angle="0" x="0" y="0"/>
</glyph>
<glyph name="g.Seven.sups" format="2">
  <advance width="440"/>
  <outline>
    <contour>
      <point x="86" y="307" type="curve"/>
      <point x="282" y="314"/>
      <point x="410" y="400"/>
      <point x="410" y="543" type="curve" smooth="yes"/>
      <point x="410" y="643"/>
      <point x="346" y="717"/>
      <point x="244" y="717" type="curve" smooth="yes"/>
      <point x="167" y="717"/>
      <point x="113" y="674"/>
      <point x="113" y="607" type="curve" smooth="yes"/>
      <point x="113" y="564"/>
      <point x="136" y="529"/>
      <point x="188" y="498" type="curve"/>
      <point x="222" y="541" type="line"/>
      <point x="193" y="559"/>
      <point x="182" y="576"/>
      <point x="182" y="597" type="curve" smooth="yes"/>
      <point x="182" y="632"/>
      <point x="213" y="656"/>
      <point x="258" y="656" type="curve" smooth="yes"/>
      <point x="317" y="656"/>
      <point x="342" y="613"/>
      <point x="342" y="556" type="curve" smooth="yes"/>
      <point x="342" y="430"/>
      <point x="217" y="378"/>
      <point x="75" y="370" type="curve"/>
      <point x="75" y="347"/>
      <point x="77" y="326"/>
    </contour>
  </outline>
</glyph>
<glyph name="g.Six.sups" format="2">
  <advance width="467"/>
  <outline>
    <contour>
      <point x="310" y="302" type="curve" smooth="yes"/>
      <point x="345" y="302"/>
      <point x="386" y="306"/>
      <point x="421" y="319" type="curve"/>
      <point x="429" y="340"/>
      <point x="434" y="363"/>
      <point x="437" y="391" type="curve"/>
      <point x="435" y="392" type="line"/>
      <point x="398" y="374"/>
      <point x="338" y="364"/>
      <point x="285" y="364" type="curve" smooth="yes"/>
      <point x="217" y="364"/>
      <point x="173" y="382"/>
      <point x="173" y="416" type="curve" smooth="yes"/>
      <point x="173" y="448"/>
      <point x="207" y="470"/>
      <point x="290" y="482" type="curve"/>
      <point x="290" y="518" type="line"/>
      <point x="236" y="518"/>
      <point x="180" y="551"/>
      <point x="180" y="593" type="curve" smooth="yes"/>
      <point x="180" y="630"/>
      <point x="222" y="653"/>
      <point x="294" y="655" type="curve"/>
      <point x="311" y="632"/>
      <point x="346" y="603"/>
      <point x="386" y="603" type="curve" smooth="yes"/>
      <point x="417" y="603"/>
      <point x="433" y="621"/>
      <point x="433" y="642" type="curve" smooth="yes"/>
      <point x="433" y="684"/>
      <point x="368" y="715"/>
      <point x="296" y="715" type="curve" smooth="yes"/>
      <point x="204" y="715"/>
      <point x="107" y="689"/>
      <point x="107" y="610" type="curve" smooth="yes"/>
      <point x="107" y="520"/>
      <point x="250" y="455"/>
      <point x="336" y="455" type="curve" smooth="yes"/>
      <point x="384" y="455"/>
      <point x="411" y="476"/>
      <point x="411" y="504" type="curve" smooth="yes"/>
      <point x="411" y="536"/>
      <point x="375" y="550"/>
      <point x="331" y="550" type="curve" smooth="yes"/>
      <point x="289" y="550"/>
      <point x="224" y="537"/>
      <point x="179" y="515" type="curve" smooth="yes"/>
      <point x="139" y="495"/>
      <point x="105" y="467"/>
      <point x="105" y="424" type="curve" smooth="yes"/>
      <point x="105" y="364"/>
      <point x="174" y="302"/>
    </contour>
    <contour>
      <point x="338" y="698" type="line"/>
      <point x="324" y="712"/>
      <point x="322" y="726"/>
      <point x="322" y="737" type="curve" smooth="yes"/>
      <point x="322" y="765"/>
      <point x="344" y="783"/>
      <point x="398" y="783" type="curve"/>
      <point x="399" y="783"/>
      <point x="406" y="783"/>
      <point x="414" y="782" type="curve"/>
      <point x="417" y="844" type="line"/>
      <point x="413" y="844"/>
      <point x="402" y="846"/>
      <point x="381" y="846" type="curve" smooth="yes"/>
      <point x="301" y="846"/>
      <point x="257" y="814"/>
      <point x="257" y="764" type="curve" smooth="yes"/>
      <point x="257" y="745"/>
      <point x="263" y="723"/>
      <point x="279" y="698" type="curve"/>
    </contour>
  </outline>
</glyph>
